G04 EAGLE Gerber RS-274X export*
G75*
%MOMM*%
%FSLAX34Y34*%
%LPD*%
%INSilkscreen Top*%
%IPPOS*%
%AMOC8*
5,1,8,0,0,1.08239X$1,22.5*%
G01*
%ADD10C,0.127000*%
%ADD11C,0.101600*%
%ADD12R,0.750100X1.450100*%
%ADD13C,0.152400*%
%ADD14R,1.524000X0.508000*%
%ADD15R,0.406400X0.863600*%
%ADD16R,0.350000X0.800000*%
%ADD17C,0.200000*%
%ADD18C,0.254000*%
%ADD19C,0.050800*%
%ADD20C,0.076200*%
%ADD21R,1.049800X0.300200*%
%ADD22R,1.049800X0.300000*%
%ADD23R,0.300200X1.049800*%
%ADD24R,0.300000X1.049800*%
%ADD25C,0.203200*%
%ADD26R,0.800000X0.350000*%
%ADD27C,0.400000*%
%ADD28C,0.025400*%
%ADD29R,3.200400X1.854200*%
%ADD30R,0.863600X1.854200*%


D10*
X442974Y477685D02*
X442974Y470770D01*
X442975Y470770D02*
X442973Y470684D01*
X442967Y470598D01*
X442958Y470512D01*
X442945Y470427D01*
X442928Y470342D01*
X442908Y470259D01*
X442884Y470176D01*
X442856Y470094D01*
X442825Y470014D01*
X442790Y469935D01*
X442752Y469858D01*
X442710Y469782D01*
X442666Y469708D01*
X442618Y469637D01*
X442567Y469567D01*
X442513Y469500D01*
X442456Y469435D01*
X442396Y469373D01*
X442334Y469313D01*
X442269Y469256D01*
X442202Y469202D01*
X442132Y469151D01*
X442061Y469103D01*
X441987Y469059D01*
X441911Y469017D01*
X441834Y468979D01*
X441755Y468944D01*
X441675Y468913D01*
X441593Y468885D01*
X441510Y468861D01*
X441427Y468841D01*
X441342Y468824D01*
X441257Y468811D01*
X441171Y468802D01*
X441085Y468796D01*
X440999Y468794D01*
X440999Y468795D02*
X440011Y468795D01*
X447765Y468795D02*
X447765Y477685D01*
X447765Y468795D02*
X451716Y468795D01*
X457303Y468795D02*
X459278Y468795D01*
X457303Y468794D02*
X457217Y468796D01*
X457131Y468802D01*
X457045Y468811D01*
X456960Y468824D01*
X456875Y468841D01*
X456792Y468861D01*
X456709Y468885D01*
X456627Y468913D01*
X456547Y468944D01*
X456468Y468979D01*
X456391Y469017D01*
X456315Y469059D01*
X456241Y469103D01*
X456170Y469151D01*
X456100Y469202D01*
X456033Y469256D01*
X455968Y469313D01*
X455906Y469373D01*
X455846Y469435D01*
X455789Y469500D01*
X455735Y469567D01*
X455684Y469637D01*
X455636Y469708D01*
X455592Y469782D01*
X455550Y469858D01*
X455512Y469935D01*
X455477Y470014D01*
X455446Y470094D01*
X455418Y470176D01*
X455394Y470259D01*
X455374Y470342D01*
X455357Y470427D01*
X455344Y470512D01*
X455335Y470598D01*
X455329Y470684D01*
X455327Y470770D01*
X455327Y475709D01*
X455329Y475798D01*
X455335Y475886D01*
X455345Y475974D01*
X455359Y476062D01*
X455377Y476149D01*
X455398Y476235D01*
X455424Y476320D01*
X455453Y476403D01*
X455486Y476486D01*
X455523Y476566D01*
X455563Y476645D01*
X455607Y476722D01*
X455654Y476798D01*
X455704Y476870D01*
X455758Y476941D01*
X455815Y477009D01*
X455875Y477075D01*
X455937Y477137D01*
X456003Y477197D01*
X456071Y477254D01*
X456142Y477308D01*
X456214Y477358D01*
X456289Y477405D01*
X456367Y477449D01*
X456446Y477489D01*
X456526Y477526D01*
X456609Y477559D01*
X456692Y477588D01*
X456777Y477614D01*
X456863Y477635D01*
X456950Y477653D01*
X457038Y477667D01*
X457126Y477677D01*
X457214Y477683D01*
X457303Y477685D01*
X459278Y477685D01*
X464920Y477685D02*
X464920Y470770D01*
X464918Y470684D01*
X464912Y470598D01*
X464903Y470512D01*
X464890Y470427D01*
X464873Y470342D01*
X464853Y470259D01*
X464829Y470176D01*
X464801Y470094D01*
X464770Y470014D01*
X464735Y469935D01*
X464697Y469858D01*
X464655Y469782D01*
X464611Y469708D01*
X464563Y469637D01*
X464512Y469567D01*
X464458Y469500D01*
X464401Y469435D01*
X464341Y469373D01*
X464279Y469313D01*
X464214Y469256D01*
X464147Y469202D01*
X464077Y469151D01*
X464006Y469103D01*
X463932Y469059D01*
X463856Y469017D01*
X463779Y468979D01*
X463700Y468944D01*
X463620Y468913D01*
X463538Y468885D01*
X463455Y468861D01*
X463372Y468841D01*
X463287Y468824D01*
X463202Y468811D01*
X463116Y468802D01*
X463030Y468796D01*
X462944Y468794D01*
X462944Y468795D02*
X461957Y468795D01*
X469710Y468795D02*
X469710Y477685D01*
X469710Y468795D02*
X473661Y468795D01*
X479248Y468795D02*
X481224Y468795D01*
X479248Y468794D02*
X479162Y468796D01*
X479076Y468802D01*
X478990Y468811D01*
X478905Y468824D01*
X478820Y468841D01*
X478737Y468861D01*
X478654Y468885D01*
X478572Y468913D01*
X478492Y468944D01*
X478413Y468979D01*
X478336Y469017D01*
X478260Y469059D01*
X478186Y469103D01*
X478115Y469151D01*
X478045Y469202D01*
X477978Y469256D01*
X477913Y469313D01*
X477851Y469373D01*
X477791Y469435D01*
X477734Y469500D01*
X477680Y469567D01*
X477629Y469637D01*
X477581Y469708D01*
X477537Y469782D01*
X477495Y469858D01*
X477457Y469935D01*
X477422Y470014D01*
X477391Y470094D01*
X477363Y470176D01*
X477339Y470259D01*
X477319Y470342D01*
X477302Y470427D01*
X477289Y470512D01*
X477280Y470598D01*
X477274Y470684D01*
X477272Y470770D01*
X477273Y470770D02*
X477273Y475709D01*
X477272Y475709D02*
X477274Y475798D01*
X477280Y475886D01*
X477290Y475974D01*
X477304Y476062D01*
X477322Y476149D01*
X477343Y476235D01*
X477369Y476320D01*
X477398Y476403D01*
X477431Y476486D01*
X477468Y476566D01*
X477508Y476645D01*
X477552Y476722D01*
X477599Y476798D01*
X477649Y476870D01*
X477703Y476941D01*
X477760Y477009D01*
X477820Y477075D01*
X477882Y477137D01*
X477948Y477197D01*
X478016Y477254D01*
X478087Y477308D01*
X478159Y477358D01*
X478234Y477405D01*
X478312Y477449D01*
X478391Y477489D01*
X478471Y477526D01*
X478554Y477559D01*
X478637Y477588D01*
X478722Y477614D01*
X478808Y477635D01*
X478895Y477653D01*
X478983Y477667D01*
X479071Y477677D01*
X479159Y477683D01*
X479248Y477685D01*
X481224Y477685D01*
X486865Y477685D02*
X486865Y470770D01*
X486866Y470770D02*
X486864Y470684D01*
X486858Y470598D01*
X486849Y470512D01*
X486836Y470427D01*
X486819Y470342D01*
X486799Y470259D01*
X486775Y470176D01*
X486747Y470094D01*
X486716Y470014D01*
X486681Y469935D01*
X486643Y469858D01*
X486601Y469782D01*
X486557Y469708D01*
X486509Y469637D01*
X486458Y469567D01*
X486404Y469500D01*
X486347Y469435D01*
X486287Y469373D01*
X486225Y469313D01*
X486160Y469256D01*
X486093Y469202D01*
X486023Y469151D01*
X485952Y469103D01*
X485878Y469059D01*
X485802Y469017D01*
X485725Y468979D01*
X485646Y468944D01*
X485566Y468913D01*
X485484Y468885D01*
X485401Y468861D01*
X485318Y468841D01*
X485233Y468824D01*
X485148Y468811D01*
X485062Y468802D01*
X484976Y468796D01*
X484890Y468794D01*
X484890Y468795D02*
X483902Y468795D01*
X491656Y468795D02*
X491656Y477685D01*
X491656Y468795D02*
X495607Y468795D01*
X501194Y468795D02*
X503169Y468795D01*
X501194Y468794D02*
X501108Y468796D01*
X501022Y468802D01*
X500936Y468811D01*
X500851Y468824D01*
X500766Y468841D01*
X500683Y468861D01*
X500600Y468885D01*
X500518Y468913D01*
X500438Y468944D01*
X500359Y468979D01*
X500282Y469017D01*
X500206Y469059D01*
X500132Y469103D01*
X500061Y469151D01*
X499991Y469202D01*
X499924Y469256D01*
X499859Y469313D01*
X499797Y469373D01*
X499737Y469435D01*
X499680Y469500D01*
X499626Y469567D01*
X499575Y469637D01*
X499527Y469708D01*
X499483Y469782D01*
X499441Y469858D01*
X499403Y469935D01*
X499368Y470014D01*
X499337Y470094D01*
X499309Y470176D01*
X499285Y470259D01*
X499265Y470342D01*
X499248Y470427D01*
X499235Y470512D01*
X499226Y470598D01*
X499220Y470684D01*
X499218Y470770D01*
X499218Y475709D01*
X499220Y475798D01*
X499226Y475886D01*
X499236Y475974D01*
X499250Y476062D01*
X499268Y476149D01*
X499289Y476235D01*
X499315Y476320D01*
X499344Y476403D01*
X499377Y476486D01*
X499414Y476566D01*
X499454Y476645D01*
X499498Y476722D01*
X499545Y476798D01*
X499595Y476870D01*
X499649Y476941D01*
X499706Y477009D01*
X499766Y477075D01*
X499828Y477137D01*
X499894Y477197D01*
X499962Y477254D01*
X500033Y477308D01*
X500105Y477358D01*
X500180Y477405D01*
X500258Y477449D01*
X500337Y477489D01*
X500417Y477526D01*
X500500Y477559D01*
X500583Y477588D01*
X500668Y477614D01*
X500754Y477635D01*
X500841Y477653D01*
X500929Y477667D01*
X501017Y477677D01*
X501105Y477683D01*
X501194Y477685D01*
X503169Y477685D01*
X508811Y477685D02*
X508811Y470770D01*
X508809Y470684D01*
X508803Y470598D01*
X508794Y470512D01*
X508781Y470427D01*
X508764Y470342D01*
X508744Y470259D01*
X508720Y470176D01*
X508692Y470094D01*
X508661Y470014D01*
X508626Y469935D01*
X508588Y469858D01*
X508546Y469782D01*
X508502Y469708D01*
X508454Y469637D01*
X508403Y469567D01*
X508349Y469500D01*
X508292Y469435D01*
X508232Y469373D01*
X508170Y469313D01*
X508105Y469256D01*
X508038Y469202D01*
X507968Y469151D01*
X507897Y469103D01*
X507823Y469059D01*
X507747Y469017D01*
X507670Y468979D01*
X507591Y468944D01*
X507511Y468913D01*
X507429Y468885D01*
X507346Y468861D01*
X507263Y468841D01*
X507178Y468824D01*
X507093Y468811D01*
X507007Y468802D01*
X506921Y468796D01*
X506835Y468794D01*
X506835Y468795D02*
X505847Y468795D01*
X513601Y468795D02*
X513601Y477685D01*
X513601Y468795D02*
X517552Y468795D01*
X523139Y468795D02*
X525115Y468795D01*
X523139Y468794D02*
X523053Y468796D01*
X522967Y468802D01*
X522881Y468811D01*
X522796Y468824D01*
X522711Y468841D01*
X522628Y468861D01*
X522545Y468885D01*
X522463Y468913D01*
X522383Y468944D01*
X522304Y468979D01*
X522227Y469017D01*
X522151Y469059D01*
X522077Y469103D01*
X522006Y469151D01*
X521936Y469202D01*
X521869Y469256D01*
X521804Y469313D01*
X521742Y469373D01*
X521682Y469435D01*
X521625Y469500D01*
X521571Y469567D01*
X521520Y469637D01*
X521472Y469708D01*
X521428Y469782D01*
X521386Y469858D01*
X521348Y469935D01*
X521313Y470014D01*
X521282Y470094D01*
X521254Y470176D01*
X521230Y470259D01*
X521210Y470342D01*
X521193Y470427D01*
X521180Y470512D01*
X521171Y470598D01*
X521165Y470684D01*
X521163Y470770D01*
X521164Y470770D02*
X521164Y475709D01*
X521163Y475709D02*
X521165Y475798D01*
X521171Y475886D01*
X521181Y475974D01*
X521195Y476062D01*
X521213Y476149D01*
X521234Y476235D01*
X521260Y476320D01*
X521289Y476403D01*
X521322Y476486D01*
X521359Y476566D01*
X521399Y476645D01*
X521443Y476722D01*
X521490Y476798D01*
X521540Y476870D01*
X521594Y476941D01*
X521651Y477009D01*
X521711Y477075D01*
X521773Y477137D01*
X521839Y477197D01*
X521907Y477254D01*
X521978Y477308D01*
X522050Y477358D01*
X522125Y477405D01*
X522203Y477449D01*
X522282Y477489D01*
X522362Y477526D01*
X522445Y477559D01*
X522528Y477588D01*
X522613Y477614D01*
X522699Y477635D01*
X522786Y477653D01*
X522874Y477667D01*
X522962Y477677D01*
X523050Y477683D01*
X523139Y477685D01*
X525115Y477685D01*
X266321Y12911D02*
X261382Y12911D01*
X266321Y12911D02*
X261382Y4021D01*
X266321Y4021D01*
X269728Y4021D02*
X275654Y12911D01*
X269728Y12911D02*
X275654Y4021D01*
X284721Y8960D02*
X287190Y8960D01*
X287288Y8958D01*
X287386Y8952D01*
X287484Y8942D01*
X287581Y8929D01*
X287678Y8911D01*
X287774Y8890D01*
X287868Y8865D01*
X287962Y8836D01*
X288055Y8804D01*
X288146Y8767D01*
X288236Y8728D01*
X288324Y8684D01*
X288410Y8637D01*
X288495Y8587D01*
X288577Y8534D01*
X288657Y8477D01*
X288735Y8417D01*
X288810Y8354D01*
X288883Y8288D01*
X288953Y8219D01*
X289020Y8148D01*
X289085Y8074D01*
X289146Y7997D01*
X289205Y7918D01*
X289260Y7837D01*
X289312Y7754D01*
X289360Y7668D01*
X289405Y7581D01*
X289447Y7492D01*
X289485Y7402D01*
X289519Y7310D01*
X289550Y7217D01*
X289577Y7122D01*
X289600Y7027D01*
X289620Y6930D01*
X289635Y6834D01*
X289647Y6736D01*
X289655Y6638D01*
X289659Y6540D01*
X289659Y6442D01*
X289655Y6344D01*
X289647Y6246D01*
X289635Y6148D01*
X289620Y6052D01*
X289600Y5955D01*
X289577Y5860D01*
X289550Y5765D01*
X289519Y5672D01*
X289485Y5580D01*
X289447Y5490D01*
X289405Y5401D01*
X289360Y5314D01*
X289312Y5228D01*
X289260Y5145D01*
X289205Y5064D01*
X289146Y4985D01*
X289085Y4908D01*
X289020Y4834D01*
X288953Y4763D01*
X288883Y4694D01*
X288810Y4628D01*
X288735Y4565D01*
X288657Y4505D01*
X288577Y4448D01*
X288495Y4395D01*
X288410Y4345D01*
X288324Y4298D01*
X288236Y4254D01*
X288146Y4215D01*
X288055Y4178D01*
X287962Y4146D01*
X287868Y4117D01*
X287774Y4092D01*
X287678Y4071D01*
X287581Y4053D01*
X287484Y4040D01*
X287386Y4030D01*
X287288Y4024D01*
X287190Y4022D01*
X287190Y4021D02*
X284721Y4021D01*
X284721Y12911D01*
X287190Y12911D01*
X287190Y12912D02*
X287277Y12910D01*
X287365Y12904D01*
X287452Y12895D01*
X287538Y12881D01*
X287624Y12864D01*
X287708Y12843D01*
X287792Y12818D01*
X287875Y12789D01*
X287956Y12757D01*
X288036Y12722D01*
X288114Y12683D01*
X288191Y12640D01*
X288265Y12594D01*
X288337Y12545D01*
X288407Y12493D01*
X288475Y12437D01*
X288540Y12379D01*
X288603Y12318D01*
X288662Y12254D01*
X288719Y12187D01*
X288773Y12119D01*
X288824Y12047D01*
X288871Y11974D01*
X288916Y11899D01*
X288957Y11821D01*
X288994Y11742D01*
X289028Y11662D01*
X289058Y11580D01*
X289085Y11497D01*
X289108Y11412D01*
X289127Y11327D01*
X289142Y11241D01*
X289154Y11154D01*
X289162Y11067D01*
X289166Y10980D01*
X289166Y10892D01*
X289162Y10805D01*
X289154Y10718D01*
X289142Y10631D01*
X289127Y10545D01*
X289108Y10460D01*
X289085Y10375D01*
X289058Y10292D01*
X289028Y10210D01*
X288994Y10130D01*
X288957Y10051D01*
X288916Y9973D01*
X288871Y9898D01*
X288824Y9825D01*
X288773Y9753D01*
X288719Y9685D01*
X288662Y9618D01*
X288603Y9554D01*
X288540Y9493D01*
X288475Y9435D01*
X288407Y9379D01*
X288337Y9327D01*
X288265Y9278D01*
X288191Y9232D01*
X288114Y9189D01*
X288036Y9150D01*
X287956Y9115D01*
X287875Y9083D01*
X287792Y9054D01*
X287708Y9029D01*
X287624Y9008D01*
X287538Y8991D01*
X287452Y8977D01*
X287365Y8968D01*
X287277Y8962D01*
X287190Y8960D01*
X293691Y6491D02*
X293691Y12911D01*
X293691Y6491D02*
X293693Y6393D01*
X293699Y6295D01*
X293709Y6197D01*
X293722Y6100D01*
X293740Y6003D01*
X293761Y5907D01*
X293786Y5813D01*
X293815Y5719D01*
X293847Y5626D01*
X293884Y5535D01*
X293923Y5445D01*
X293967Y5357D01*
X294014Y5271D01*
X294064Y5186D01*
X294117Y5104D01*
X294174Y5024D01*
X294234Y4946D01*
X294297Y4871D01*
X294363Y4798D01*
X294432Y4728D01*
X294503Y4661D01*
X294577Y4596D01*
X294654Y4535D01*
X294733Y4476D01*
X294814Y4421D01*
X294897Y4369D01*
X294983Y4321D01*
X295070Y4276D01*
X295159Y4234D01*
X295249Y4196D01*
X295341Y4162D01*
X295434Y4131D01*
X295529Y4104D01*
X295624Y4081D01*
X295721Y4061D01*
X295817Y4046D01*
X295915Y4034D01*
X296013Y4026D01*
X296111Y4022D01*
X296209Y4022D01*
X296307Y4026D01*
X296405Y4034D01*
X296503Y4046D01*
X296599Y4061D01*
X296696Y4081D01*
X296791Y4104D01*
X296886Y4131D01*
X296979Y4162D01*
X297071Y4196D01*
X297161Y4234D01*
X297250Y4276D01*
X297337Y4321D01*
X297423Y4369D01*
X297506Y4421D01*
X297587Y4476D01*
X297666Y4535D01*
X297743Y4596D01*
X297817Y4661D01*
X297888Y4728D01*
X297957Y4798D01*
X298023Y4871D01*
X298086Y4946D01*
X298146Y5024D01*
X298203Y5104D01*
X298256Y5186D01*
X298306Y5271D01*
X298353Y5357D01*
X298397Y5445D01*
X298436Y5535D01*
X298473Y5626D01*
X298505Y5719D01*
X298534Y5813D01*
X298559Y5907D01*
X298580Y6003D01*
X298598Y6100D01*
X298611Y6197D01*
X298621Y6295D01*
X298627Y6393D01*
X298629Y6491D01*
X298630Y6491D02*
X298630Y12911D01*
X305798Y4021D02*
X305884Y4023D01*
X305970Y4029D01*
X306056Y4038D01*
X306141Y4051D01*
X306226Y4068D01*
X306309Y4088D01*
X306392Y4112D01*
X306474Y4140D01*
X306554Y4171D01*
X306633Y4206D01*
X306710Y4244D01*
X306786Y4286D01*
X306860Y4330D01*
X306931Y4378D01*
X307001Y4429D01*
X307068Y4483D01*
X307133Y4540D01*
X307195Y4600D01*
X307255Y4662D01*
X307312Y4727D01*
X307366Y4794D01*
X307417Y4864D01*
X307465Y4935D01*
X307509Y5009D01*
X307551Y5085D01*
X307589Y5162D01*
X307624Y5241D01*
X307655Y5321D01*
X307683Y5403D01*
X307707Y5486D01*
X307727Y5569D01*
X307744Y5654D01*
X307757Y5739D01*
X307766Y5825D01*
X307772Y5911D01*
X307774Y5997D01*
X305798Y4022D02*
X305671Y4024D01*
X305545Y4030D01*
X305418Y4039D01*
X305292Y4053D01*
X305167Y4070D01*
X305042Y4091D01*
X304918Y4116D01*
X304794Y4145D01*
X304672Y4177D01*
X304550Y4213D01*
X304430Y4253D01*
X304311Y4296D01*
X304193Y4343D01*
X304077Y4394D01*
X303962Y4448D01*
X303849Y4505D01*
X303738Y4566D01*
X303629Y4630D01*
X303522Y4698D01*
X303416Y4768D01*
X303313Y4842D01*
X303213Y4919D01*
X303115Y4999D01*
X303019Y5082D01*
X302926Y5168D01*
X302835Y5257D01*
X303081Y10936D02*
X303083Y11022D01*
X303089Y11108D01*
X303098Y11194D01*
X303111Y11279D01*
X303128Y11364D01*
X303148Y11447D01*
X303172Y11530D01*
X303200Y11612D01*
X303231Y11692D01*
X303266Y11771D01*
X303304Y11848D01*
X303346Y11924D01*
X303390Y11998D01*
X303438Y12069D01*
X303489Y12139D01*
X303543Y12206D01*
X303600Y12271D01*
X303660Y12333D01*
X303722Y12393D01*
X303787Y12450D01*
X303854Y12504D01*
X303924Y12555D01*
X303995Y12603D01*
X304069Y12647D01*
X304145Y12689D01*
X304222Y12727D01*
X304301Y12762D01*
X304381Y12793D01*
X304463Y12821D01*
X304546Y12845D01*
X304629Y12865D01*
X304714Y12882D01*
X304799Y12895D01*
X304885Y12904D01*
X304971Y12910D01*
X305057Y12912D01*
X305057Y12911D02*
X305176Y12909D01*
X305295Y12903D01*
X305414Y12894D01*
X305532Y12880D01*
X305650Y12863D01*
X305768Y12842D01*
X305884Y12817D01*
X306000Y12789D01*
X306115Y12757D01*
X306228Y12721D01*
X306341Y12681D01*
X306452Y12638D01*
X306562Y12592D01*
X306670Y12542D01*
X306776Y12488D01*
X306881Y12431D01*
X306983Y12371D01*
X307084Y12307D01*
X307183Y12240D01*
X307279Y12170D01*
X304070Y9208D02*
X303996Y9253D01*
X303924Y9302D01*
X303854Y9354D01*
X303787Y9409D01*
X303722Y9467D01*
X303660Y9527D01*
X303601Y9590D01*
X303544Y9656D01*
X303490Y9724D01*
X303439Y9794D01*
X303391Y9866D01*
X303346Y9941D01*
X303305Y10017D01*
X303267Y10095D01*
X303232Y10175D01*
X303201Y10256D01*
X303173Y10338D01*
X303149Y10421D01*
X303129Y10505D01*
X303112Y10591D01*
X303099Y10676D01*
X303090Y10763D01*
X303084Y10849D01*
X303082Y10936D01*
X306785Y7725D02*
X306859Y7680D01*
X306931Y7631D01*
X307001Y7579D01*
X307068Y7524D01*
X307133Y7466D01*
X307195Y7406D01*
X307255Y7343D01*
X307311Y7277D01*
X307365Y7209D01*
X307416Y7139D01*
X307464Y7067D01*
X307509Y6992D01*
X307550Y6916D01*
X307588Y6838D01*
X307623Y6758D01*
X307654Y6677D01*
X307682Y6595D01*
X307706Y6512D01*
X307726Y6428D01*
X307743Y6342D01*
X307756Y6257D01*
X307765Y6170D01*
X307771Y6084D01*
X307773Y5997D01*
X306786Y7725D02*
X304070Y9207D01*
X316879Y4021D02*
X320830Y4021D01*
X316879Y4021D02*
X316879Y12911D01*
X320830Y12911D01*
X319842Y8960D02*
X316879Y8960D01*
X323982Y4021D02*
X329908Y12911D01*
X323982Y12911D02*
X329908Y4021D01*
X334098Y4021D02*
X334098Y12911D01*
X336567Y12911D01*
X336665Y12909D01*
X336763Y12903D01*
X336861Y12893D01*
X336958Y12880D01*
X337055Y12862D01*
X337151Y12841D01*
X337245Y12816D01*
X337339Y12787D01*
X337432Y12755D01*
X337523Y12718D01*
X337613Y12679D01*
X337701Y12635D01*
X337787Y12588D01*
X337872Y12538D01*
X337954Y12485D01*
X338034Y12428D01*
X338112Y12368D01*
X338187Y12305D01*
X338260Y12239D01*
X338330Y12170D01*
X338397Y12099D01*
X338462Y12025D01*
X338523Y11948D01*
X338582Y11869D01*
X338637Y11788D01*
X338689Y11705D01*
X338737Y11619D01*
X338782Y11532D01*
X338824Y11443D01*
X338862Y11353D01*
X338896Y11261D01*
X338927Y11168D01*
X338954Y11073D01*
X338977Y10978D01*
X338997Y10881D01*
X339012Y10785D01*
X339024Y10687D01*
X339032Y10589D01*
X339036Y10491D01*
X339036Y10393D01*
X339032Y10295D01*
X339024Y10197D01*
X339012Y10099D01*
X338997Y10003D01*
X338977Y9906D01*
X338954Y9811D01*
X338927Y9716D01*
X338896Y9623D01*
X338862Y9531D01*
X338824Y9441D01*
X338782Y9352D01*
X338737Y9265D01*
X338689Y9179D01*
X338637Y9096D01*
X338582Y9015D01*
X338523Y8936D01*
X338462Y8859D01*
X338397Y8785D01*
X338330Y8714D01*
X338260Y8645D01*
X338187Y8579D01*
X338112Y8516D01*
X338034Y8456D01*
X337954Y8399D01*
X337872Y8346D01*
X337787Y8296D01*
X337701Y8249D01*
X337613Y8205D01*
X337523Y8166D01*
X337432Y8129D01*
X337339Y8097D01*
X337245Y8068D01*
X337151Y8043D01*
X337055Y8022D01*
X336958Y8004D01*
X336861Y7991D01*
X336763Y7981D01*
X336665Y7975D01*
X336567Y7973D01*
X336567Y7972D02*
X334098Y7972D01*
X342270Y4021D02*
X345233Y12911D01*
X348196Y4021D01*
X347455Y6244D02*
X343010Y6244D01*
X352212Y4021D02*
X352212Y12911D01*
X357151Y4021D01*
X357151Y12911D01*
X364320Y4021D02*
X364406Y4023D01*
X364492Y4029D01*
X364578Y4038D01*
X364663Y4051D01*
X364748Y4068D01*
X364831Y4088D01*
X364914Y4112D01*
X364996Y4140D01*
X365076Y4171D01*
X365155Y4206D01*
X365232Y4244D01*
X365308Y4286D01*
X365382Y4330D01*
X365453Y4378D01*
X365523Y4429D01*
X365590Y4483D01*
X365655Y4540D01*
X365717Y4600D01*
X365777Y4662D01*
X365834Y4727D01*
X365888Y4794D01*
X365939Y4864D01*
X365987Y4935D01*
X366031Y5009D01*
X366073Y5085D01*
X366111Y5162D01*
X366146Y5241D01*
X366177Y5321D01*
X366205Y5403D01*
X366229Y5486D01*
X366249Y5569D01*
X366266Y5654D01*
X366279Y5739D01*
X366288Y5825D01*
X366294Y5911D01*
X366296Y5997D01*
X364320Y4022D02*
X364193Y4024D01*
X364067Y4030D01*
X363940Y4039D01*
X363814Y4053D01*
X363689Y4070D01*
X363564Y4091D01*
X363440Y4116D01*
X363316Y4145D01*
X363194Y4177D01*
X363072Y4213D01*
X362952Y4253D01*
X362833Y4296D01*
X362715Y4343D01*
X362599Y4394D01*
X362484Y4448D01*
X362371Y4505D01*
X362260Y4566D01*
X362151Y4630D01*
X362044Y4698D01*
X361938Y4768D01*
X361835Y4842D01*
X361735Y4919D01*
X361637Y4999D01*
X361541Y5082D01*
X361448Y5168D01*
X361357Y5257D01*
X361603Y10936D02*
X361605Y11022D01*
X361611Y11108D01*
X361620Y11194D01*
X361633Y11279D01*
X361650Y11364D01*
X361670Y11447D01*
X361694Y11530D01*
X361722Y11612D01*
X361753Y11692D01*
X361788Y11771D01*
X361826Y11848D01*
X361868Y11924D01*
X361912Y11998D01*
X361960Y12069D01*
X362011Y12139D01*
X362065Y12206D01*
X362122Y12271D01*
X362182Y12333D01*
X362244Y12393D01*
X362309Y12450D01*
X362376Y12504D01*
X362446Y12555D01*
X362517Y12603D01*
X362591Y12647D01*
X362667Y12689D01*
X362744Y12727D01*
X362823Y12762D01*
X362903Y12793D01*
X362985Y12821D01*
X363068Y12845D01*
X363151Y12865D01*
X363236Y12882D01*
X363321Y12895D01*
X363407Y12904D01*
X363493Y12910D01*
X363579Y12912D01*
X363579Y12911D02*
X363698Y12909D01*
X363817Y12903D01*
X363936Y12894D01*
X364054Y12880D01*
X364172Y12863D01*
X364290Y12842D01*
X364406Y12817D01*
X364522Y12789D01*
X364637Y12757D01*
X364750Y12721D01*
X364863Y12681D01*
X364974Y12638D01*
X365084Y12592D01*
X365192Y12542D01*
X365298Y12488D01*
X365403Y12431D01*
X365505Y12371D01*
X365606Y12307D01*
X365705Y12240D01*
X365801Y12170D01*
X362592Y9208D02*
X362518Y9253D01*
X362446Y9302D01*
X362376Y9354D01*
X362309Y9409D01*
X362244Y9467D01*
X362182Y9527D01*
X362123Y9590D01*
X362066Y9656D01*
X362012Y9724D01*
X361961Y9794D01*
X361913Y9866D01*
X361868Y9941D01*
X361827Y10017D01*
X361789Y10095D01*
X361754Y10175D01*
X361723Y10256D01*
X361695Y10338D01*
X361671Y10421D01*
X361651Y10505D01*
X361634Y10591D01*
X361621Y10676D01*
X361612Y10763D01*
X361606Y10849D01*
X361604Y10936D01*
X365307Y7725D02*
X365381Y7680D01*
X365453Y7631D01*
X365523Y7579D01*
X365590Y7524D01*
X365655Y7466D01*
X365717Y7406D01*
X365777Y7343D01*
X365833Y7277D01*
X365887Y7209D01*
X365938Y7139D01*
X365986Y7067D01*
X366031Y6992D01*
X366072Y6916D01*
X366110Y6838D01*
X366145Y6758D01*
X366176Y6677D01*
X366204Y6595D01*
X366228Y6512D01*
X366248Y6428D01*
X366265Y6342D01*
X366278Y6257D01*
X366287Y6170D01*
X366293Y6084D01*
X366295Y5997D01*
X365307Y7725D02*
X362591Y9207D01*
X370195Y10442D02*
X370195Y6491D01*
X370196Y10442D02*
X370198Y10540D01*
X370204Y10638D01*
X370214Y10736D01*
X370227Y10833D01*
X370245Y10930D01*
X370266Y11026D01*
X370291Y11120D01*
X370320Y11214D01*
X370352Y11307D01*
X370389Y11398D01*
X370428Y11488D01*
X370472Y11576D01*
X370519Y11662D01*
X370569Y11747D01*
X370622Y11829D01*
X370679Y11909D01*
X370739Y11987D01*
X370802Y12062D01*
X370868Y12135D01*
X370937Y12205D01*
X371008Y12272D01*
X371082Y12337D01*
X371159Y12398D01*
X371238Y12457D01*
X371319Y12512D01*
X371402Y12564D01*
X371488Y12612D01*
X371575Y12657D01*
X371664Y12699D01*
X371754Y12737D01*
X371846Y12771D01*
X371939Y12802D01*
X372034Y12829D01*
X372129Y12852D01*
X372226Y12872D01*
X372322Y12887D01*
X372420Y12899D01*
X372518Y12907D01*
X372616Y12911D01*
X372714Y12911D01*
X372812Y12907D01*
X372910Y12899D01*
X373008Y12887D01*
X373104Y12872D01*
X373201Y12852D01*
X373296Y12829D01*
X373391Y12802D01*
X373484Y12771D01*
X373576Y12737D01*
X373666Y12699D01*
X373755Y12657D01*
X373842Y12612D01*
X373928Y12564D01*
X374011Y12512D01*
X374092Y12457D01*
X374171Y12398D01*
X374248Y12337D01*
X374322Y12272D01*
X374393Y12205D01*
X374462Y12135D01*
X374528Y12062D01*
X374591Y11987D01*
X374651Y11909D01*
X374708Y11829D01*
X374761Y11747D01*
X374811Y11662D01*
X374858Y11576D01*
X374902Y11488D01*
X374941Y11398D01*
X374978Y11307D01*
X375010Y11214D01*
X375039Y11120D01*
X375064Y11026D01*
X375085Y10930D01*
X375103Y10833D01*
X375116Y10736D01*
X375126Y10638D01*
X375132Y10540D01*
X375134Y10442D01*
X375134Y6491D01*
X375132Y6393D01*
X375126Y6295D01*
X375116Y6197D01*
X375103Y6100D01*
X375085Y6003D01*
X375064Y5907D01*
X375039Y5813D01*
X375010Y5719D01*
X374978Y5626D01*
X374941Y5535D01*
X374902Y5445D01*
X374858Y5357D01*
X374811Y5271D01*
X374761Y5186D01*
X374708Y5104D01*
X374651Y5024D01*
X374591Y4946D01*
X374528Y4871D01*
X374462Y4798D01*
X374393Y4728D01*
X374322Y4661D01*
X374248Y4596D01*
X374171Y4535D01*
X374092Y4476D01*
X374011Y4421D01*
X373928Y4369D01*
X373842Y4321D01*
X373755Y4276D01*
X373666Y4234D01*
X373576Y4196D01*
X373484Y4162D01*
X373391Y4131D01*
X373296Y4104D01*
X373201Y4081D01*
X373104Y4061D01*
X373008Y4046D01*
X372910Y4034D01*
X372812Y4026D01*
X372714Y4022D01*
X372616Y4022D01*
X372518Y4026D01*
X372420Y4034D01*
X372322Y4046D01*
X372226Y4061D01*
X372129Y4081D01*
X372034Y4104D01*
X371939Y4131D01*
X371846Y4162D01*
X371754Y4196D01*
X371664Y4234D01*
X371575Y4276D01*
X371488Y4321D01*
X371402Y4369D01*
X371319Y4421D01*
X371238Y4476D01*
X371159Y4535D01*
X371082Y4596D01*
X371008Y4661D01*
X370937Y4728D01*
X370868Y4798D01*
X370802Y4871D01*
X370739Y4946D01*
X370679Y5024D01*
X370622Y5104D01*
X370569Y5186D01*
X370519Y5271D01*
X370472Y5357D01*
X370428Y5445D01*
X370389Y5535D01*
X370352Y5626D01*
X370320Y5719D01*
X370291Y5813D01*
X370266Y5907D01*
X370245Y6003D01*
X370227Y6100D01*
X370214Y6197D01*
X370204Y6295D01*
X370198Y6393D01*
X370196Y6491D01*
X379720Y4021D02*
X379720Y12911D01*
X382189Y12911D01*
X382287Y12909D01*
X382385Y12903D01*
X382483Y12893D01*
X382580Y12880D01*
X382677Y12862D01*
X382773Y12841D01*
X382867Y12816D01*
X382961Y12787D01*
X383054Y12755D01*
X383145Y12718D01*
X383235Y12679D01*
X383323Y12635D01*
X383409Y12588D01*
X383494Y12538D01*
X383576Y12485D01*
X383656Y12428D01*
X383734Y12368D01*
X383809Y12305D01*
X383882Y12239D01*
X383952Y12170D01*
X384019Y12099D01*
X384084Y12025D01*
X384145Y11948D01*
X384204Y11869D01*
X384259Y11788D01*
X384311Y11705D01*
X384359Y11619D01*
X384404Y11532D01*
X384446Y11443D01*
X384484Y11353D01*
X384518Y11261D01*
X384549Y11168D01*
X384576Y11073D01*
X384599Y10978D01*
X384619Y10881D01*
X384634Y10785D01*
X384646Y10687D01*
X384654Y10589D01*
X384658Y10491D01*
X384658Y10393D01*
X384654Y10295D01*
X384646Y10197D01*
X384634Y10099D01*
X384619Y10003D01*
X384599Y9906D01*
X384576Y9811D01*
X384549Y9716D01*
X384518Y9623D01*
X384484Y9531D01*
X384446Y9441D01*
X384404Y9352D01*
X384359Y9265D01*
X384311Y9179D01*
X384259Y9096D01*
X384204Y9015D01*
X384145Y8936D01*
X384084Y8859D01*
X384019Y8785D01*
X383952Y8714D01*
X383882Y8645D01*
X383809Y8579D01*
X383734Y8516D01*
X383656Y8456D01*
X383576Y8399D01*
X383494Y8346D01*
X383409Y8296D01*
X383323Y8249D01*
X383235Y8205D01*
X383145Y8166D01*
X383054Y8129D01*
X382961Y8097D01*
X382867Y8068D01*
X382773Y8043D01*
X382677Y8022D01*
X382580Y8004D01*
X382483Y7991D01*
X382385Y7981D01*
X382287Y7975D01*
X382189Y7973D01*
X382189Y7972D02*
X379720Y7972D01*
X382683Y7972D02*
X384659Y4021D01*
X397427Y8960D02*
X398909Y8960D01*
X398909Y4021D01*
X395945Y4021D01*
X395859Y4023D01*
X395773Y4029D01*
X395687Y4038D01*
X395602Y4051D01*
X395517Y4068D01*
X395434Y4088D01*
X395351Y4112D01*
X395269Y4140D01*
X395189Y4171D01*
X395110Y4206D01*
X395033Y4244D01*
X394957Y4286D01*
X394883Y4330D01*
X394812Y4378D01*
X394742Y4429D01*
X394675Y4483D01*
X394610Y4540D01*
X394548Y4600D01*
X394488Y4662D01*
X394431Y4727D01*
X394377Y4794D01*
X394326Y4864D01*
X394278Y4935D01*
X394234Y5009D01*
X394192Y5085D01*
X394154Y5162D01*
X394119Y5241D01*
X394088Y5321D01*
X394060Y5403D01*
X394036Y5486D01*
X394016Y5569D01*
X393999Y5654D01*
X393986Y5739D01*
X393977Y5825D01*
X393971Y5911D01*
X393969Y5997D01*
X393970Y5997D02*
X393970Y10936D01*
X393969Y10936D02*
X393971Y11025D01*
X393977Y11113D01*
X393987Y11201D01*
X394001Y11289D01*
X394019Y11376D01*
X394040Y11462D01*
X394066Y11547D01*
X394095Y11630D01*
X394128Y11713D01*
X394165Y11793D01*
X394205Y11872D01*
X394249Y11949D01*
X394296Y12025D01*
X394346Y12097D01*
X394400Y12168D01*
X394457Y12236D01*
X394517Y12302D01*
X394579Y12364D01*
X394645Y12424D01*
X394713Y12481D01*
X394784Y12535D01*
X394856Y12585D01*
X394931Y12632D01*
X395009Y12676D01*
X395088Y12716D01*
X395168Y12753D01*
X395251Y12786D01*
X395334Y12815D01*
X395419Y12841D01*
X395505Y12862D01*
X395592Y12880D01*
X395680Y12894D01*
X395768Y12904D01*
X395856Y12910D01*
X395945Y12912D01*
X395945Y12911D02*
X398909Y12911D01*
X403419Y10442D02*
X403419Y6491D01*
X403419Y10442D02*
X403421Y10540D01*
X403427Y10638D01*
X403437Y10736D01*
X403450Y10833D01*
X403468Y10930D01*
X403489Y11026D01*
X403514Y11120D01*
X403543Y11214D01*
X403575Y11307D01*
X403612Y11398D01*
X403651Y11488D01*
X403695Y11576D01*
X403742Y11662D01*
X403792Y11747D01*
X403845Y11829D01*
X403902Y11909D01*
X403962Y11987D01*
X404025Y12062D01*
X404091Y12135D01*
X404160Y12205D01*
X404231Y12272D01*
X404305Y12337D01*
X404382Y12398D01*
X404461Y12457D01*
X404542Y12512D01*
X404625Y12564D01*
X404711Y12612D01*
X404798Y12657D01*
X404887Y12699D01*
X404977Y12737D01*
X405069Y12771D01*
X405162Y12802D01*
X405257Y12829D01*
X405352Y12852D01*
X405449Y12872D01*
X405545Y12887D01*
X405643Y12899D01*
X405741Y12907D01*
X405839Y12911D01*
X405937Y12911D01*
X406035Y12907D01*
X406133Y12899D01*
X406231Y12887D01*
X406327Y12872D01*
X406424Y12852D01*
X406519Y12829D01*
X406614Y12802D01*
X406707Y12771D01*
X406799Y12737D01*
X406889Y12699D01*
X406978Y12657D01*
X407065Y12612D01*
X407151Y12564D01*
X407234Y12512D01*
X407315Y12457D01*
X407394Y12398D01*
X407471Y12337D01*
X407545Y12272D01*
X407616Y12205D01*
X407685Y12135D01*
X407751Y12062D01*
X407814Y11987D01*
X407874Y11909D01*
X407931Y11829D01*
X407984Y11747D01*
X408034Y11662D01*
X408081Y11576D01*
X408125Y11488D01*
X408164Y11398D01*
X408201Y11307D01*
X408233Y11214D01*
X408262Y11120D01*
X408287Y11026D01*
X408308Y10930D01*
X408326Y10833D01*
X408339Y10736D01*
X408349Y10638D01*
X408355Y10540D01*
X408357Y10442D01*
X408357Y6491D01*
X408355Y6393D01*
X408349Y6295D01*
X408339Y6197D01*
X408326Y6100D01*
X408308Y6003D01*
X408287Y5907D01*
X408262Y5813D01*
X408233Y5719D01*
X408201Y5626D01*
X408164Y5535D01*
X408125Y5445D01*
X408081Y5357D01*
X408034Y5271D01*
X407984Y5186D01*
X407931Y5104D01*
X407874Y5024D01*
X407814Y4946D01*
X407751Y4871D01*
X407685Y4798D01*
X407616Y4728D01*
X407545Y4661D01*
X407471Y4596D01*
X407394Y4535D01*
X407315Y4476D01*
X407234Y4421D01*
X407151Y4369D01*
X407065Y4321D01*
X406978Y4276D01*
X406889Y4234D01*
X406799Y4196D01*
X406707Y4162D01*
X406614Y4131D01*
X406519Y4104D01*
X406424Y4081D01*
X406327Y4061D01*
X406231Y4046D01*
X406133Y4034D01*
X406035Y4026D01*
X405937Y4022D01*
X405839Y4022D01*
X405741Y4026D01*
X405643Y4034D01*
X405545Y4046D01*
X405449Y4061D01*
X405352Y4081D01*
X405257Y4104D01*
X405162Y4131D01*
X405069Y4162D01*
X404977Y4196D01*
X404887Y4234D01*
X404798Y4276D01*
X404711Y4321D01*
X404625Y4369D01*
X404542Y4421D01*
X404461Y4476D01*
X404382Y4535D01*
X404305Y4596D01*
X404231Y4661D01*
X404160Y4728D01*
X404091Y4798D01*
X404025Y4871D01*
X403962Y4946D01*
X403902Y5024D01*
X403845Y5104D01*
X403792Y5186D01*
X403742Y5271D01*
X403695Y5357D01*
X403651Y5445D01*
X403612Y5535D01*
X403575Y5626D01*
X403543Y5719D01*
X403514Y5813D01*
X403489Y5907D01*
X403468Y6003D01*
X403450Y6100D01*
X403437Y6197D01*
X403427Y6295D01*
X403421Y6393D01*
X403419Y6491D01*
X412891Y4021D02*
X416842Y4021D01*
X412891Y4021D02*
X412891Y12911D01*
X416842Y12911D01*
X415854Y8960D02*
X412891Y8960D01*
X423146Y4021D02*
X423232Y4023D01*
X423318Y4029D01*
X423404Y4038D01*
X423489Y4051D01*
X423574Y4068D01*
X423657Y4088D01*
X423740Y4112D01*
X423822Y4140D01*
X423902Y4171D01*
X423981Y4206D01*
X424058Y4244D01*
X424134Y4286D01*
X424208Y4330D01*
X424279Y4378D01*
X424349Y4429D01*
X424416Y4483D01*
X424481Y4540D01*
X424543Y4600D01*
X424603Y4662D01*
X424660Y4727D01*
X424714Y4794D01*
X424765Y4864D01*
X424813Y4935D01*
X424857Y5009D01*
X424899Y5085D01*
X424937Y5162D01*
X424972Y5241D01*
X425003Y5321D01*
X425031Y5403D01*
X425055Y5486D01*
X425075Y5569D01*
X425092Y5654D01*
X425105Y5739D01*
X425114Y5825D01*
X425120Y5911D01*
X425122Y5997D01*
X423146Y4022D02*
X423019Y4024D01*
X422893Y4030D01*
X422766Y4039D01*
X422640Y4053D01*
X422515Y4070D01*
X422390Y4091D01*
X422266Y4116D01*
X422142Y4145D01*
X422020Y4177D01*
X421898Y4213D01*
X421778Y4253D01*
X421659Y4296D01*
X421541Y4343D01*
X421425Y4394D01*
X421310Y4448D01*
X421197Y4505D01*
X421086Y4566D01*
X420977Y4630D01*
X420870Y4698D01*
X420764Y4768D01*
X420661Y4842D01*
X420561Y4919D01*
X420463Y4999D01*
X420367Y5082D01*
X420274Y5168D01*
X420183Y5257D01*
X420429Y10936D02*
X420431Y11022D01*
X420437Y11108D01*
X420446Y11194D01*
X420459Y11279D01*
X420476Y11364D01*
X420496Y11447D01*
X420520Y11530D01*
X420548Y11612D01*
X420579Y11692D01*
X420614Y11771D01*
X420652Y11848D01*
X420694Y11924D01*
X420738Y11998D01*
X420786Y12069D01*
X420837Y12139D01*
X420891Y12206D01*
X420948Y12271D01*
X421008Y12333D01*
X421070Y12393D01*
X421135Y12450D01*
X421202Y12504D01*
X421272Y12555D01*
X421343Y12603D01*
X421417Y12647D01*
X421493Y12689D01*
X421570Y12727D01*
X421649Y12762D01*
X421729Y12793D01*
X421811Y12821D01*
X421894Y12845D01*
X421977Y12865D01*
X422062Y12882D01*
X422147Y12895D01*
X422233Y12904D01*
X422319Y12910D01*
X422405Y12912D01*
X422405Y12911D02*
X422524Y12909D01*
X422643Y12903D01*
X422762Y12894D01*
X422880Y12880D01*
X422998Y12863D01*
X423116Y12842D01*
X423232Y12817D01*
X423348Y12789D01*
X423463Y12757D01*
X423576Y12721D01*
X423689Y12681D01*
X423800Y12638D01*
X423910Y12592D01*
X424018Y12542D01*
X424124Y12488D01*
X424229Y12431D01*
X424331Y12371D01*
X424432Y12307D01*
X424531Y12240D01*
X424627Y12170D01*
X421418Y9208D02*
X421344Y9253D01*
X421272Y9302D01*
X421202Y9354D01*
X421135Y9409D01*
X421070Y9467D01*
X421008Y9527D01*
X420949Y9590D01*
X420892Y9656D01*
X420838Y9724D01*
X420787Y9794D01*
X420739Y9866D01*
X420694Y9941D01*
X420653Y10017D01*
X420615Y10095D01*
X420580Y10175D01*
X420549Y10256D01*
X420521Y10338D01*
X420497Y10421D01*
X420477Y10505D01*
X420460Y10591D01*
X420447Y10676D01*
X420438Y10763D01*
X420432Y10849D01*
X420430Y10936D01*
X424133Y7725D02*
X424207Y7680D01*
X424279Y7631D01*
X424349Y7579D01*
X424416Y7524D01*
X424481Y7466D01*
X424543Y7406D01*
X424603Y7343D01*
X424659Y7277D01*
X424713Y7209D01*
X424764Y7139D01*
X424812Y7067D01*
X424857Y6992D01*
X424898Y6916D01*
X424936Y6838D01*
X424971Y6758D01*
X425002Y6677D01*
X425030Y6595D01*
X425054Y6512D01*
X425074Y6428D01*
X425091Y6342D01*
X425104Y6257D01*
X425113Y6170D01*
X425119Y6084D01*
X425121Y5997D01*
X424134Y7725D02*
X421417Y9207D01*
X434203Y12911D02*
X434203Y4021D01*
X434203Y8960D02*
X439142Y8960D01*
X439142Y12911D02*
X439142Y4021D01*
X443980Y4021D02*
X447931Y4021D01*
X443980Y4021D02*
X443980Y12911D01*
X447931Y12911D01*
X446943Y8960D02*
X443980Y8960D01*
X451957Y12911D02*
X451957Y4021D01*
X451957Y12911D02*
X454427Y12911D01*
X454525Y12909D01*
X454623Y12903D01*
X454721Y12893D01*
X454818Y12880D01*
X454915Y12862D01*
X455011Y12841D01*
X455105Y12816D01*
X455199Y12787D01*
X455292Y12755D01*
X455383Y12718D01*
X455473Y12679D01*
X455561Y12635D01*
X455647Y12588D01*
X455732Y12538D01*
X455814Y12485D01*
X455894Y12428D01*
X455972Y12368D01*
X456047Y12305D01*
X456120Y12239D01*
X456190Y12170D01*
X456257Y12099D01*
X456322Y12025D01*
X456383Y11948D01*
X456442Y11869D01*
X456497Y11788D01*
X456549Y11705D01*
X456597Y11619D01*
X456642Y11532D01*
X456684Y11443D01*
X456722Y11353D01*
X456756Y11261D01*
X456787Y11168D01*
X456814Y11073D01*
X456837Y10978D01*
X456857Y10881D01*
X456872Y10785D01*
X456884Y10687D01*
X456892Y10589D01*
X456896Y10491D01*
X456896Y10393D01*
X456892Y10295D01*
X456884Y10197D01*
X456872Y10099D01*
X456857Y10003D01*
X456837Y9906D01*
X456814Y9811D01*
X456787Y9716D01*
X456756Y9623D01*
X456722Y9531D01*
X456684Y9441D01*
X456642Y9352D01*
X456597Y9265D01*
X456549Y9179D01*
X456497Y9096D01*
X456442Y9015D01*
X456383Y8936D01*
X456322Y8859D01*
X456257Y8785D01*
X456190Y8714D01*
X456120Y8645D01*
X456047Y8579D01*
X455972Y8516D01*
X455894Y8456D01*
X455814Y8399D01*
X455732Y8346D01*
X455647Y8296D01*
X455561Y8249D01*
X455473Y8205D01*
X455383Y8166D01*
X455292Y8129D01*
X455199Y8097D01*
X455105Y8068D01*
X455011Y8043D01*
X454915Y8022D01*
X454818Y8004D01*
X454721Y7991D01*
X454623Y7981D01*
X454525Y7975D01*
X454427Y7973D01*
X454427Y7972D02*
X451957Y7972D01*
X454920Y7972D02*
X456896Y4021D01*
X461354Y4021D02*
X465305Y4021D01*
X461354Y4021D02*
X461354Y12911D01*
X465305Y12911D01*
X464317Y8960D02*
X461354Y8960D01*
X468677Y6985D02*
X468677Y12911D01*
X468430Y4515D02*
X468430Y4021D01*
X468430Y4515D02*
X468924Y4515D01*
X468924Y4021D01*
X468430Y4021D01*
D11*
X709930Y183900D02*
X717550Y183900D01*
X717300Y197100D02*
X709930Y197100D01*
D12*
X720912Y190489D03*
X706434Y190489D03*
D10*
X710108Y169545D02*
X712083Y169545D01*
X710108Y169545D02*
X710022Y169547D01*
X709936Y169553D01*
X709850Y169562D01*
X709765Y169575D01*
X709680Y169592D01*
X709597Y169612D01*
X709514Y169636D01*
X709432Y169664D01*
X709352Y169695D01*
X709273Y169730D01*
X709196Y169768D01*
X709120Y169810D01*
X709046Y169854D01*
X708975Y169902D01*
X708905Y169953D01*
X708838Y170007D01*
X708773Y170064D01*
X708711Y170124D01*
X708651Y170186D01*
X708594Y170251D01*
X708540Y170318D01*
X708489Y170388D01*
X708441Y170459D01*
X708397Y170533D01*
X708355Y170609D01*
X708317Y170686D01*
X708282Y170765D01*
X708251Y170845D01*
X708223Y170927D01*
X708199Y171010D01*
X708179Y171093D01*
X708162Y171178D01*
X708149Y171263D01*
X708140Y171349D01*
X708134Y171435D01*
X708132Y171521D01*
X708132Y176459D01*
X708134Y176548D01*
X708140Y176636D01*
X708150Y176724D01*
X708164Y176812D01*
X708182Y176899D01*
X708203Y176985D01*
X708229Y177070D01*
X708258Y177153D01*
X708291Y177236D01*
X708328Y177316D01*
X708368Y177395D01*
X708412Y177472D01*
X708459Y177548D01*
X708509Y177620D01*
X708563Y177691D01*
X708620Y177759D01*
X708680Y177825D01*
X708742Y177887D01*
X708808Y177947D01*
X708876Y178004D01*
X708947Y178058D01*
X709019Y178108D01*
X709094Y178155D01*
X709172Y178199D01*
X709251Y178239D01*
X709331Y178276D01*
X709414Y178309D01*
X709497Y178338D01*
X709582Y178364D01*
X709668Y178385D01*
X709755Y178403D01*
X709843Y178417D01*
X709931Y178427D01*
X710019Y178433D01*
X710108Y178435D01*
X712083Y178435D01*
X715786Y176459D02*
X718256Y178435D01*
X718256Y169545D01*
X720725Y169545D02*
X715786Y169545D01*
D11*
X674370Y183900D02*
X666750Y183900D01*
X666750Y197100D02*
X674120Y197100D01*
D12*
X677732Y190489D03*
X663254Y190489D03*
D10*
X665584Y169445D02*
X667560Y169445D01*
X665584Y169445D02*
X665498Y169447D01*
X665412Y169453D01*
X665326Y169462D01*
X665241Y169475D01*
X665156Y169492D01*
X665073Y169512D01*
X664990Y169536D01*
X664908Y169564D01*
X664828Y169595D01*
X664749Y169630D01*
X664672Y169668D01*
X664596Y169710D01*
X664522Y169754D01*
X664451Y169802D01*
X664381Y169853D01*
X664314Y169907D01*
X664249Y169964D01*
X664187Y170024D01*
X664127Y170086D01*
X664070Y170151D01*
X664016Y170218D01*
X663965Y170288D01*
X663917Y170359D01*
X663873Y170433D01*
X663831Y170509D01*
X663793Y170586D01*
X663758Y170665D01*
X663727Y170745D01*
X663699Y170827D01*
X663675Y170910D01*
X663655Y170993D01*
X663638Y171078D01*
X663625Y171163D01*
X663616Y171249D01*
X663610Y171335D01*
X663608Y171421D01*
X663609Y171421D02*
X663609Y176359D01*
X663608Y176359D02*
X663610Y176448D01*
X663616Y176536D01*
X663626Y176624D01*
X663640Y176712D01*
X663658Y176799D01*
X663679Y176885D01*
X663705Y176970D01*
X663734Y177053D01*
X663767Y177136D01*
X663804Y177216D01*
X663844Y177295D01*
X663888Y177372D01*
X663935Y177448D01*
X663985Y177520D01*
X664039Y177591D01*
X664096Y177659D01*
X664156Y177725D01*
X664218Y177787D01*
X664284Y177847D01*
X664352Y177904D01*
X664423Y177958D01*
X664495Y178008D01*
X664570Y178055D01*
X664648Y178099D01*
X664727Y178139D01*
X664807Y178176D01*
X664890Y178209D01*
X664973Y178238D01*
X665058Y178264D01*
X665144Y178285D01*
X665231Y178303D01*
X665319Y178317D01*
X665407Y178327D01*
X665495Y178333D01*
X665584Y178335D01*
X667560Y178335D01*
X673979Y178336D02*
X674071Y178334D01*
X674163Y178328D01*
X674254Y178319D01*
X674345Y178306D01*
X674435Y178289D01*
X674525Y178268D01*
X674613Y178244D01*
X674701Y178216D01*
X674787Y178184D01*
X674872Y178149D01*
X674955Y178110D01*
X675037Y178068D01*
X675117Y178023D01*
X675195Y177974D01*
X675271Y177922D01*
X675344Y177867D01*
X675416Y177809D01*
X675485Y177749D01*
X675551Y177685D01*
X675615Y177619D01*
X675675Y177550D01*
X675733Y177478D01*
X675788Y177405D01*
X675840Y177329D01*
X675889Y177251D01*
X675934Y177171D01*
X675976Y177089D01*
X676015Y177006D01*
X676050Y176921D01*
X676082Y176835D01*
X676110Y176747D01*
X676134Y176659D01*
X676155Y176569D01*
X676172Y176479D01*
X676185Y176388D01*
X676194Y176297D01*
X676200Y176205D01*
X676202Y176113D01*
X673979Y178335D02*
X673873Y178333D01*
X673768Y178327D01*
X673663Y178317D01*
X673558Y178304D01*
X673454Y178286D01*
X673351Y178265D01*
X673248Y178240D01*
X673146Y178211D01*
X673046Y178178D01*
X672947Y178142D01*
X672849Y178102D01*
X672753Y178058D01*
X672658Y178011D01*
X672566Y177961D01*
X672475Y177907D01*
X672386Y177849D01*
X672300Y177789D01*
X672216Y177725D01*
X672134Y177659D01*
X672054Y177589D01*
X671978Y177516D01*
X671904Y177441D01*
X671833Y177363D01*
X671765Y177282D01*
X671699Y177199D01*
X671637Y177113D01*
X671579Y177026D01*
X671523Y176936D01*
X671471Y176844D01*
X671422Y176750D01*
X671377Y176655D01*
X671335Y176558D01*
X671297Y176459D01*
X671263Y176360D01*
X675460Y174384D02*
X675529Y174453D01*
X675595Y174523D01*
X675658Y174597D01*
X675717Y174673D01*
X675774Y174751D01*
X675828Y174831D01*
X675878Y174914D01*
X675925Y174998D01*
X675968Y175085D01*
X676008Y175173D01*
X676044Y175262D01*
X676077Y175353D01*
X676106Y175445D01*
X676131Y175539D01*
X676152Y175633D01*
X676170Y175728D01*
X676183Y175824D01*
X676193Y175920D01*
X676199Y176016D01*
X676201Y176113D01*
X675461Y174384D02*
X671263Y169445D01*
X676202Y169445D01*
D13*
X336852Y151892D02*
X336852Y328422D01*
X262588Y328422D01*
X262588Y151892D01*
X336852Y151892D01*
X325882Y161290D02*
X325884Y161436D01*
X325890Y161581D01*
X325900Y161727D01*
X325914Y161872D01*
X325932Y162016D01*
X325953Y162160D01*
X325979Y162304D01*
X326009Y162446D01*
X326042Y162588D01*
X326080Y162729D01*
X326121Y162869D01*
X326166Y163007D01*
X326215Y163145D01*
X326267Y163281D01*
X326324Y163415D01*
X326383Y163548D01*
X326447Y163679D01*
X326514Y163808D01*
X326585Y163936D01*
X326659Y164061D01*
X326736Y164185D01*
X326817Y164306D01*
X326901Y164425D01*
X326988Y164542D01*
X327078Y164656D01*
X327172Y164768D01*
X327268Y164877D01*
X327368Y164984D01*
X327470Y165087D01*
X327575Y165188D01*
X327683Y165286D01*
X327794Y165381D01*
X327907Y165473D01*
X328022Y165562D01*
X328140Y165648D01*
X328260Y165730D01*
X328383Y165809D01*
X328507Y165885D01*
X328634Y165957D01*
X328762Y166026D01*
X328892Y166091D01*
X329024Y166153D01*
X329158Y166211D01*
X329293Y166265D01*
X329430Y166316D01*
X329568Y166363D01*
X329707Y166406D01*
X329847Y166445D01*
X329989Y166481D01*
X330131Y166512D01*
X330274Y166540D01*
X330418Y166564D01*
X330562Y166584D01*
X330707Y166600D01*
X330852Y166612D01*
X330997Y166620D01*
X331143Y166624D01*
X331289Y166624D01*
X331435Y166620D01*
X331580Y166612D01*
X331725Y166600D01*
X331870Y166584D01*
X332014Y166564D01*
X332158Y166540D01*
X332301Y166512D01*
X332443Y166481D01*
X332585Y166445D01*
X332725Y166406D01*
X332864Y166363D01*
X333002Y166316D01*
X333139Y166265D01*
X333274Y166211D01*
X333408Y166153D01*
X333540Y166091D01*
X333670Y166026D01*
X333798Y165957D01*
X333925Y165885D01*
X334049Y165809D01*
X334172Y165730D01*
X334292Y165648D01*
X334410Y165562D01*
X334525Y165473D01*
X334638Y165381D01*
X334749Y165286D01*
X334857Y165188D01*
X334962Y165087D01*
X335064Y164984D01*
X335164Y164877D01*
X335260Y164768D01*
X335354Y164656D01*
X335444Y164542D01*
X335531Y164425D01*
X335615Y164306D01*
X335696Y164185D01*
X335773Y164061D01*
X335847Y163936D01*
X335918Y163808D01*
X335985Y163679D01*
X336049Y163548D01*
X336108Y163415D01*
X336165Y163281D01*
X336217Y163145D01*
X336266Y163007D01*
X336311Y162869D01*
X336352Y162729D01*
X336390Y162588D01*
X336423Y162446D01*
X336453Y162304D01*
X336479Y162160D01*
X336500Y162016D01*
X336518Y161872D01*
X336532Y161727D01*
X336542Y161581D01*
X336548Y161436D01*
X336550Y161290D01*
X336548Y161144D01*
X336542Y160999D01*
X336532Y160853D01*
X336518Y160708D01*
X336500Y160564D01*
X336479Y160420D01*
X336453Y160276D01*
X336423Y160134D01*
X336390Y159992D01*
X336352Y159851D01*
X336311Y159711D01*
X336266Y159573D01*
X336217Y159435D01*
X336165Y159299D01*
X336108Y159165D01*
X336049Y159032D01*
X335985Y158901D01*
X335918Y158772D01*
X335847Y158644D01*
X335773Y158519D01*
X335696Y158395D01*
X335615Y158274D01*
X335531Y158155D01*
X335444Y158038D01*
X335354Y157924D01*
X335260Y157812D01*
X335164Y157703D01*
X335064Y157596D01*
X334962Y157493D01*
X334857Y157392D01*
X334749Y157294D01*
X334638Y157199D01*
X334525Y157107D01*
X334410Y157018D01*
X334292Y156932D01*
X334172Y156850D01*
X334049Y156771D01*
X333925Y156695D01*
X333798Y156623D01*
X333670Y156554D01*
X333540Y156489D01*
X333408Y156427D01*
X333274Y156369D01*
X333139Y156315D01*
X333002Y156264D01*
X332864Y156217D01*
X332725Y156174D01*
X332585Y156135D01*
X332443Y156099D01*
X332301Y156068D01*
X332158Y156040D01*
X332014Y156016D01*
X331870Y155996D01*
X331725Y155980D01*
X331580Y155968D01*
X331435Y155960D01*
X331289Y155956D01*
X331143Y155956D01*
X330997Y155960D01*
X330852Y155968D01*
X330707Y155980D01*
X330562Y155996D01*
X330418Y156016D01*
X330274Y156040D01*
X330131Y156068D01*
X329989Y156099D01*
X329847Y156135D01*
X329707Y156174D01*
X329568Y156217D01*
X329430Y156264D01*
X329293Y156315D01*
X329158Y156369D01*
X329024Y156427D01*
X328892Y156489D01*
X328762Y156554D01*
X328634Y156623D01*
X328507Y156695D01*
X328383Y156771D01*
X328260Y156850D01*
X328140Y156932D01*
X328022Y157018D01*
X327907Y157107D01*
X327794Y157199D01*
X327683Y157294D01*
X327575Y157392D01*
X327470Y157493D01*
X327368Y157596D01*
X327268Y157703D01*
X327172Y157812D01*
X327078Y157924D01*
X326988Y158038D01*
X326901Y158155D01*
X326817Y158274D01*
X326736Y158395D01*
X326659Y158519D01*
X326585Y158644D01*
X326514Y158772D01*
X326447Y158901D01*
X326383Y159032D01*
X326324Y159165D01*
X326267Y159299D01*
X326215Y159435D01*
X326166Y159573D01*
X326121Y159711D01*
X326080Y159851D01*
X326042Y159992D01*
X326009Y160134D01*
X325979Y160276D01*
X325953Y160420D01*
X325932Y160564D01*
X325914Y160708D01*
X325900Y160853D01*
X325890Y160999D01*
X325884Y161144D01*
X325882Y161290D01*
D14*
X344726Y157480D03*
X344726Y170180D03*
X344726Y182880D03*
X344726Y195580D03*
X344726Y208280D03*
X344726Y220980D03*
X344726Y233680D03*
X344726Y246380D03*
X344726Y259080D03*
X344726Y271780D03*
X344726Y284480D03*
X344726Y297180D03*
X344726Y309880D03*
X344726Y322580D03*
X254714Y322580D03*
X254714Y309880D03*
X254714Y297180D03*
X254714Y284480D03*
X254714Y271780D03*
X254714Y259080D03*
X254714Y246380D03*
X254714Y233680D03*
X254714Y220980D03*
X254714Y208280D03*
X254714Y195580D03*
X254714Y182880D03*
X254714Y170180D03*
X254714Y157480D03*
D10*
X291183Y334645D02*
X291183Y343535D01*
X290195Y334645D02*
X292171Y334645D01*
X292171Y343535D02*
X290195Y343535D01*
X297970Y334645D02*
X299946Y334645D01*
X297970Y334645D02*
X297884Y334647D01*
X297798Y334653D01*
X297712Y334662D01*
X297627Y334675D01*
X297542Y334692D01*
X297459Y334712D01*
X297376Y334736D01*
X297294Y334764D01*
X297214Y334795D01*
X297135Y334830D01*
X297058Y334868D01*
X296982Y334910D01*
X296908Y334954D01*
X296837Y335002D01*
X296767Y335053D01*
X296700Y335107D01*
X296635Y335164D01*
X296573Y335224D01*
X296513Y335286D01*
X296456Y335351D01*
X296402Y335418D01*
X296351Y335488D01*
X296303Y335559D01*
X296259Y335633D01*
X296217Y335709D01*
X296179Y335786D01*
X296144Y335865D01*
X296113Y335945D01*
X296085Y336027D01*
X296061Y336110D01*
X296041Y336193D01*
X296024Y336278D01*
X296011Y336363D01*
X296002Y336449D01*
X295996Y336535D01*
X295994Y336621D01*
X295994Y341559D01*
X295996Y341648D01*
X296002Y341736D01*
X296012Y341824D01*
X296026Y341912D01*
X296044Y341999D01*
X296065Y342085D01*
X296091Y342170D01*
X296120Y342253D01*
X296153Y342336D01*
X296190Y342416D01*
X296230Y342495D01*
X296274Y342572D01*
X296321Y342648D01*
X296371Y342720D01*
X296425Y342791D01*
X296482Y342859D01*
X296542Y342925D01*
X296604Y342987D01*
X296670Y343047D01*
X296738Y343104D01*
X296809Y343158D01*
X296881Y343208D01*
X296956Y343255D01*
X297034Y343299D01*
X297113Y343339D01*
X297193Y343376D01*
X297276Y343409D01*
X297359Y343438D01*
X297444Y343464D01*
X297530Y343485D01*
X297617Y343503D01*
X297705Y343517D01*
X297793Y343527D01*
X297881Y343533D01*
X297970Y343535D01*
X299946Y343535D01*
X306365Y343536D02*
X306457Y343534D01*
X306549Y343528D01*
X306640Y343519D01*
X306731Y343506D01*
X306821Y343489D01*
X306911Y343468D01*
X306999Y343444D01*
X307087Y343416D01*
X307173Y343384D01*
X307258Y343349D01*
X307341Y343310D01*
X307423Y343268D01*
X307503Y343223D01*
X307581Y343174D01*
X307657Y343122D01*
X307730Y343067D01*
X307802Y343009D01*
X307871Y342949D01*
X307937Y342885D01*
X308001Y342819D01*
X308061Y342750D01*
X308119Y342678D01*
X308174Y342605D01*
X308226Y342529D01*
X308275Y342451D01*
X308320Y342371D01*
X308362Y342289D01*
X308401Y342206D01*
X308436Y342121D01*
X308468Y342035D01*
X308496Y341947D01*
X308520Y341859D01*
X308541Y341769D01*
X308558Y341679D01*
X308571Y341588D01*
X308580Y341497D01*
X308586Y341405D01*
X308588Y341313D01*
X306365Y343535D02*
X306259Y343533D01*
X306154Y343527D01*
X306049Y343517D01*
X305944Y343504D01*
X305840Y343486D01*
X305737Y343465D01*
X305634Y343440D01*
X305532Y343411D01*
X305432Y343378D01*
X305333Y343342D01*
X305235Y343302D01*
X305139Y343258D01*
X305044Y343211D01*
X304952Y343161D01*
X304861Y343107D01*
X304772Y343049D01*
X304686Y342989D01*
X304602Y342925D01*
X304520Y342859D01*
X304440Y342789D01*
X304364Y342716D01*
X304290Y342641D01*
X304219Y342563D01*
X304151Y342482D01*
X304085Y342399D01*
X304023Y342313D01*
X303965Y342226D01*
X303909Y342136D01*
X303857Y342044D01*
X303808Y341950D01*
X303763Y341855D01*
X303721Y341758D01*
X303683Y341659D01*
X303649Y341560D01*
X307846Y339584D02*
X307915Y339653D01*
X307981Y339723D01*
X308044Y339797D01*
X308103Y339873D01*
X308160Y339951D01*
X308214Y340031D01*
X308264Y340114D01*
X308311Y340198D01*
X308354Y340285D01*
X308394Y340373D01*
X308430Y340462D01*
X308463Y340553D01*
X308492Y340645D01*
X308517Y340739D01*
X308538Y340833D01*
X308556Y340928D01*
X308569Y341024D01*
X308579Y341120D01*
X308585Y341216D01*
X308587Y341313D01*
X307846Y339584D02*
X303648Y334645D01*
X308587Y334645D01*
D13*
X555750Y392680D02*
X564390Y392680D01*
X564390Y399800D02*
X555750Y399800D01*
D15*
X566420Y396240D03*
X553720Y396240D03*
D10*
X551488Y386805D02*
X551488Y377915D01*
X551488Y386805D02*
X553957Y386805D01*
X554055Y386803D01*
X554153Y386797D01*
X554251Y386787D01*
X554348Y386774D01*
X554445Y386756D01*
X554541Y386735D01*
X554635Y386710D01*
X554729Y386681D01*
X554822Y386649D01*
X554913Y386612D01*
X555003Y386573D01*
X555091Y386529D01*
X555177Y386482D01*
X555262Y386432D01*
X555344Y386379D01*
X555424Y386322D01*
X555502Y386262D01*
X555577Y386199D01*
X555650Y386133D01*
X555720Y386064D01*
X555787Y385993D01*
X555852Y385919D01*
X555913Y385842D01*
X555972Y385763D01*
X556027Y385682D01*
X556079Y385599D01*
X556127Y385513D01*
X556172Y385426D01*
X556214Y385337D01*
X556252Y385247D01*
X556286Y385155D01*
X556317Y385062D01*
X556344Y384967D01*
X556367Y384872D01*
X556387Y384775D01*
X556402Y384679D01*
X556414Y384581D01*
X556422Y384483D01*
X556426Y384385D01*
X556426Y384287D01*
X556422Y384189D01*
X556414Y384091D01*
X556402Y383993D01*
X556387Y383897D01*
X556367Y383800D01*
X556344Y383705D01*
X556317Y383610D01*
X556286Y383517D01*
X556252Y383425D01*
X556214Y383335D01*
X556172Y383246D01*
X556127Y383159D01*
X556079Y383073D01*
X556027Y382990D01*
X555972Y382909D01*
X555913Y382830D01*
X555852Y382753D01*
X555787Y382679D01*
X555720Y382608D01*
X555650Y382539D01*
X555577Y382473D01*
X555502Y382410D01*
X555424Y382350D01*
X555344Y382293D01*
X555262Y382240D01*
X555177Y382190D01*
X555091Y382143D01*
X555003Y382099D01*
X554913Y382060D01*
X554822Y382023D01*
X554729Y381991D01*
X554635Y381962D01*
X554541Y381937D01*
X554445Y381916D01*
X554348Y381898D01*
X554251Y381885D01*
X554153Y381875D01*
X554055Y381869D01*
X553957Y381867D01*
X553957Y381866D02*
X551488Y381866D01*
X554451Y381866D02*
X556426Y377915D01*
X560556Y382854D02*
X563519Y382854D01*
X563605Y382852D01*
X563691Y382846D01*
X563777Y382837D01*
X563862Y382824D01*
X563947Y382807D01*
X564030Y382787D01*
X564113Y382763D01*
X564195Y382735D01*
X564275Y382704D01*
X564354Y382669D01*
X564431Y382631D01*
X564507Y382589D01*
X564581Y382545D01*
X564652Y382497D01*
X564722Y382446D01*
X564789Y382392D01*
X564854Y382335D01*
X564916Y382275D01*
X564976Y382213D01*
X565033Y382148D01*
X565087Y382081D01*
X565138Y382011D01*
X565186Y381940D01*
X565230Y381866D01*
X565272Y381790D01*
X565310Y381713D01*
X565345Y381634D01*
X565376Y381554D01*
X565404Y381472D01*
X565428Y381389D01*
X565448Y381306D01*
X565465Y381221D01*
X565478Y381136D01*
X565487Y381050D01*
X565493Y380964D01*
X565495Y380878D01*
X565495Y380384D01*
X565493Y380286D01*
X565487Y380188D01*
X565477Y380090D01*
X565464Y379993D01*
X565446Y379896D01*
X565425Y379800D01*
X565400Y379706D01*
X565371Y379612D01*
X565339Y379519D01*
X565302Y379428D01*
X565263Y379338D01*
X565219Y379250D01*
X565172Y379164D01*
X565122Y379079D01*
X565069Y378997D01*
X565012Y378917D01*
X564952Y378839D01*
X564889Y378764D01*
X564823Y378691D01*
X564754Y378621D01*
X564683Y378554D01*
X564609Y378489D01*
X564532Y378428D01*
X564453Y378369D01*
X564372Y378314D01*
X564289Y378262D01*
X564203Y378214D01*
X564116Y378169D01*
X564027Y378127D01*
X563937Y378089D01*
X563845Y378055D01*
X563752Y378024D01*
X563657Y377997D01*
X563562Y377974D01*
X563465Y377954D01*
X563369Y377939D01*
X563271Y377927D01*
X563173Y377919D01*
X563075Y377915D01*
X562977Y377915D01*
X562879Y377919D01*
X562781Y377927D01*
X562683Y377939D01*
X562587Y377954D01*
X562490Y377974D01*
X562395Y377997D01*
X562300Y378024D01*
X562207Y378055D01*
X562115Y378089D01*
X562025Y378127D01*
X561936Y378169D01*
X561849Y378214D01*
X561763Y378262D01*
X561680Y378314D01*
X561599Y378369D01*
X561520Y378428D01*
X561443Y378489D01*
X561369Y378554D01*
X561298Y378621D01*
X561229Y378691D01*
X561163Y378764D01*
X561100Y378839D01*
X561040Y378917D01*
X560983Y378997D01*
X560930Y379079D01*
X560880Y379164D01*
X560833Y379250D01*
X560789Y379338D01*
X560750Y379428D01*
X560713Y379519D01*
X560681Y379612D01*
X560652Y379706D01*
X560627Y379800D01*
X560606Y379896D01*
X560588Y379993D01*
X560575Y380090D01*
X560565Y380188D01*
X560559Y380286D01*
X560557Y380384D01*
X560556Y380384D02*
X560556Y382854D01*
X560558Y382978D01*
X560564Y383102D01*
X560574Y383226D01*
X560587Y383349D01*
X560605Y383472D01*
X560626Y383594D01*
X560651Y383716D01*
X560680Y383837D01*
X560713Y383956D01*
X560749Y384075D01*
X560790Y384192D01*
X560833Y384308D01*
X560881Y384423D01*
X560932Y384536D01*
X560987Y384648D01*
X561045Y384757D01*
X561106Y384865D01*
X561171Y384971D01*
X561239Y385075D01*
X561311Y385176D01*
X561385Y385276D01*
X561463Y385372D01*
X561543Y385467D01*
X561627Y385559D01*
X561713Y385648D01*
X561802Y385734D01*
X561894Y385818D01*
X561989Y385898D01*
X562085Y385976D01*
X562185Y386050D01*
X562286Y386122D01*
X562390Y386190D01*
X562496Y386255D01*
X562604Y386316D01*
X562713Y386374D01*
X562825Y386429D01*
X562938Y386480D01*
X563053Y386528D01*
X563169Y386571D01*
X563286Y386612D01*
X563405Y386648D01*
X563524Y386681D01*
X563645Y386710D01*
X563767Y386735D01*
X563889Y386756D01*
X564012Y386774D01*
X564135Y386787D01*
X564259Y386797D01*
X564383Y386803D01*
X564507Y386805D01*
D13*
X605280Y392680D02*
X613920Y392680D01*
X613920Y399800D02*
X605280Y399800D01*
D15*
X615950Y396240D03*
X603250Y396240D03*
D10*
X601158Y387205D02*
X601158Y378315D01*
X601158Y387205D02*
X603627Y387205D01*
X603725Y387203D01*
X603823Y387197D01*
X603921Y387187D01*
X604018Y387174D01*
X604115Y387156D01*
X604211Y387135D01*
X604305Y387110D01*
X604399Y387081D01*
X604492Y387049D01*
X604583Y387012D01*
X604673Y386973D01*
X604761Y386929D01*
X604847Y386882D01*
X604932Y386832D01*
X605014Y386779D01*
X605094Y386722D01*
X605172Y386662D01*
X605247Y386599D01*
X605320Y386533D01*
X605390Y386464D01*
X605457Y386393D01*
X605522Y386319D01*
X605583Y386242D01*
X605642Y386163D01*
X605697Y386082D01*
X605749Y385999D01*
X605797Y385913D01*
X605842Y385826D01*
X605884Y385737D01*
X605922Y385647D01*
X605956Y385555D01*
X605987Y385462D01*
X606014Y385367D01*
X606037Y385272D01*
X606057Y385175D01*
X606072Y385079D01*
X606084Y384981D01*
X606092Y384883D01*
X606096Y384785D01*
X606096Y384687D01*
X606092Y384589D01*
X606084Y384491D01*
X606072Y384393D01*
X606057Y384297D01*
X606037Y384200D01*
X606014Y384105D01*
X605987Y384010D01*
X605956Y383917D01*
X605922Y383825D01*
X605884Y383735D01*
X605842Y383646D01*
X605797Y383559D01*
X605749Y383473D01*
X605697Y383390D01*
X605642Y383309D01*
X605583Y383230D01*
X605522Y383153D01*
X605457Y383079D01*
X605390Y383008D01*
X605320Y382939D01*
X605247Y382873D01*
X605172Y382810D01*
X605094Y382750D01*
X605014Y382693D01*
X604932Y382640D01*
X604847Y382590D01*
X604761Y382543D01*
X604673Y382499D01*
X604583Y382460D01*
X604492Y382423D01*
X604399Y382391D01*
X604305Y382362D01*
X604211Y382337D01*
X604115Y382316D01*
X604018Y382298D01*
X603921Y382285D01*
X603823Y382275D01*
X603725Y382269D01*
X603627Y382267D01*
X603627Y382266D02*
X601158Y382266D01*
X604121Y382266D02*
X606096Y378315D01*
X610226Y386217D02*
X610226Y387205D01*
X615165Y387205D01*
X612696Y378315D01*
D13*
X408180Y392680D02*
X399540Y392680D01*
X399540Y399800D02*
X408180Y399800D01*
D15*
X410210Y396240D03*
X397510Y396240D03*
D10*
X395555Y385415D02*
X395555Y376525D01*
X395555Y385415D02*
X398024Y385415D01*
X398122Y385413D01*
X398220Y385407D01*
X398318Y385397D01*
X398415Y385384D01*
X398512Y385366D01*
X398608Y385345D01*
X398702Y385320D01*
X398796Y385291D01*
X398889Y385259D01*
X398980Y385222D01*
X399070Y385183D01*
X399158Y385139D01*
X399244Y385092D01*
X399329Y385042D01*
X399411Y384989D01*
X399491Y384932D01*
X399569Y384872D01*
X399644Y384809D01*
X399717Y384743D01*
X399787Y384674D01*
X399854Y384603D01*
X399919Y384529D01*
X399980Y384452D01*
X400039Y384373D01*
X400094Y384292D01*
X400146Y384209D01*
X400194Y384123D01*
X400239Y384036D01*
X400281Y383947D01*
X400319Y383857D01*
X400353Y383765D01*
X400384Y383672D01*
X400411Y383577D01*
X400434Y383482D01*
X400454Y383385D01*
X400469Y383289D01*
X400481Y383191D01*
X400489Y383093D01*
X400493Y382995D01*
X400493Y382897D01*
X400489Y382799D01*
X400481Y382701D01*
X400469Y382603D01*
X400454Y382507D01*
X400434Y382410D01*
X400411Y382315D01*
X400384Y382220D01*
X400353Y382127D01*
X400319Y382035D01*
X400281Y381945D01*
X400239Y381856D01*
X400194Y381769D01*
X400146Y381683D01*
X400094Y381600D01*
X400039Y381519D01*
X399980Y381440D01*
X399919Y381363D01*
X399854Y381289D01*
X399787Y381218D01*
X399717Y381149D01*
X399644Y381083D01*
X399569Y381020D01*
X399491Y380960D01*
X399411Y380903D01*
X399329Y380850D01*
X399244Y380800D01*
X399158Y380753D01*
X399070Y380709D01*
X398980Y380670D01*
X398889Y380633D01*
X398796Y380601D01*
X398702Y380572D01*
X398608Y380547D01*
X398512Y380526D01*
X398415Y380508D01*
X398318Y380495D01*
X398220Y380485D01*
X398122Y380479D01*
X398024Y380477D01*
X398024Y380476D02*
X395555Y380476D01*
X398518Y380476D02*
X400494Y376525D01*
X404624Y378994D02*
X404626Y379092D01*
X404632Y379190D01*
X404642Y379288D01*
X404655Y379385D01*
X404673Y379482D01*
X404694Y379578D01*
X404719Y379672D01*
X404748Y379766D01*
X404780Y379859D01*
X404817Y379950D01*
X404856Y380040D01*
X404900Y380128D01*
X404947Y380214D01*
X404997Y380299D01*
X405050Y380381D01*
X405107Y380461D01*
X405167Y380539D01*
X405230Y380614D01*
X405296Y380687D01*
X405365Y380757D01*
X405436Y380824D01*
X405510Y380889D01*
X405587Y380950D01*
X405666Y381009D01*
X405747Y381064D01*
X405830Y381116D01*
X405916Y381164D01*
X406003Y381209D01*
X406092Y381251D01*
X406182Y381289D01*
X406274Y381323D01*
X406367Y381354D01*
X406462Y381381D01*
X406557Y381404D01*
X406654Y381424D01*
X406750Y381439D01*
X406848Y381451D01*
X406946Y381459D01*
X407044Y381463D01*
X407142Y381463D01*
X407240Y381459D01*
X407338Y381451D01*
X407436Y381439D01*
X407532Y381424D01*
X407629Y381404D01*
X407724Y381381D01*
X407819Y381354D01*
X407912Y381323D01*
X408004Y381289D01*
X408094Y381251D01*
X408183Y381209D01*
X408270Y381164D01*
X408356Y381116D01*
X408439Y381064D01*
X408520Y381009D01*
X408599Y380950D01*
X408676Y380889D01*
X408750Y380824D01*
X408821Y380757D01*
X408890Y380687D01*
X408956Y380614D01*
X409019Y380539D01*
X409079Y380461D01*
X409136Y380381D01*
X409189Y380299D01*
X409239Y380214D01*
X409286Y380128D01*
X409330Y380040D01*
X409369Y379950D01*
X409406Y379859D01*
X409438Y379766D01*
X409467Y379672D01*
X409492Y379578D01*
X409513Y379482D01*
X409531Y379385D01*
X409544Y379288D01*
X409554Y379190D01*
X409560Y379092D01*
X409562Y378994D01*
X409560Y378896D01*
X409554Y378798D01*
X409544Y378700D01*
X409531Y378603D01*
X409513Y378506D01*
X409492Y378410D01*
X409467Y378316D01*
X409438Y378222D01*
X409406Y378129D01*
X409369Y378038D01*
X409330Y377948D01*
X409286Y377860D01*
X409239Y377774D01*
X409189Y377689D01*
X409136Y377607D01*
X409079Y377527D01*
X409019Y377449D01*
X408956Y377374D01*
X408890Y377301D01*
X408821Y377231D01*
X408750Y377164D01*
X408676Y377099D01*
X408599Y377038D01*
X408520Y376979D01*
X408439Y376924D01*
X408356Y376872D01*
X408270Y376824D01*
X408183Y376779D01*
X408094Y376737D01*
X408004Y376699D01*
X407912Y376665D01*
X407819Y376634D01*
X407724Y376607D01*
X407629Y376584D01*
X407532Y376564D01*
X407436Y376549D01*
X407338Y376537D01*
X407240Y376529D01*
X407142Y376525D01*
X407044Y376525D01*
X406946Y376529D01*
X406848Y376537D01*
X406750Y376549D01*
X406654Y376564D01*
X406557Y376584D01*
X406462Y376607D01*
X406367Y376634D01*
X406274Y376665D01*
X406182Y376699D01*
X406092Y376737D01*
X406003Y376779D01*
X405916Y376824D01*
X405830Y376872D01*
X405747Y376924D01*
X405666Y376979D01*
X405587Y377038D01*
X405510Y377099D01*
X405436Y377164D01*
X405365Y377231D01*
X405296Y377301D01*
X405230Y377374D01*
X405167Y377449D01*
X405107Y377527D01*
X405050Y377607D01*
X404997Y377689D01*
X404947Y377774D01*
X404900Y377860D01*
X404856Y377948D01*
X404817Y378038D01*
X404780Y378129D01*
X404748Y378222D01*
X404719Y378316D01*
X404694Y378410D01*
X404673Y378506D01*
X404655Y378603D01*
X404642Y378700D01*
X404632Y378798D01*
X404626Y378896D01*
X404624Y378994D01*
X405117Y383439D02*
X405119Y383526D01*
X405125Y383614D01*
X405134Y383701D01*
X405148Y383787D01*
X405165Y383873D01*
X405186Y383957D01*
X405211Y384041D01*
X405240Y384124D01*
X405272Y384205D01*
X405307Y384285D01*
X405346Y384363D01*
X405389Y384440D01*
X405435Y384514D01*
X405484Y384586D01*
X405536Y384656D01*
X405592Y384724D01*
X405650Y384789D01*
X405711Y384852D01*
X405775Y384911D01*
X405842Y384968D01*
X405910Y385022D01*
X405982Y385073D01*
X406055Y385120D01*
X406130Y385165D01*
X406208Y385206D01*
X406287Y385243D01*
X406367Y385277D01*
X406449Y385307D01*
X406532Y385334D01*
X406617Y385357D01*
X406702Y385376D01*
X406788Y385391D01*
X406875Y385403D01*
X406962Y385411D01*
X407049Y385415D01*
X407137Y385415D01*
X407224Y385411D01*
X407311Y385403D01*
X407398Y385391D01*
X407484Y385376D01*
X407569Y385357D01*
X407654Y385334D01*
X407737Y385307D01*
X407819Y385277D01*
X407899Y385243D01*
X407978Y385206D01*
X408056Y385165D01*
X408131Y385120D01*
X408204Y385073D01*
X408276Y385022D01*
X408344Y384968D01*
X408411Y384911D01*
X408475Y384852D01*
X408536Y384789D01*
X408594Y384724D01*
X408650Y384656D01*
X408702Y384586D01*
X408751Y384514D01*
X408797Y384440D01*
X408840Y384363D01*
X408879Y384285D01*
X408914Y384205D01*
X408946Y384124D01*
X408975Y384041D01*
X409000Y383957D01*
X409021Y383873D01*
X409038Y383787D01*
X409052Y383701D01*
X409061Y383614D01*
X409067Y383526D01*
X409069Y383439D01*
X409067Y383352D01*
X409061Y383264D01*
X409052Y383177D01*
X409038Y383091D01*
X409021Y383005D01*
X409000Y382921D01*
X408975Y382837D01*
X408946Y382754D01*
X408914Y382673D01*
X408879Y382593D01*
X408840Y382515D01*
X408797Y382438D01*
X408751Y382364D01*
X408702Y382292D01*
X408650Y382222D01*
X408594Y382154D01*
X408536Y382089D01*
X408475Y382026D01*
X408411Y381967D01*
X408344Y381910D01*
X408276Y381856D01*
X408204Y381805D01*
X408131Y381758D01*
X408056Y381713D01*
X407978Y381672D01*
X407899Y381635D01*
X407819Y381601D01*
X407737Y381571D01*
X407654Y381544D01*
X407569Y381521D01*
X407484Y381502D01*
X407398Y381487D01*
X407311Y381475D01*
X407224Y381467D01*
X407137Y381463D01*
X407049Y381463D01*
X406962Y381467D01*
X406875Y381475D01*
X406788Y381487D01*
X406702Y381502D01*
X406617Y381521D01*
X406532Y381544D01*
X406449Y381571D01*
X406367Y381601D01*
X406287Y381635D01*
X406208Y381672D01*
X406130Y381713D01*
X406055Y381758D01*
X405982Y381805D01*
X405910Y381856D01*
X405842Y381910D01*
X405775Y381967D01*
X405711Y382026D01*
X405650Y382089D01*
X405592Y382154D01*
X405536Y382222D01*
X405484Y382292D01*
X405435Y382364D01*
X405389Y382438D01*
X405346Y382515D01*
X405307Y382593D01*
X405272Y382673D01*
X405240Y382754D01*
X405211Y382837D01*
X405186Y382921D01*
X405165Y383005D01*
X405148Y383091D01*
X405134Y383177D01*
X405125Y383264D01*
X405119Y383352D01*
X405117Y383439D01*
X175260Y151130D02*
X63500Y151130D01*
X63500Y354330D01*
X175260Y354330D01*
X175260Y151130D01*
X149755Y170180D02*
X149757Y170370D01*
X149764Y170559D01*
X149776Y170748D01*
X149792Y170937D01*
X149813Y171126D01*
X149839Y171313D01*
X149869Y171501D01*
X149903Y171687D01*
X149943Y171873D01*
X149987Y172057D01*
X150035Y172240D01*
X150088Y172422D01*
X150145Y172603D01*
X150207Y172782D01*
X150273Y172960D01*
X150343Y173136D01*
X150418Y173310D01*
X150497Y173483D01*
X150580Y173653D01*
X150667Y173822D01*
X150759Y173988D01*
X150854Y174151D01*
X150954Y174313D01*
X151057Y174472D01*
X151164Y174628D01*
X151275Y174782D01*
X151390Y174933D01*
X151508Y175081D01*
X151631Y175226D01*
X151756Y175368D01*
X151885Y175507D01*
X152018Y175642D01*
X152153Y175775D01*
X152292Y175904D01*
X152434Y176029D01*
X152579Y176152D01*
X152727Y176270D01*
X152878Y176385D01*
X153032Y176496D01*
X153188Y176603D01*
X153347Y176706D01*
X153509Y176806D01*
X153672Y176901D01*
X153838Y176993D01*
X154007Y177080D01*
X154177Y177163D01*
X154350Y177242D01*
X154524Y177317D01*
X154700Y177387D01*
X154878Y177453D01*
X155057Y177515D01*
X155238Y177572D01*
X155420Y177625D01*
X155603Y177673D01*
X155787Y177717D01*
X155973Y177757D01*
X156159Y177791D01*
X156347Y177821D01*
X156534Y177847D01*
X156723Y177868D01*
X156912Y177884D01*
X157101Y177896D01*
X157290Y177903D01*
X157480Y177905D01*
X157670Y177903D01*
X157859Y177896D01*
X158048Y177884D01*
X158237Y177868D01*
X158426Y177847D01*
X158613Y177821D01*
X158801Y177791D01*
X158987Y177757D01*
X159173Y177717D01*
X159357Y177673D01*
X159540Y177625D01*
X159722Y177572D01*
X159903Y177515D01*
X160082Y177453D01*
X160260Y177387D01*
X160436Y177317D01*
X160610Y177242D01*
X160783Y177163D01*
X160953Y177080D01*
X161122Y176993D01*
X161288Y176901D01*
X161451Y176806D01*
X161613Y176706D01*
X161772Y176603D01*
X161928Y176496D01*
X162082Y176385D01*
X162233Y176270D01*
X162381Y176152D01*
X162526Y176029D01*
X162668Y175904D01*
X162807Y175775D01*
X162942Y175642D01*
X163075Y175507D01*
X163204Y175368D01*
X163329Y175226D01*
X163452Y175081D01*
X163570Y174933D01*
X163685Y174782D01*
X163796Y174628D01*
X163903Y174472D01*
X164006Y174313D01*
X164106Y174151D01*
X164201Y173988D01*
X164293Y173822D01*
X164380Y173653D01*
X164463Y173483D01*
X164542Y173310D01*
X164617Y173136D01*
X164687Y172960D01*
X164753Y172782D01*
X164815Y172603D01*
X164872Y172422D01*
X164925Y172240D01*
X164973Y172057D01*
X165017Y171873D01*
X165057Y171687D01*
X165091Y171501D01*
X165121Y171313D01*
X165147Y171126D01*
X165168Y170937D01*
X165184Y170748D01*
X165196Y170559D01*
X165203Y170370D01*
X165205Y170180D01*
X165203Y169990D01*
X165196Y169801D01*
X165184Y169612D01*
X165168Y169423D01*
X165147Y169234D01*
X165121Y169047D01*
X165091Y168859D01*
X165057Y168673D01*
X165017Y168487D01*
X164973Y168303D01*
X164925Y168120D01*
X164872Y167938D01*
X164815Y167757D01*
X164753Y167578D01*
X164687Y167400D01*
X164617Y167224D01*
X164542Y167050D01*
X164463Y166877D01*
X164380Y166707D01*
X164293Y166538D01*
X164201Y166372D01*
X164106Y166209D01*
X164006Y166047D01*
X163903Y165888D01*
X163796Y165732D01*
X163685Y165578D01*
X163570Y165427D01*
X163452Y165279D01*
X163329Y165134D01*
X163204Y164992D01*
X163075Y164853D01*
X162942Y164718D01*
X162807Y164585D01*
X162668Y164456D01*
X162526Y164331D01*
X162381Y164208D01*
X162233Y164090D01*
X162082Y163975D01*
X161928Y163864D01*
X161772Y163757D01*
X161613Y163654D01*
X161451Y163554D01*
X161288Y163459D01*
X161122Y163367D01*
X160953Y163280D01*
X160783Y163197D01*
X160610Y163118D01*
X160436Y163043D01*
X160260Y162973D01*
X160082Y162907D01*
X159903Y162845D01*
X159722Y162788D01*
X159540Y162735D01*
X159357Y162687D01*
X159173Y162643D01*
X158987Y162603D01*
X158801Y162569D01*
X158613Y162539D01*
X158426Y162513D01*
X158237Y162492D01*
X158048Y162476D01*
X157859Y162464D01*
X157670Y162457D01*
X157480Y162455D01*
X157290Y162457D01*
X157101Y162464D01*
X156912Y162476D01*
X156723Y162492D01*
X156534Y162513D01*
X156347Y162539D01*
X156159Y162569D01*
X155973Y162603D01*
X155787Y162643D01*
X155603Y162687D01*
X155420Y162735D01*
X155238Y162788D01*
X155057Y162845D01*
X154878Y162907D01*
X154700Y162973D01*
X154524Y163043D01*
X154350Y163118D01*
X154177Y163197D01*
X154007Y163280D01*
X153838Y163367D01*
X153672Y163459D01*
X153509Y163554D01*
X153347Y163654D01*
X153188Y163757D01*
X153032Y163864D01*
X152878Y163975D01*
X152727Y164090D01*
X152579Y164208D01*
X152434Y164331D01*
X152292Y164456D01*
X152153Y164585D01*
X152018Y164718D01*
X151885Y164853D01*
X151756Y164992D01*
X151631Y165134D01*
X151508Y165279D01*
X151390Y165427D01*
X151275Y165578D01*
X151164Y165732D01*
X151057Y165888D01*
X150954Y166047D01*
X150854Y166209D01*
X150759Y166372D01*
X150667Y166538D01*
X150580Y166707D01*
X150497Y166877D01*
X150418Y167050D01*
X150343Y167224D01*
X150273Y167400D01*
X150207Y167578D01*
X150145Y167757D01*
X150088Y167938D01*
X150035Y168120D01*
X149987Y168303D01*
X149943Y168487D01*
X149903Y168673D01*
X149869Y168859D01*
X149839Y169047D01*
X149813Y169234D01*
X149792Y169423D01*
X149776Y169612D01*
X149764Y169801D01*
X149757Y169990D01*
X149755Y170180D01*
X120390Y142875D02*
X120390Y133985D01*
X119403Y133985D02*
X121378Y133985D01*
X121378Y142875D02*
X119403Y142875D01*
X127178Y133985D02*
X129153Y133985D01*
X127178Y133985D02*
X127092Y133987D01*
X127006Y133993D01*
X126920Y134002D01*
X126835Y134015D01*
X126750Y134032D01*
X126667Y134052D01*
X126584Y134076D01*
X126502Y134104D01*
X126422Y134135D01*
X126343Y134170D01*
X126266Y134208D01*
X126190Y134250D01*
X126116Y134294D01*
X126045Y134342D01*
X125975Y134393D01*
X125908Y134447D01*
X125843Y134504D01*
X125781Y134564D01*
X125721Y134626D01*
X125664Y134691D01*
X125610Y134758D01*
X125559Y134828D01*
X125511Y134899D01*
X125467Y134973D01*
X125425Y135049D01*
X125387Y135126D01*
X125352Y135205D01*
X125321Y135285D01*
X125293Y135367D01*
X125269Y135450D01*
X125249Y135533D01*
X125232Y135618D01*
X125219Y135703D01*
X125210Y135789D01*
X125204Y135875D01*
X125202Y135961D01*
X125202Y140899D01*
X125204Y140988D01*
X125210Y141076D01*
X125220Y141164D01*
X125234Y141252D01*
X125252Y141339D01*
X125273Y141425D01*
X125299Y141510D01*
X125328Y141593D01*
X125361Y141676D01*
X125398Y141756D01*
X125438Y141835D01*
X125482Y141912D01*
X125529Y141988D01*
X125579Y142060D01*
X125633Y142131D01*
X125690Y142199D01*
X125750Y142265D01*
X125812Y142327D01*
X125878Y142387D01*
X125946Y142444D01*
X126017Y142498D01*
X126089Y142548D01*
X126164Y142595D01*
X126242Y142639D01*
X126321Y142679D01*
X126401Y142716D01*
X126484Y142749D01*
X126567Y142778D01*
X126652Y142804D01*
X126738Y142825D01*
X126825Y142843D01*
X126913Y142857D01*
X127001Y142867D01*
X127089Y142873D01*
X127178Y142875D01*
X129153Y142875D01*
X134832Y142875D02*
X132856Y135961D01*
X137795Y135961D01*
X136313Y137936D02*
X136313Y133985D01*
D13*
X652270Y128020D02*
X660910Y128020D01*
X660910Y120900D02*
X652270Y120900D01*
D15*
X650240Y124460D03*
X662940Y124460D03*
D10*
X621628Y127635D02*
X621628Y118745D01*
X621628Y127635D02*
X624097Y127635D01*
X624195Y127633D01*
X624293Y127627D01*
X624391Y127617D01*
X624488Y127604D01*
X624585Y127586D01*
X624681Y127565D01*
X624775Y127540D01*
X624869Y127511D01*
X624962Y127479D01*
X625053Y127442D01*
X625143Y127403D01*
X625231Y127359D01*
X625317Y127312D01*
X625402Y127262D01*
X625484Y127209D01*
X625564Y127152D01*
X625642Y127092D01*
X625717Y127029D01*
X625790Y126963D01*
X625860Y126894D01*
X625927Y126823D01*
X625992Y126749D01*
X626053Y126672D01*
X626112Y126593D01*
X626167Y126512D01*
X626219Y126429D01*
X626267Y126343D01*
X626312Y126256D01*
X626354Y126167D01*
X626392Y126077D01*
X626426Y125985D01*
X626457Y125892D01*
X626484Y125797D01*
X626507Y125702D01*
X626527Y125605D01*
X626542Y125509D01*
X626554Y125411D01*
X626562Y125313D01*
X626566Y125215D01*
X626566Y125117D01*
X626562Y125019D01*
X626554Y124921D01*
X626542Y124823D01*
X626527Y124727D01*
X626507Y124630D01*
X626484Y124535D01*
X626457Y124440D01*
X626426Y124347D01*
X626392Y124255D01*
X626354Y124165D01*
X626312Y124076D01*
X626267Y123989D01*
X626219Y123903D01*
X626167Y123820D01*
X626112Y123739D01*
X626053Y123660D01*
X625992Y123583D01*
X625927Y123509D01*
X625860Y123438D01*
X625790Y123369D01*
X625717Y123303D01*
X625642Y123240D01*
X625564Y123180D01*
X625484Y123123D01*
X625402Y123070D01*
X625317Y123020D01*
X625231Y122973D01*
X625143Y122929D01*
X625053Y122890D01*
X624962Y122853D01*
X624869Y122821D01*
X624775Y122792D01*
X624681Y122767D01*
X624585Y122746D01*
X624488Y122728D01*
X624391Y122715D01*
X624293Y122705D01*
X624195Y122699D01*
X624097Y122697D01*
X624097Y122696D02*
X621628Y122696D01*
X624591Y122696D02*
X626566Y118745D01*
X630696Y118745D02*
X633166Y118745D01*
X633264Y118747D01*
X633362Y118753D01*
X633460Y118763D01*
X633557Y118776D01*
X633654Y118794D01*
X633750Y118815D01*
X633844Y118840D01*
X633938Y118869D01*
X634031Y118901D01*
X634122Y118938D01*
X634212Y118977D01*
X634300Y119021D01*
X634386Y119068D01*
X634471Y119118D01*
X634553Y119171D01*
X634633Y119228D01*
X634711Y119288D01*
X634786Y119351D01*
X634859Y119417D01*
X634929Y119486D01*
X634996Y119557D01*
X635061Y119631D01*
X635122Y119708D01*
X635181Y119787D01*
X635236Y119868D01*
X635288Y119951D01*
X635336Y120037D01*
X635381Y120124D01*
X635423Y120213D01*
X635461Y120303D01*
X635495Y120395D01*
X635526Y120488D01*
X635553Y120583D01*
X635576Y120678D01*
X635596Y120775D01*
X635611Y120871D01*
X635623Y120969D01*
X635631Y121067D01*
X635635Y121165D01*
X635635Y121263D01*
X635631Y121361D01*
X635623Y121459D01*
X635611Y121557D01*
X635596Y121653D01*
X635576Y121750D01*
X635553Y121845D01*
X635526Y121940D01*
X635495Y122033D01*
X635461Y122125D01*
X635423Y122215D01*
X635381Y122304D01*
X635336Y122391D01*
X635288Y122477D01*
X635236Y122560D01*
X635181Y122641D01*
X635122Y122720D01*
X635061Y122797D01*
X634996Y122871D01*
X634929Y122942D01*
X634859Y123011D01*
X634786Y123077D01*
X634711Y123140D01*
X634633Y123200D01*
X634553Y123257D01*
X634471Y123310D01*
X634386Y123360D01*
X634300Y123407D01*
X634212Y123451D01*
X634122Y123490D01*
X634031Y123527D01*
X633938Y123559D01*
X633844Y123588D01*
X633750Y123613D01*
X633654Y123634D01*
X633557Y123652D01*
X633460Y123665D01*
X633362Y123675D01*
X633264Y123681D01*
X633166Y123683D01*
X633659Y127635D02*
X630696Y127635D01*
X633659Y127635D02*
X633746Y127633D01*
X633834Y127627D01*
X633921Y127618D01*
X634007Y127604D01*
X634093Y127587D01*
X634177Y127566D01*
X634261Y127541D01*
X634344Y127512D01*
X634425Y127480D01*
X634505Y127445D01*
X634583Y127406D01*
X634660Y127363D01*
X634734Y127317D01*
X634806Y127268D01*
X634876Y127216D01*
X634944Y127160D01*
X635009Y127102D01*
X635072Y127041D01*
X635131Y126977D01*
X635188Y126910D01*
X635242Y126842D01*
X635293Y126770D01*
X635340Y126697D01*
X635385Y126622D01*
X635426Y126544D01*
X635463Y126465D01*
X635497Y126385D01*
X635527Y126303D01*
X635554Y126220D01*
X635577Y126135D01*
X635596Y126050D01*
X635611Y125964D01*
X635623Y125877D01*
X635631Y125790D01*
X635635Y125703D01*
X635635Y125615D01*
X635631Y125528D01*
X635623Y125441D01*
X635611Y125354D01*
X635596Y125268D01*
X635577Y125183D01*
X635554Y125098D01*
X635527Y125015D01*
X635497Y124933D01*
X635463Y124853D01*
X635426Y124774D01*
X635385Y124696D01*
X635340Y124621D01*
X635293Y124548D01*
X635242Y124476D01*
X635188Y124408D01*
X635131Y124341D01*
X635072Y124277D01*
X635009Y124216D01*
X634944Y124158D01*
X634876Y124102D01*
X634806Y124050D01*
X634734Y124001D01*
X634660Y123955D01*
X634583Y123912D01*
X634505Y123873D01*
X634425Y123838D01*
X634344Y123806D01*
X634261Y123777D01*
X634177Y123752D01*
X634093Y123731D01*
X634007Y123714D01*
X633921Y123700D01*
X633834Y123691D01*
X633746Y123685D01*
X633659Y123683D01*
X633659Y123684D02*
X631684Y123684D01*
D13*
X652270Y141220D02*
X660910Y141220D01*
X660910Y148340D02*
X652270Y148340D01*
D15*
X662940Y144780D03*
X650240Y144780D03*
D10*
X621665Y140335D02*
X621665Y149225D01*
X624134Y149225D01*
X624232Y149223D01*
X624330Y149217D01*
X624428Y149207D01*
X624525Y149194D01*
X624622Y149176D01*
X624718Y149155D01*
X624812Y149130D01*
X624906Y149101D01*
X624999Y149069D01*
X625090Y149032D01*
X625180Y148993D01*
X625268Y148949D01*
X625354Y148902D01*
X625439Y148852D01*
X625521Y148799D01*
X625601Y148742D01*
X625679Y148682D01*
X625754Y148619D01*
X625827Y148553D01*
X625897Y148484D01*
X625964Y148413D01*
X626029Y148339D01*
X626090Y148262D01*
X626149Y148183D01*
X626204Y148102D01*
X626256Y148019D01*
X626304Y147933D01*
X626349Y147846D01*
X626391Y147757D01*
X626429Y147667D01*
X626463Y147575D01*
X626494Y147482D01*
X626521Y147387D01*
X626544Y147292D01*
X626564Y147195D01*
X626579Y147099D01*
X626591Y147001D01*
X626599Y146903D01*
X626603Y146805D01*
X626603Y146707D01*
X626599Y146609D01*
X626591Y146511D01*
X626579Y146413D01*
X626564Y146317D01*
X626544Y146220D01*
X626521Y146125D01*
X626494Y146030D01*
X626463Y145937D01*
X626429Y145845D01*
X626391Y145755D01*
X626349Y145666D01*
X626304Y145579D01*
X626256Y145493D01*
X626204Y145410D01*
X626149Y145329D01*
X626090Y145250D01*
X626029Y145173D01*
X625964Y145099D01*
X625897Y145028D01*
X625827Y144959D01*
X625754Y144893D01*
X625679Y144830D01*
X625601Y144770D01*
X625521Y144713D01*
X625439Y144660D01*
X625354Y144610D01*
X625268Y144563D01*
X625180Y144519D01*
X625090Y144480D01*
X624999Y144443D01*
X624906Y144411D01*
X624812Y144382D01*
X624718Y144357D01*
X624622Y144336D01*
X624525Y144318D01*
X624428Y144305D01*
X624330Y144295D01*
X624232Y144289D01*
X624134Y144287D01*
X624134Y144286D02*
X621665Y144286D01*
X624628Y144286D02*
X626604Y140335D01*
X630734Y142311D02*
X632709Y149225D01*
X630734Y142311D02*
X635672Y142311D01*
X634191Y144286D02*
X634191Y140335D01*
X673880Y432600D02*
X673880Y530600D01*
X673880Y432600D02*
X708880Y432600D01*
X708880Y530600D01*
X673880Y530600D01*
D11*
X681880Y462600D02*
X701880Y462600D01*
X701880Y479600D01*
X701880Y501600D01*
X681880Y501600D01*
X681880Y462600D01*
X681880Y479600D02*
X701880Y479600D01*
D10*
X665045Y534741D02*
X665045Y541655D01*
X665045Y534741D02*
X665043Y534655D01*
X665037Y534569D01*
X665028Y534483D01*
X665015Y534398D01*
X664998Y534313D01*
X664978Y534230D01*
X664954Y534147D01*
X664926Y534065D01*
X664895Y533985D01*
X664860Y533906D01*
X664822Y533829D01*
X664780Y533753D01*
X664736Y533679D01*
X664688Y533608D01*
X664637Y533538D01*
X664583Y533471D01*
X664526Y533406D01*
X664466Y533344D01*
X664404Y533284D01*
X664339Y533227D01*
X664272Y533173D01*
X664202Y533122D01*
X664131Y533074D01*
X664057Y533030D01*
X663981Y532988D01*
X663904Y532950D01*
X663825Y532915D01*
X663745Y532884D01*
X663663Y532856D01*
X663580Y532832D01*
X663497Y532812D01*
X663412Y532795D01*
X663327Y532782D01*
X663241Y532773D01*
X663155Y532767D01*
X663069Y532765D01*
X662081Y532765D01*
X669812Y535234D02*
X669812Y541655D01*
X669812Y535234D02*
X669814Y535136D01*
X669820Y535038D01*
X669830Y534940D01*
X669843Y534843D01*
X669861Y534746D01*
X669882Y534650D01*
X669907Y534556D01*
X669936Y534462D01*
X669968Y534369D01*
X670005Y534278D01*
X670044Y534188D01*
X670088Y534100D01*
X670135Y534014D01*
X670185Y533929D01*
X670238Y533847D01*
X670295Y533767D01*
X670355Y533689D01*
X670418Y533614D01*
X670484Y533541D01*
X670553Y533471D01*
X670624Y533404D01*
X670698Y533339D01*
X670775Y533278D01*
X670854Y533219D01*
X670935Y533164D01*
X671018Y533112D01*
X671104Y533064D01*
X671191Y533019D01*
X671280Y532977D01*
X671370Y532939D01*
X671462Y532905D01*
X671555Y532874D01*
X671650Y532847D01*
X671745Y532824D01*
X671842Y532804D01*
X671938Y532789D01*
X672036Y532777D01*
X672134Y532769D01*
X672232Y532765D01*
X672330Y532765D01*
X672428Y532769D01*
X672526Y532777D01*
X672624Y532789D01*
X672720Y532804D01*
X672817Y532824D01*
X672912Y532847D01*
X673007Y532874D01*
X673100Y532905D01*
X673192Y532939D01*
X673282Y532977D01*
X673371Y533019D01*
X673458Y533064D01*
X673544Y533112D01*
X673627Y533164D01*
X673708Y533219D01*
X673787Y533278D01*
X673864Y533339D01*
X673938Y533404D01*
X674009Y533471D01*
X674078Y533541D01*
X674144Y533614D01*
X674207Y533689D01*
X674267Y533767D01*
X674324Y533847D01*
X674377Y533929D01*
X674427Y534014D01*
X674474Y534100D01*
X674518Y534188D01*
X674557Y534278D01*
X674594Y534369D01*
X674626Y534462D01*
X674655Y534556D01*
X674680Y534650D01*
X674701Y534746D01*
X674719Y534843D01*
X674732Y534940D01*
X674742Y535038D01*
X674748Y535136D01*
X674750Y535234D01*
X674751Y535234D02*
X674751Y541655D01*
X679681Y541655D02*
X679681Y532765D01*
X682644Y536716D02*
X679681Y541655D01*
X682644Y536716D02*
X685608Y541655D01*
X685608Y532765D01*
X690712Y532765D02*
X690712Y541655D01*
X693181Y541655D01*
X693279Y541653D01*
X693377Y541647D01*
X693475Y541637D01*
X693572Y541624D01*
X693669Y541606D01*
X693765Y541585D01*
X693859Y541560D01*
X693953Y541531D01*
X694046Y541499D01*
X694137Y541462D01*
X694227Y541423D01*
X694315Y541379D01*
X694401Y541332D01*
X694486Y541282D01*
X694568Y541229D01*
X694648Y541172D01*
X694726Y541112D01*
X694801Y541049D01*
X694874Y540983D01*
X694944Y540914D01*
X695011Y540843D01*
X695076Y540769D01*
X695137Y540692D01*
X695196Y540613D01*
X695251Y540532D01*
X695303Y540449D01*
X695351Y540363D01*
X695396Y540276D01*
X695438Y540187D01*
X695476Y540097D01*
X695510Y540005D01*
X695541Y539912D01*
X695568Y539817D01*
X695591Y539722D01*
X695611Y539625D01*
X695626Y539529D01*
X695638Y539431D01*
X695646Y539333D01*
X695650Y539235D01*
X695650Y539137D01*
X695646Y539039D01*
X695638Y538941D01*
X695626Y538843D01*
X695611Y538747D01*
X695591Y538650D01*
X695568Y538555D01*
X695541Y538460D01*
X695510Y538367D01*
X695476Y538275D01*
X695438Y538185D01*
X695396Y538096D01*
X695351Y538009D01*
X695303Y537923D01*
X695251Y537840D01*
X695196Y537759D01*
X695137Y537680D01*
X695076Y537603D01*
X695011Y537529D01*
X694944Y537458D01*
X694874Y537389D01*
X694801Y537323D01*
X694726Y537260D01*
X694648Y537200D01*
X694568Y537143D01*
X694486Y537090D01*
X694401Y537040D01*
X694315Y536993D01*
X694227Y536949D01*
X694137Y536910D01*
X694046Y536873D01*
X693953Y536841D01*
X693859Y536812D01*
X693765Y536787D01*
X693669Y536766D01*
X693572Y536748D01*
X693475Y536735D01*
X693377Y536725D01*
X693279Y536719D01*
X693181Y536717D01*
X693181Y536716D02*
X690712Y536716D01*
X699705Y532765D02*
X703656Y532765D01*
X699705Y532765D02*
X699705Y541655D01*
X703656Y541655D01*
X702669Y537704D02*
X699705Y537704D01*
X707682Y541655D02*
X707682Y532765D01*
X707682Y541655D02*
X710152Y541655D01*
X710250Y541653D01*
X710348Y541647D01*
X710446Y541637D01*
X710543Y541624D01*
X710640Y541606D01*
X710736Y541585D01*
X710830Y541560D01*
X710924Y541531D01*
X711017Y541499D01*
X711108Y541462D01*
X711198Y541423D01*
X711286Y541379D01*
X711372Y541332D01*
X711457Y541282D01*
X711539Y541229D01*
X711619Y541172D01*
X711697Y541112D01*
X711772Y541049D01*
X711845Y540983D01*
X711915Y540914D01*
X711982Y540843D01*
X712047Y540769D01*
X712108Y540692D01*
X712167Y540613D01*
X712222Y540532D01*
X712274Y540449D01*
X712322Y540363D01*
X712367Y540276D01*
X712409Y540187D01*
X712447Y540097D01*
X712481Y540005D01*
X712512Y539912D01*
X712539Y539817D01*
X712562Y539722D01*
X712582Y539625D01*
X712597Y539529D01*
X712609Y539431D01*
X712617Y539333D01*
X712621Y539235D01*
X712621Y539137D01*
X712617Y539039D01*
X712609Y538941D01*
X712597Y538843D01*
X712582Y538747D01*
X712562Y538650D01*
X712539Y538555D01*
X712512Y538460D01*
X712481Y538367D01*
X712447Y538275D01*
X712409Y538185D01*
X712367Y538096D01*
X712322Y538009D01*
X712274Y537923D01*
X712222Y537840D01*
X712167Y537759D01*
X712108Y537680D01*
X712047Y537603D01*
X711982Y537529D01*
X711915Y537458D01*
X711845Y537389D01*
X711772Y537323D01*
X711697Y537260D01*
X711619Y537200D01*
X711539Y537143D01*
X711457Y537090D01*
X711372Y537040D01*
X711286Y536993D01*
X711198Y536949D01*
X711108Y536910D01*
X711017Y536873D01*
X710924Y536841D01*
X710830Y536812D01*
X710736Y536787D01*
X710640Y536766D01*
X710543Y536748D01*
X710446Y536735D01*
X710348Y536725D01*
X710250Y536719D01*
X710152Y536717D01*
X710152Y536716D02*
X707682Y536716D01*
X710646Y536716D02*
X712621Y532765D01*
X716330Y531777D02*
X720281Y531777D01*
X724394Y532765D02*
X728345Y532765D01*
X724394Y532765D02*
X724394Y541655D01*
X728345Y541655D01*
X727357Y537704D02*
X724394Y537704D01*
D13*
X288800Y433320D02*
X280160Y433320D01*
X280160Y440440D02*
X288800Y440440D01*
D15*
X290830Y436880D03*
X278130Y436880D03*
D10*
X302895Y432435D02*
X302895Y441325D01*
X305364Y441325D01*
X305462Y441323D01*
X305560Y441317D01*
X305658Y441307D01*
X305755Y441294D01*
X305852Y441276D01*
X305948Y441255D01*
X306042Y441230D01*
X306136Y441201D01*
X306229Y441169D01*
X306320Y441132D01*
X306410Y441093D01*
X306498Y441049D01*
X306584Y441002D01*
X306669Y440952D01*
X306751Y440899D01*
X306831Y440842D01*
X306909Y440782D01*
X306984Y440719D01*
X307057Y440653D01*
X307127Y440584D01*
X307194Y440513D01*
X307259Y440439D01*
X307320Y440362D01*
X307379Y440283D01*
X307434Y440202D01*
X307486Y440119D01*
X307534Y440033D01*
X307579Y439946D01*
X307621Y439857D01*
X307659Y439767D01*
X307693Y439675D01*
X307724Y439582D01*
X307751Y439487D01*
X307774Y439392D01*
X307794Y439295D01*
X307809Y439199D01*
X307821Y439101D01*
X307829Y439003D01*
X307833Y438905D01*
X307833Y438807D01*
X307829Y438709D01*
X307821Y438611D01*
X307809Y438513D01*
X307794Y438417D01*
X307774Y438320D01*
X307751Y438225D01*
X307724Y438130D01*
X307693Y438037D01*
X307659Y437945D01*
X307621Y437855D01*
X307579Y437766D01*
X307534Y437679D01*
X307486Y437593D01*
X307434Y437510D01*
X307379Y437429D01*
X307320Y437350D01*
X307259Y437273D01*
X307194Y437199D01*
X307127Y437128D01*
X307057Y437059D01*
X306984Y436993D01*
X306909Y436930D01*
X306831Y436870D01*
X306751Y436813D01*
X306669Y436760D01*
X306584Y436710D01*
X306498Y436663D01*
X306410Y436619D01*
X306320Y436580D01*
X306229Y436543D01*
X306136Y436511D01*
X306042Y436482D01*
X305948Y436457D01*
X305852Y436436D01*
X305755Y436418D01*
X305658Y436405D01*
X305560Y436395D01*
X305462Y436389D01*
X305364Y436387D01*
X305364Y436386D02*
X302895Y436386D01*
X305858Y436386D02*
X307834Y432435D01*
X311964Y439349D02*
X314433Y441325D01*
X314433Y432435D01*
X311964Y432435D02*
X316902Y432435D01*
D13*
X288800Y460760D02*
X280160Y460760D01*
X280160Y453640D02*
X288800Y453640D01*
D15*
X278130Y457200D03*
X290830Y457200D03*
D10*
X302895Y452755D02*
X302895Y461645D01*
X305364Y461645D01*
X305462Y461643D01*
X305560Y461637D01*
X305658Y461627D01*
X305755Y461614D01*
X305852Y461596D01*
X305948Y461575D01*
X306042Y461550D01*
X306136Y461521D01*
X306229Y461489D01*
X306320Y461452D01*
X306410Y461413D01*
X306498Y461369D01*
X306584Y461322D01*
X306669Y461272D01*
X306751Y461219D01*
X306831Y461162D01*
X306909Y461102D01*
X306984Y461039D01*
X307057Y460973D01*
X307127Y460904D01*
X307194Y460833D01*
X307259Y460759D01*
X307320Y460682D01*
X307379Y460603D01*
X307434Y460522D01*
X307486Y460439D01*
X307534Y460353D01*
X307579Y460266D01*
X307621Y460177D01*
X307659Y460087D01*
X307693Y459995D01*
X307724Y459902D01*
X307751Y459807D01*
X307774Y459712D01*
X307794Y459615D01*
X307809Y459519D01*
X307821Y459421D01*
X307829Y459323D01*
X307833Y459225D01*
X307833Y459127D01*
X307829Y459029D01*
X307821Y458931D01*
X307809Y458833D01*
X307794Y458737D01*
X307774Y458640D01*
X307751Y458545D01*
X307724Y458450D01*
X307693Y458357D01*
X307659Y458265D01*
X307621Y458175D01*
X307579Y458086D01*
X307534Y457999D01*
X307486Y457913D01*
X307434Y457830D01*
X307379Y457749D01*
X307320Y457670D01*
X307259Y457593D01*
X307194Y457519D01*
X307127Y457448D01*
X307057Y457379D01*
X306984Y457313D01*
X306909Y457250D01*
X306831Y457190D01*
X306751Y457133D01*
X306669Y457080D01*
X306584Y457030D01*
X306498Y456983D01*
X306410Y456939D01*
X306320Y456900D01*
X306229Y456863D01*
X306136Y456831D01*
X306042Y456802D01*
X305948Y456777D01*
X305852Y456756D01*
X305755Y456738D01*
X305658Y456725D01*
X305560Y456715D01*
X305462Y456709D01*
X305364Y456707D01*
X305364Y456706D02*
X302895Y456706D01*
X305858Y456706D02*
X307834Y452755D01*
X311964Y452755D02*
X314927Y452755D01*
X315016Y452757D01*
X315104Y452763D01*
X315192Y452773D01*
X315280Y452787D01*
X315367Y452805D01*
X315453Y452826D01*
X315538Y452852D01*
X315621Y452881D01*
X315704Y452914D01*
X315784Y452951D01*
X315863Y452991D01*
X315940Y453035D01*
X316016Y453082D01*
X316088Y453132D01*
X316159Y453186D01*
X316227Y453243D01*
X316293Y453303D01*
X316355Y453365D01*
X316415Y453431D01*
X316472Y453499D01*
X316526Y453570D01*
X316576Y453642D01*
X316623Y453717D01*
X316667Y453795D01*
X316707Y453874D01*
X316744Y453954D01*
X316777Y454037D01*
X316806Y454120D01*
X316832Y454205D01*
X316853Y454291D01*
X316871Y454378D01*
X316885Y454466D01*
X316895Y454554D01*
X316901Y454642D01*
X316903Y454731D01*
X316902Y454731D02*
X316902Y455718D01*
X316903Y455718D02*
X316901Y455804D01*
X316895Y455890D01*
X316886Y455976D01*
X316873Y456061D01*
X316856Y456146D01*
X316836Y456229D01*
X316812Y456312D01*
X316784Y456394D01*
X316753Y456474D01*
X316718Y456553D01*
X316680Y456630D01*
X316638Y456706D01*
X316594Y456780D01*
X316546Y456851D01*
X316495Y456921D01*
X316441Y456988D01*
X316384Y457053D01*
X316324Y457115D01*
X316262Y457175D01*
X316197Y457232D01*
X316130Y457286D01*
X316060Y457337D01*
X315989Y457385D01*
X315915Y457429D01*
X315839Y457471D01*
X315762Y457509D01*
X315683Y457544D01*
X315603Y457575D01*
X315521Y457603D01*
X315438Y457627D01*
X315355Y457647D01*
X315270Y457664D01*
X315185Y457677D01*
X315099Y457686D01*
X315013Y457692D01*
X314927Y457694D01*
X311964Y457694D01*
X311964Y461645D01*
X316902Y461645D01*
D11*
X75830Y143200D02*
X61330Y143200D01*
X61330Y136200D02*
X75830Y136200D01*
D16*
X62330Y139700D03*
X74830Y139700D03*
D10*
X68086Y121285D02*
X66111Y121285D01*
X66025Y121287D01*
X65939Y121293D01*
X65853Y121302D01*
X65768Y121315D01*
X65683Y121332D01*
X65600Y121352D01*
X65517Y121376D01*
X65435Y121404D01*
X65355Y121435D01*
X65276Y121470D01*
X65199Y121508D01*
X65123Y121550D01*
X65049Y121594D01*
X64978Y121642D01*
X64908Y121693D01*
X64841Y121747D01*
X64776Y121804D01*
X64714Y121864D01*
X64654Y121926D01*
X64597Y121991D01*
X64543Y122058D01*
X64492Y122128D01*
X64444Y122199D01*
X64400Y122273D01*
X64358Y122349D01*
X64320Y122426D01*
X64285Y122505D01*
X64254Y122585D01*
X64226Y122667D01*
X64202Y122750D01*
X64182Y122833D01*
X64165Y122918D01*
X64152Y123003D01*
X64143Y123089D01*
X64137Y123175D01*
X64135Y123261D01*
X64135Y128199D01*
X64137Y128288D01*
X64143Y128376D01*
X64153Y128464D01*
X64167Y128552D01*
X64185Y128639D01*
X64206Y128725D01*
X64232Y128810D01*
X64261Y128893D01*
X64294Y128976D01*
X64331Y129056D01*
X64371Y129135D01*
X64415Y129212D01*
X64462Y129288D01*
X64512Y129360D01*
X64566Y129431D01*
X64623Y129499D01*
X64683Y129565D01*
X64745Y129627D01*
X64811Y129687D01*
X64879Y129744D01*
X64950Y129798D01*
X65022Y129848D01*
X65097Y129895D01*
X65175Y129939D01*
X65254Y129979D01*
X65334Y130016D01*
X65417Y130049D01*
X65500Y130078D01*
X65585Y130104D01*
X65671Y130125D01*
X65758Y130143D01*
X65846Y130157D01*
X65934Y130167D01*
X66022Y130173D01*
X66111Y130175D01*
X68086Y130175D01*
X71789Y121285D02*
X74752Y121285D01*
X74841Y121287D01*
X74929Y121293D01*
X75017Y121303D01*
X75105Y121317D01*
X75192Y121335D01*
X75278Y121356D01*
X75363Y121382D01*
X75446Y121411D01*
X75529Y121444D01*
X75609Y121481D01*
X75688Y121521D01*
X75765Y121565D01*
X75841Y121612D01*
X75913Y121662D01*
X75984Y121716D01*
X76052Y121773D01*
X76118Y121833D01*
X76180Y121895D01*
X76240Y121961D01*
X76297Y122029D01*
X76351Y122100D01*
X76401Y122172D01*
X76448Y122247D01*
X76492Y122325D01*
X76532Y122404D01*
X76569Y122484D01*
X76602Y122567D01*
X76631Y122650D01*
X76657Y122735D01*
X76678Y122821D01*
X76696Y122908D01*
X76710Y122996D01*
X76720Y123084D01*
X76726Y123172D01*
X76728Y123261D01*
X76728Y124248D01*
X76726Y124334D01*
X76720Y124420D01*
X76711Y124506D01*
X76698Y124591D01*
X76681Y124676D01*
X76661Y124759D01*
X76637Y124842D01*
X76609Y124924D01*
X76578Y125004D01*
X76543Y125083D01*
X76505Y125160D01*
X76463Y125236D01*
X76419Y125310D01*
X76371Y125381D01*
X76320Y125451D01*
X76266Y125518D01*
X76209Y125583D01*
X76149Y125645D01*
X76087Y125705D01*
X76022Y125762D01*
X75955Y125816D01*
X75885Y125867D01*
X75814Y125915D01*
X75740Y125959D01*
X75664Y126001D01*
X75587Y126039D01*
X75508Y126074D01*
X75428Y126105D01*
X75346Y126133D01*
X75263Y126157D01*
X75180Y126177D01*
X75095Y126194D01*
X75010Y126207D01*
X74924Y126216D01*
X74838Y126222D01*
X74752Y126224D01*
X71789Y126224D01*
X71789Y130175D01*
X76728Y130175D01*
D11*
X264530Y136200D02*
X279030Y136200D01*
X279030Y143200D02*
X264530Y143200D01*
D16*
X278030Y139700D03*
X265530Y139700D03*
D10*
X258439Y121285D02*
X256464Y121285D01*
X256378Y121287D01*
X256292Y121293D01*
X256206Y121302D01*
X256121Y121315D01*
X256036Y121332D01*
X255953Y121352D01*
X255870Y121376D01*
X255788Y121404D01*
X255708Y121435D01*
X255629Y121470D01*
X255552Y121508D01*
X255476Y121550D01*
X255402Y121594D01*
X255331Y121642D01*
X255261Y121693D01*
X255194Y121747D01*
X255129Y121804D01*
X255067Y121864D01*
X255007Y121926D01*
X254950Y121991D01*
X254896Y122058D01*
X254845Y122128D01*
X254797Y122199D01*
X254753Y122273D01*
X254711Y122349D01*
X254673Y122426D01*
X254638Y122505D01*
X254607Y122585D01*
X254579Y122667D01*
X254555Y122750D01*
X254535Y122833D01*
X254518Y122918D01*
X254505Y123003D01*
X254496Y123089D01*
X254490Y123175D01*
X254488Y123261D01*
X254488Y128199D01*
X254490Y128288D01*
X254496Y128376D01*
X254506Y128464D01*
X254520Y128552D01*
X254538Y128639D01*
X254559Y128725D01*
X254585Y128810D01*
X254614Y128893D01*
X254647Y128976D01*
X254684Y129056D01*
X254724Y129135D01*
X254768Y129212D01*
X254815Y129288D01*
X254865Y129360D01*
X254919Y129431D01*
X254976Y129499D01*
X255036Y129565D01*
X255098Y129627D01*
X255164Y129687D01*
X255232Y129744D01*
X255303Y129798D01*
X255375Y129848D01*
X255450Y129895D01*
X255528Y129939D01*
X255607Y129979D01*
X255687Y130016D01*
X255770Y130049D01*
X255853Y130078D01*
X255938Y130104D01*
X256024Y130125D01*
X256111Y130143D01*
X256199Y130157D01*
X256287Y130167D01*
X256375Y130173D01*
X256464Y130175D01*
X258439Y130175D01*
X262142Y128199D02*
X264612Y130175D01*
X264612Y121285D01*
X267081Y121285D02*
X262142Y121285D01*
X271286Y125730D02*
X271288Y125905D01*
X271294Y126080D01*
X271305Y126254D01*
X271319Y126429D01*
X271338Y126602D01*
X271361Y126776D01*
X271388Y126949D01*
X271419Y127121D01*
X271454Y127292D01*
X271494Y127462D01*
X271537Y127632D01*
X271585Y127800D01*
X271636Y127967D01*
X271691Y128133D01*
X271751Y128298D01*
X271814Y128461D01*
X271881Y128622D01*
X271952Y128782D01*
X272027Y128940D01*
X272028Y128941D02*
X272057Y129019D01*
X272089Y129097D01*
X272126Y129172D01*
X272165Y129246D01*
X272208Y129318D01*
X272254Y129389D01*
X272304Y129456D01*
X272356Y129522D01*
X272411Y129585D01*
X272470Y129645D01*
X272531Y129703D01*
X272594Y129758D01*
X272660Y129810D01*
X272729Y129859D01*
X272799Y129904D01*
X272871Y129947D01*
X272946Y129986D01*
X273022Y130021D01*
X273099Y130053D01*
X273178Y130081D01*
X273259Y130106D01*
X273340Y130127D01*
X273422Y130144D01*
X273505Y130158D01*
X273588Y130167D01*
X273672Y130173D01*
X273756Y130175D01*
X273840Y130173D01*
X273924Y130167D01*
X274007Y130158D01*
X274090Y130144D01*
X274172Y130127D01*
X274253Y130106D01*
X274334Y130081D01*
X274413Y130053D01*
X274490Y130021D01*
X274566Y129986D01*
X274641Y129947D01*
X274713Y129904D01*
X274784Y129859D01*
X274852Y129810D01*
X274918Y129758D01*
X274981Y129703D01*
X275042Y129645D01*
X275101Y129585D01*
X275156Y129522D01*
X275208Y129456D01*
X275258Y129389D01*
X275304Y129318D01*
X275347Y129246D01*
X275386Y129172D01*
X275423Y129097D01*
X275455Y129019D01*
X275484Y128940D01*
X275559Y128782D01*
X275630Y128622D01*
X275697Y128461D01*
X275760Y128298D01*
X275820Y128133D01*
X275875Y127967D01*
X275926Y127800D01*
X275974Y127632D01*
X276017Y127462D01*
X276057Y127292D01*
X276092Y127121D01*
X276123Y126949D01*
X276150Y126776D01*
X276173Y126602D01*
X276192Y126429D01*
X276206Y126254D01*
X276217Y126080D01*
X276223Y125905D01*
X276225Y125730D01*
X271286Y125730D02*
X271288Y125555D01*
X271294Y125380D01*
X271305Y125206D01*
X271319Y125031D01*
X271338Y124858D01*
X271361Y124684D01*
X271388Y124511D01*
X271419Y124339D01*
X271454Y124168D01*
X271494Y123998D01*
X271537Y123828D01*
X271585Y123660D01*
X271636Y123493D01*
X271691Y123327D01*
X271751Y123162D01*
X271814Y122999D01*
X271881Y122838D01*
X271952Y122678D01*
X272027Y122520D01*
X272028Y122519D02*
X272057Y122441D01*
X272089Y122363D01*
X272126Y122288D01*
X272165Y122214D01*
X272208Y122141D01*
X272254Y122071D01*
X272304Y122004D01*
X272356Y121938D01*
X272412Y121875D01*
X272470Y121815D01*
X272531Y121757D01*
X272594Y121702D01*
X272660Y121650D01*
X272729Y121601D01*
X272799Y121556D01*
X272871Y121513D01*
X272946Y121474D01*
X273022Y121439D01*
X273099Y121407D01*
X273178Y121379D01*
X273259Y121354D01*
X273340Y121333D01*
X273422Y121316D01*
X273505Y121302D01*
X273588Y121293D01*
X273672Y121287D01*
X273756Y121285D01*
X275484Y122520D02*
X275559Y122678D01*
X275630Y122838D01*
X275697Y122999D01*
X275760Y123162D01*
X275820Y123327D01*
X275875Y123493D01*
X275926Y123660D01*
X275974Y123828D01*
X276017Y123998D01*
X276057Y124168D01*
X276092Y124339D01*
X276123Y124511D01*
X276150Y124684D01*
X276173Y124858D01*
X276192Y125031D01*
X276206Y125206D01*
X276217Y125380D01*
X276223Y125555D01*
X276225Y125730D01*
X275484Y122519D02*
X275455Y122441D01*
X275423Y122363D01*
X275386Y122288D01*
X275347Y122214D01*
X275304Y122142D01*
X275258Y122071D01*
X275208Y122004D01*
X275156Y121938D01*
X275101Y121875D01*
X275042Y121815D01*
X274981Y121757D01*
X274918Y121702D01*
X274852Y121650D01*
X274784Y121601D01*
X274713Y121556D01*
X274641Y121513D01*
X274566Y121474D01*
X274490Y121439D01*
X274413Y121407D01*
X274334Y121379D01*
X274253Y121354D01*
X274172Y121333D01*
X274090Y121316D01*
X274007Y121302D01*
X273924Y121293D01*
X273840Y121287D01*
X273756Y121285D01*
X271780Y123261D02*
X275731Y128199D01*
D13*
X280160Y479040D02*
X288800Y479040D01*
X288800Y486160D02*
X280160Y486160D01*
D15*
X290830Y482600D03*
X278130Y482600D03*
D10*
X302895Y478155D02*
X302895Y487045D01*
X305364Y487045D01*
X305462Y487043D01*
X305560Y487037D01*
X305658Y487027D01*
X305755Y487014D01*
X305852Y486996D01*
X305948Y486975D01*
X306042Y486950D01*
X306136Y486921D01*
X306229Y486889D01*
X306320Y486852D01*
X306410Y486813D01*
X306498Y486769D01*
X306584Y486722D01*
X306669Y486672D01*
X306751Y486619D01*
X306831Y486562D01*
X306909Y486502D01*
X306984Y486439D01*
X307057Y486373D01*
X307127Y486304D01*
X307194Y486233D01*
X307259Y486159D01*
X307320Y486082D01*
X307379Y486003D01*
X307434Y485922D01*
X307486Y485839D01*
X307534Y485753D01*
X307579Y485666D01*
X307621Y485577D01*
X307659Y485487D01*
X307693Y485395D01*
X307724Y485302D01*
X307751Y485207D01*
X307774Y485112D01*
X307794Y485015D01*
X307809Y484919D01*
X307821Y484821D01*
X307829Y484723D01*
X307833Y484625D01*
X307833Y484527D01*
X307829Y484429D01*
X307821Y484331D01*
X307809Y484233D01*
X307794Y484137D01*
X307774Y484040D01*
X307751Y483945D01*
X307724Y483850D01*
X307693Y483757D01*
X307659Y483665D01*
X307621Y483575D01*
X307579Y483486D01*
X307534Y483399D01*
X307486Y483313D01*
X307434Y483230D01*
X307379Y483149D01*
X307320Y483070D01*
X307259Y482993D01*
X307194Y482919D01*
X307127Y482848D01*
X307057Y482779D01*
X306984Y482713D01*
X306909Y482650D01*
X306831Y482590D01*
X306751Y482533D01*
X306669Y482480D01*
X306584Y482430D01*
X306498Y482383D01*
X306410Y482339D01*
X306320Y482300D01*
X306229Y482263D01*
X306136Y482231D01*
X306042Y482202D01*
X305948Y482177D01*
X305852Y482156D01*
X305755Y482138D01*
X305658Y482125D01*
X305560Y482115D01*
X305462Y482109D01*
X305364Y482107D01*
X305364Y482106D02*
X302895Y482106D01*
X305858Y482106D02*
X307834Y478155D01*
X314680Y487046D02*
X314772Y487044D01*
X314864Y487038D01*
X314955Y487029D01*
X315046Y487016D01*
X315136Y486999D01*
X315226Y486978D01*
X315314Y486954D01*
X315402Y486926D01*
X315488Y486894D01*
X315573Y486859D01*
X315656Y486820D01*
X315738Y486778D01*
X315818Y486733D01*
X315896Y486684D01*
X315972Y486632D01*
X316045Y486577D01*
X316117Y486519D01*
X316186Y486459D01*
X316252Y486395D01*
X316316Y486329D01*
X316376Y486260D01*
X316434Y486188D01*
X316489Y486115D01*
X316541Y486039D01*
X316590Y485961D01*
X316635Y485881D01*
X316677Y485799D01*
X316716Y485716D01*
X316751Y485631D01*
X316783Y485545D01*
X316811Y485457D01*
X316835Y485369D01*
X316856Y485279D01*
X316873Y485189D01*
X316886Y485098D01*
X316895Y485007D01*
X316901Y484915D01*
X316903Y484823D01*
X314680Y487045D02*
X314574Y487043D01*
X314469Y487037D01*
X314364Y487027D01*
X314259Y487014D01*
X314155Y486996D01*
X314052Y486975D01*
X313949Y486950D01*
X313847Y486921D01*
X313747Y486888D01*
X313648Y486852D01*
X313550Y486812D01*
X313454Y486768D01*
X313359Y486721D01*
X313267Y486671D01*
X313176Y486617D01*
X313087Y486559D01*
X313001Y486499D01*
X312917Y486435D01*
X312835Y486369D01*
X312755Y486299D01*
X312679Y486226D01*
X312605Y486151D01*
X312534Y486073D01*
X312466Y485992D01*
X312400Y485909D01*
X312338Y485823D01*
X312280Y485736D01*
X312224Y485646D01*
X312172Y485554D01*
X312123Y485460D01*
X312078Y485365D01*
X312036Y485268D01*
X311998Y485169D01*
X311964Y485070D01*
X316161Y483094D02*
X316230Y483163D01*
X316296Y483233D01*
X316359Y483307D01*
X316418Y483383D01*
X316475Y483461D01*
X316529Y483541D01*
X316579Y483624D01*
X316626Y483708D01*
X316669Y483795D01*
X316709Y483883D01*
X316745Y483972D01*
X316778Y484063D01*
X316807Y484155D01*
X316832Y484249D01*
X316853Y484343D01*
X316871Y484438D01*
X316884Y484534D01*
X316894Y484630D01*
X316900Y484726D01*
X316902Y484823D01*
X316162Y483094D02*
X311964Y478155D01*
X316902Y478155D01*
X303700Y503360D02*
X229700Y503360D01*
X229700Y568860D01*
X303700Y568860D02*
X303700Y503360D01*
D11*
X281946Y520352D02*
X278701Y517756D01*
X281946Y520352D02*
X281946Y508668D01*
X278701Y508668D02*
X285192Y508668D01*
X293192Y562431D02*
X293190Y562538D01*
X293184Y562644D01*
X293174Y562750D01*
X293161Y562856D01*
X293143Y562962D01*
X293122Y563066D01*
X293097Y563170D01*
X293068Y563273D01*
X293036Y563374D01*
X292999Y563474D01*
X292959Y563573D01*
X292916Y563671D01*
X292869Y563767D01*
X292818Y563861D01*
X292764Y563953D01*
X292707Y564043D01*
X292647Y564131D01*
X292583Y564216D01*
X292516Y564299D01*
X292446Y564380D01*
X292374Y564458D01*
X292298Y564534D01*
X292220Y564606D01*
X292139Y564676D01*
X292056Y564743D01*
X291971Y564807D01*
X291883Y564867D01*
X291793Y564924D01*
X291701Y564978D01*
X291607Y565029D01*
X291511Y565076D01*
X291413Y565119D01*
X291314Y565159D01*
X291214Y565196D01*
X291113Y565228D01*
X291010Y565257D01*
X290906Y565282D01*
X290802Y565303D01*
X290696Y565321D01*
X290590Y565334D01*
X290484Y565344D01*
X290378Y565350D01*
X290271Y565352D01*
X290150Y565350D01*
X290029Y565344D01*
X289909Y565334D01*
X289788Y565321D01*
X289669Y565303D01*
X289549Y565282D01*
X289431Y565257D01*
X289314Y565228D01*
X289197Y565195D01*
X289082Y565159D01*
X288968Y565118D01*
X288855Y565075D01*
X288743Y565027D01*
X288634Y564976D01*
X288526Y564921D01*
X288419Y564863D01*
X288315Y564802D01*
X288213Y564737D01*
X288113Y564669D01*
X288015Y564598D01*
X287919Y564524D01*
X287826Y564447D01*
X287736Y564366D01*
X287648Y564283D01*
X287563Y564197D01*
X287480Y564108D01*
X287401Y564017D01*
X287324Y563923D01*
X287251Y563827D01*
X287181Y563729D01*
X287114Y563628D01*
X287050Y563525D01*
X286990Y563420D01*
X286933Y563313D01*
X286879Y563205D01*
X286829Y563095D01*
X286783Y562983D01*
X286740Y562870D01*
X286701Y562755D01*
X292219Y560159D02*
X292298Y560236D01*
X292374Y560317D01*
X292447Y560400D01*
X292517Y560485D01*
X292584Y560573D01*
X292648Y560663D01*
X292708Y560755D01*
X292765Y560850D01*
X292819Y560946D01*
X292870Y561044D01*
X292917Y561144D01*
X292961Y561246D01*
X293001Y561349D01*
X293037Y561453D01*
X293069Y561559D01*
X293098Y561665D01*
X293123Y561773D01*
X293145Y561881D01*
X293162Y561991D01*
X293176Y562100D01*
X293185Y562210D01*
X293191Y562321D01*
X293193Y562431D01*
X292218Y560159D02*
X286701Y553668D01*
X293192Y553668D01*
X245946Y553668D02*
X242701Y553668D01*
X245946Y553668D02*
X246059Y553670D01*
X246172Y553676D01*
X246285Y553686D01*
X246398Y553700D01*
X246510Y553717D01*
X246621Y553739D01*
X246731Y553764D01*
X246841Y553794D01*
X246949Y553827D01*
X247056Y553864D01*
X247162Y553904D01*
X247266Y553949D01*
X247369Y553997D01*
X247470Y554048D01*
X247569Y554103D01*
X247666Y554161D01*
X247761Y554223D01*
X247854Y554288D01*
X247944Y554356D01*
X248032Y554427D01*
X248118Y554502D01*
X248201Y554579D01*
X248281Y554659D01*
X248358Y554742D01*
X248433Y554828D01*
X248504Y554916D01*
X248572Y555006D01*
X248637Y555099D01*
X248699Y555194D01*
X248757Y555291D01*
X248812Y555390D01*
X248863Y555491D01*
X248911Y555594D01*
X248956Y555698D01*
X248996Y555804D01*
X249033Y555911D01*
X249066Y556019D01*
X249096Y556129D01*
X249121Y556239D01*
X249143Y556350D01*
X249160Y556462D01*
X249174Y556575D01*
X249184Y556688D01*
X249190Y556801D01*
X249192Y556914D01*
X249190Y557027D01*
X249184Y557140D01*
X249174Y557253D01*
X249160Y557366D01*
X249143Y557478D01*
X249121Y557589D01*
X249096Y557699D01*
X249066Y557809D01*
X249033Y557917D01*
X248996Y558024D01*
X248956Y558130D01*
X248911Y558234D01*
X248863Y558337D01*
X248812Y558438D01*
X248757Y558537D01*
X248699Y558634D01*
X248637Y558729D01*
X248572Y558822D01*
X248504Y558912D01*
X248433Y559000D01*
X248358Y559086D01*
X248281Y559169D01*
X248201Y559249D01*
X248118Y559326D01*
X248032Y559401D01*
X247944Y559472D01*
X247854Y559540D01*
X247761Y559605D01*
X247666Y559667D01*
X247569Y559725D01*
X247470Y559780D01*
X247369Y559831D01*
X247266Y559879D01*
X247162Y559924D01*
X247056Y559964D01*
X246949Y560001D01*
X246841Y560034D01*
X246731Y560064D01*
X246621Y560089D01*
X246510Y560111D01*
X246398Y560128D01*
X246285Y560142D01*
X246172Y560152D01*
X246059Y560158D01*
X245946Y560160D01*
X246596Y565352D02*
X242701Y565352D01*
X246596Y565352D02*
X246697Y565350D01*
X246797Y565344D01*
X246897Y565334D01*
X246997Y565321D01*
X247096Y565303D01*
X247195Y565282D01*
X247292Y565257D01*
X247389Y565228D01*
X247484Y565195D01*
X247578Y565159D01*
X247670Y565119D01*
X247761Y565076D01*
X247850Y565029D01*
X247937Y564979D01*
X248023Y564925D01*
X248106Y564868D01*
X248186Y564808D01*
X248265Y564745D01*
X248341Y564678D01*
X248414Y564609D01*
X248484Y564537D01*
X248552Y564463D01*
X248617Y564386D01*
X248678Y564306D01*
X248737Y564224D01*
X248792Y564140D01*
X248844Y564054D01*
X248893Y563966D01*
X248938Y563876D01*
X248980Y563784D01*
X249018Y563691D01*
X249052Y563596D01*
X249083Y563501D01*
X249110Y563404D01*
X249133Y563306D01*
X249153Y563207D01*
X249168Y563107D01*
X249180Y563007D01*
X249188Y562907D01*
X249192Y562806D01*
X249192Y562706D01*
X249188Y562605D01*
X249180Y562505D01*
X249168Y562405D01*
X249153Y562305D01*
X249133Y562206D01*
X249110Y562108D01*
X249083Y562011D01*
X249052Y561916D01*
X249018Y561821D01*
X248980Y561728D01*
X248938Y561636D01*
X248893Y561546D01*
X248844Y561458D01*
X248792Y561372D01*
X248737Y561288D01*
X248678Y561206D01*
X248617Y561126D01*
X248552Y561049D01*
X248484Y560975D01*
X248414Y560903D01*
X248341Y560834D01*
X248265Y560767D01*
X248186Y560704D01*
X248106Y560644D01*
X248023Y560587D01*
X247937Y560533D01*
X247850Y560483D01*
X247761Y560436D01*
X247670Y560393D01*
X247578Y560353D01*
X247484Y560317D01*
X247389Y560284D01*
X247292Y560255D01*
X247195Y560230D01*
X247096Y560209D01*
X246997Y560191D01*
X246897Y560178D01*
X246797Y560168D01*
X246697Y560162D01*
X246596Y560160D01*
X246596Y560159D02*
X243999Y560159D01*
X248297Y520352D02*
X245701Y511264D01*
X252192Y511264D01*
X250245Y513861D02*
X250245Y508668D01*
D10*
X229700Y568860D02*
X303700Y568860D01*
X303700Y527860D01*
X229700Y527860D02*
X229700Y568860D01*
X281700Y568860D02*
X281700Y626860D01*
X251700Y626860D01*
X251700Y568860D01*
D17*
X311200Y505860D02*
X311202Y505904D01*
X311208Y505948D01*
X311218Y505991D01*
X311231Y506033D01*
X311248Y506074D01*
X311269Y506113D01*
X311293Y506150D01*
X311320Y506185D01*
X311350Y506217D01*
X311383Y506247D01*
X311419Y506273D01*
X311456Y506297D01*
X311496Y506316D01*
X311537Y506333D01*
X311580Y506345D01*
X311623Y506354D01*
X311667Y506359D01*
X311711Y506360D01*
X311755Y506357D01*
X311799Y506350D01*
X311842Y506339D01*
X311884Y506325D01*
X311924Y506307D01*
X311963Y506285D01*
X311999Y506261D01*
X312033Y506233D01*
X312065Y506202D01*
X312094Y506168D01*
X312120Y506132D01*
X312142Y506094D01*
X312161Y506054D01*
X312176Y506012D01*
X312188Y505970D01*
X312196Y505926D01*
X312200Y505882D01*
X312200Y505838D01*
X312196Y505794D01*
X312188Y505750D01*
X312176Y505708D01*
X312161Y505666D01*
X312142Y505626D01*
X312120Y505588D01*
X312094Y505552D01*
X312065Y505518D01*
X312033Y505487D01*
X311999Y505459D01*
X311963Y505435D01*
X311924Y505413D01*
X311884Y505395D01*
X311842Y505381D01*
X311799Y505370D01*
X311755Y505363D01*
X311711Y505360D01*
X311667Y505361D01*
X311623Y505366D01*
X311580Y505375D01*
X311537Y505387D01*
X311496Y505404D01*
X311456Y505423D01*
X311419Y505447D01*
X311383Y505473D01*
X311350Y505503D01*
X311320Y505535D01*
X311293Y505570D01*
X311269Y505607D01*
X311248Y505646D01*
X311231Y505687D01*
X311218Y505729D01*
X311208Y505772D01*
X311202Y505816D01*
X311200Y505860D01*
D10*
X157650Y477960D02*
X83650Y477960D01*
X83650Y543460D01*
X157650Y543460D02*
X157650Y477960D01*
D11*
X135896Y494952D02*
X132651Y492356D01*
X135896Y494952D02*
X135896Y483268D01*
X132651Y483268D02*
X139142Y483268D01*
X147142Y537031D02*
X147140Y537138D01*
X147134Y537244D01*
X147124Y537350D01*
X147111Y537456D01*
X147093Y537562D01*
X147072Y537666D01*
X147047Y537770D01*
X147018Y537873D01*
X146986Y537974D01*
X146949Y538074D01*
X146909Y538173D01*
X146866Y538271D01*
X146819Y538367D01*
X146768Y538461D01*
X146714Y538553D01*
X146657Y538643D01*
X146597Y538731D01*
X146533Y538816D01*
X146466Y538899D01*
X146396Y538980D01*
X146324Y539058D01*
X146248Y539134D01*
X146170Y539206D01*
X146089Y539276D01*
X146006Y539343D01*
X145921Y539407D01*
X145833Y539467D01*
X145743Y539524D01*
X145651Y539578D01*
X145557Y539629D01*
X145461Y539676D01*
X145363Y539719D01*
X145264Y539759D01*
X145164Y539796D01*
X145063Y539828D01*
X144960Y539857D01*
X144856Y539882D01*
X144752Y539903D01*
X144646Y539921D01*
X144540Y539934D01*
X144434Y539944D01*
X144328Y539950D01*
X144221Y539952D01*
X144100Y539950D01*
X143979Y539944D01*
X143859Y539934D01*
X143738Y539921D01*
X143619Y539903D01*
X143499Y539882D01*
X143381Y539857D01*
X143264Y539828D01*
X143147Y539795D01*
X143032Y539759D01*
X142918Y539718D01*
X142805Y539675D01*
X142693Y539627D01*
X142584Y539576D01*
X142476Y539521D01*
X142369Y539463D01*
X142265Y539402D01*
X142163Y539337D01*
X142063Y539269D01*
X141965Y539198D01*
X141869Y539124D01*
X141776Y539047D01*
X141686Y538966D01*
X141598Y538883D01*
X141513Y538797D01*
X141430Y538708D01*
X141351Y538617D01*
X141274Y538523D01*
X141201Y538427D01*
X141131Y538329D01*
X141064Y538228D01*
X141000Y538125D01*
X140940Y538020D01*
X140883Y537913D01*
X140829Y537805D01*
X140779Y537695D01*
X140733Y537583D01*
X140690Y537470D01*
X140651Y537355D01*
X146169Y534759D02*
X146248Y534836D01*
X146324Y534917D01*
X146397Y535000D01*
X146467Y535085D01*
X146534Y535173D01*
X146598Y535263D01*
X146658Y535355D01*
X146715Y535450D01*
X146769Y535546D01*
X146820Y535644D01*
X146867Y535744D01*
X146911Y535846D01*
X146951Y535949D01*
X146987Y536053D01*
X147019Y536159D01*
X147048Y536265D01*
X147073Y536373D01*
X147095Y536481D01*
X147112Y536591D01*
X147126Y536700D01*
X147135Y536810D01*
X147141Y536921D01*
X147143Y537031D01*
X146168Y534759D02*
X140651Y528268D01*
X147142Y528268D01*
X99896Y528268D02*
X96651Y528268D01*
X99896Y528268D02*
X100009Y528270D01*
X100122Y528276D01*
X100235Y528286D01*
X100348Y528300D01*
X100460Y528317D01*
X100571Y528339D01*
X100681Y528364D01*
X100791Y528394D01*
X100899Y528427D01*
X101006Y528464D01*
X101112Y528504D01*
X101216Y528549D01*
X101319Y528597D01*
X101420Y528648D01*
X101519Y528703D01*
X101616Y528761D01*
X101711Y528823D01*
X101804Y528888D01*
X101894Y528956D01*
X101982Y529027D01*
X102068Y529102D01*
X102151Y529179D01*
X102231Y529259D01*
X102308Y529342D01*
X102383Y529428D01*
X102454Y529516D01*
X102522Y529606D01*
X102587Y529699D01*
X102649Y529794D01*
X102707Y529891D01*
X102762Y529990D01*
X102813Y530091D01*
X102861Y530194D01*
X102906Y530298D01*
X102946Y530404D01*
X102983Y530511D01*
X103016Y530619D01*
X103046Y530729D01*
X103071Y530839D01*
X103093Y530950D01*
X103110Y531062D01*
X103124Y531175D01*
X103134Y531288D01*
X103140Y531401D01*
X103142Y531514D01*
X103140Y531627D01*
X103134Y531740D01*
X103124Y531853D01*
X103110Y531966D01*
X103093Y532078D01*
X103071Y532189D01*
X103046Y532299D01*
X103016Y532409D01*
X102983Y532517D01*
X102946Y532624D01*
X102906Y532730D01*
X102861Y532834D01*
X102813Y532937D01*
X102762Y533038D01*
X102707Y533137D01*
X102649Y533234D01*
X102587Y533329D01*
X102522Y533422D01*
X102454Y533512D01*
X102383Y533600D01*
X102308Y533686D01*
X102231Y533769D01*
X102151Y533849D01*
X102068Y533926D01*
X101982Y534001D01*
X101894Y534072D01*
X101804Y534140D01*
X101711Y534205D01*
X101616Y534267D01*
X101519Y534325D01*
X101420Y534380D01*
X101319Y534431D01*
X101216Y534479D01*
X101112Y534524D01*
X101006Y534564D01*
X100899Y534601D01*
X100791Y534634D01*
X100681Y534664D01*
X100571Y534689D01*
X100460Y534711D01*
X100348Y534728D01*
X100235Y534742D01*
X100122Y534752D01*
X100009Y534758D01*
X99896Y534760D01*
X100546Y539952D02*
X96651Y539952D01*
X100546Y539952D02*
X100647Y539950D01*
X100747Y539944D01*
X100847Y539934D01*
X100947Y539921D01*
X101046Y539903D01*
X101145Y539882D01*
X101242Y539857D01*
X101339Y539828D01*
X101434Y539795D01*
X101528Y539759D01*
X101620Y539719D01*
X101711Y539676D01*
X101800Y539629D01*
X101887Y539579D01*
X101973Y539525D01*
X102056Y539468D01*
X102136Y539408D01*
X102215Y539345D01*
X102291Y539278D01*
X102364Y539209D01*
X102434Y539137D01*
X102502Y539063D01*
X102567Y538986D01*
X102628Y538906D01*
X102687Y538824D01*
X102742Y538740D01*
X102794Y538654D01*
X102843Y538566D01*
X102888Y538476D01*
X102930Y538384D01*
X102968Y538291D01*
X103002Y538196D01*
X103033Y538101D01*
X103060Y538004D01*
X103083Y537906D01*
X103103Y537807D01*
X103118Y537707D01*
X103130Y537607D01*
X103138Y537507D01*
X103142Y537406D01*
X103142Y537306D01*
X103138Y537205D01*
X103130Y537105D01*
X103118Y537005D01*
X103103Y536905D01*
X103083Y536806D01*
X103060Y536708D01*
X103033Y536611D01*
X103002Y536516D01*
X102968Y536421D01*
X102930Y536328D01*
X102888Y536236D01*
X102843Y536146D01*
X102794Y536058D01*
X102742Y535972D01*
X102687Y535888D01*
X102628Y535806D01*
X102567Y535726D01*
X102502Y535649D01*
X102434Y535575D01*
X102364Y535503D01*
X102291Y535434D01*
X102215Y535367D01*
X102136Y535304D01*
X102056Y535244D01*
X101973Y535187D01*
X101887Y535133D01*
X101800Y535083D01*
X101711Y535036D01*
X101620Y534993D01*
X101528Y534953D01*
X101434Y534917D01*
X101339Y534884D01*
X101242Y534855D01*
X101145Y534830D01*
X101046Y534809D01*
X100947Y534791D01*
X100847Y534778D01*
X100747Y534768D01*
X100647Y534762D01*
X100546Y534760D01*
X100546Y534759D02*
X97949Y534759D01*
X102247Y494952D02*
X99651Y485864D01*
X106142Y485864D01*
X104195Y488461D02*
X104195Y483268D01*
D10*
X83650Y543460D02*
X157650Y543460D01*
X157650Y502460D01*
X83650Y502460D02*
X83650Y543460D01*
X135650Y543460D02*
X135650Y601460D01*
X105650Y601460D01*
X105650Y543460D01*
D17*
X165150Y480460D02*
X165152Y480504D01*
X165158Y480548D01*
X165168Y480591D01*
X165181Y480633D01*
X165198Y480674D01*
X165219Y480713D01*
X165243Y480750D01*
X165270Y480785D01*
X165300Y480817D01*
X165333Y480847D01*
X165369Y480873D01*
X165406Y480897D01*
X165446Y480916D01*
X165487Y480933D01*
X165530Y480945D01*
X165573Y480954D01*
X165617Y480959D01*
X165661Y480960D01*
X165705Y480957D01*
X165749Y480950D01*
X165792Y480939D01*
X165834Y480925D01*
X165874Y480907D01*
X165913Y480885D01*
X165949Y480861D01*
X165983Y480833D01*
X166015Y480802D01*
X166044Y480768D01*
X166070Y480732D01*
X166092Y480694D01*
X166111Y480654D01*
X166126Y480612D01*
X166138Y480570D01*
X166146Y480526D01*
X166150Y480482D01*
X166150Y480438D01*
X166146Y480394D01*
X166138Y480350D01*
X166126Y480308D01*
X166111Y480266D01*
X166092Y480226D01*
X166070Y480188D01*
X166044Y480152D01*
X166015Y480118D01*
X165983Y480087D01*
X165949Y480059D01*
X165913Y480035D01*
X165874Y480013D01*
X165834Y479995D01*
X165792Y479981D01*
X165749Y479970D01*
X165705Y479963D01*
X165661Y479960D01*
X165617Y479961D01*
X165573Y479966D01*
X165530Y479975D01*
X165487Y479987D01*
X165446Y480004D01*
X165406Y480023D01*
X165369Y480047D01*
X165333Y480073D01*
X165300Y480103D01*
X165270Y480135D01*
X165243Y480170D01*
X165219Y480207D01*
X165198Y480246D01*
X165181Y480287D01*
X165168Y480329D01*
X165158Y480372D01*
X165152Y480416D01*
X165150Y480460D01*
D11*
X478790Y389640D02*
X486410Y389640D01*
X486160Y402840D02*
X478790Y402840D01*
D12*
X489772Y396229D03*
X475294Y396229D03*
D10*
X443859Y386715D02*
X441884Y386715D01*
X441798Y386717D01*
X441712Y386723D01*
X441626Y386732D01*
X441541Y386745D01*
X441456Y386762D01*
X441373Y386782D01*
X441290Y386806D01*
X441208Y386834D01*
X441128Y386865D01*
X441049Y386900D01*
X440972Y386938D01*
X440896Y386980D01*
X440822Y387024D01*
X440751Y387072D01*
X440681Y387123D01*
X440614Y387177D01*
X440549Y387234D01*
X440487Y387294D01*
X440427Y387356D01*
X440370Y387421D01*
X440316Y387488D01*
X440265Y387558D01*
X440217Y387629D01*
X440173Y387703D01*
X440131Y387779D01*
X440093Y387856D01*
X440058Y387935D01*
X440027Y388015D01*
X439999Y388097D01*
X439975Y388180D01*
X439955Y388263D01*
X439938Y388348D01*
X439925Y388433D01*
X439916Y388519D01*
X439910Y388605D01*
X439908Y388691D01*
X439908Y393629D01*
X439910Y393718D01*
X439916Y393806D01*
X439926Y393894D01*
X439940Y393982D01*
X439958Y394069D01*
X439979Y394155D01*
X440005Y394240D01*
X440034Y394323D01*
X440067Y394406D01*
X440104Y394486D01*
X440144Y394565D01*
X440188Y394642D01*
X440235Y394718D01*
X440285Y394790D01*
X440339Y394861D01*
X440396Y394929D01*
X440456Y394995D01*
X440518Y395057D01*
X440584Y395117D01*
X440652Y395174D01*
X440723Y395228D01*
X440795Y395278D01*
X440870Y395325D01*
X440948Y395369D01*
X441027Y395409D01*
X441107Y395446D01*
X441190Y395479D01*
X441273Y395508D01*
X441358Y395534D01*
X441444Y395555D01*
X441531Y395573D01*
X441619Y395587D01*
X441707Y395597D01*
X441795Y395603D01*
X441884Y395605D01*
X443859Y395605D01*
X447562Y393629D02*
X450032Y395605D01*
X450032Y386715D01*
X452501Y386715D02*
X447562Y386715D01*
X456706Y386715D02*
X459176Y386715D01*
X459274Y386717D01*
X459372Y386723D01*
X459470Y386733D01*
X459567Y386746D01*
X459664Y386764D01*
X459760Y386785D01*
X459854Y386810D01*
X459948Y386839D01*
X460041Y386871D01*
X460132Y386908D01*
X460222Y386947D01*
X460310Y386991D01*
X460396Y387038D01*
X460481Y387088D01*
X460563Y387141D01*
X460643Y387198D01*
X460721Y387258D01*
X460796Y387321D01*
X460869Y387387D01*
X460939Y387456D01*
X461006Y387527D01*
X461071Y387601D01*
X461132Y387678D01*
X461191Y387757D01*
X461246Y387838D01*
X461298Y387921D01*
X461346Y388007D01*
X461391Y388094D01*
X461433Y388183D01*
X461471Y388273D01*
X461505Y388365D01*
X461536Y388458D01*
X461563Y388553D01*
X461586Y388648D01*
X461606Y388745D01*
X461621Y388841D01*
X461633Y388939D01*
X461641Y389037D01*
X461645Y389135D01*
X461645Y389233D01*
X461641Y389331D01*
X461633Y389429D01*
X461621Y389527D01*
X461606Y389623D01*
X461586Y389720D01*
X461563Y389815D01*
X461536Y389910D01*
X461505Y390003D01*
X461471Y390095D01*
X461433Y390185D01*
X461391Y390274D01*
X461346Y390361D01*
X461298Y390447D01*
X461246Y390530D01*
X461191Y390611D01*
X461132Y390690D01*
X461071Y390767D01*
X461006Y390841D01*
X460939Y390912D01*
X460869Y390981D01*
X460796Y391047D01*
X460721Y391110D01*
X460643Y391170D01*
X460563Y391227D01*
X460481Y391280D01*
X460396Y391330D01*
X460310Y391377D01*
X460222Y391421D01*
X460132Y391460D01*
X460041Y391497D01*
X459948Y391529D01*
X459854Y391558D01*
X459760Y391583D01*
X459664Y391604D01*
X459567Y391622D01*
X459470Y391635D01*
X459372Y391645D01*
X459274Y391651D01*
X459176Y391653D01*
X459669Y395605D02*
X456706Y395605D01*
X459669Y395605D02*
X459756Y395603D01*
X459844Y395597D01*
X459931Y395588D01*
X460017Y395574D01*
X460103Y395557D01*
X460187Y395536D01*
X460271Y395511D01*
X460354Y395482D01*
X460435Y395450D01*
X460515Y395415D01*
X460593Y395376D01*
X460670Y395333D01*
X460744Y395287D01*
X460816Y395238D01*
X460886Y395186D01*
X460954Y395130D01*
X461019Y395072D01*
X461082Y395011D01*
X461141Y394947D01*
X461198Y394880D01*
X461252Y394812D01*
X461303Y394740D01*
X461350Y394667D01*
X461395Y394592D01*
X461436Y394514D01*
X461473Y394435D01*
X461507Y394355D01*
X461537Y394273D01*
X461564Y394190D01*
X461587Y394105D01*
X461606Y394020D01*
X461621Y393934D01*
X461633Y393847D01*
X461641Y393760D01*
X461645Y393673D01*
X461645Y393585D01*
X461641Y393498D01*
X461633Y393411D01*
X461621Y393324D01*
X461606Y393238D01*
X461587Y393153D01*
X461564Y393068D01*
X461537Y392985D01*
X461507Y392903D01*
X461473Y392823D01*
X461436Y392744D01*
X461395Y392666D01*
X461350Y392591D01*
X461303Y392518D01*
X461252Y392446D01*
X461198Y392378D01*
X461141Y392311D01*
X461082Y392247D01*
X461019Y392186D01*
X460954Y392128D01*
X460886Y392072D01*
X460816Y392020D01*
X460744Y391971D01*
X460670Y391925D01*
X460593Y391882D01*
X460515Y391843D01*
X460435Y391808D01*
X460354Y391776D01*
X460271Y391747D01*
X460187Y391722D01*
X460103Y391701D01*
X460017Y391684D01*
X459931Y391670D01*
X459844Y391661D01*
X459756Y391655D01*
X459669Y391653D01*
X459669Y391654D02*
X457694Y391654D01*
D18*
X458200Y317650D02*
X450700Y310150D01*
X458200Y317650D02*
X588200Y317650D01*
X590700Y315150D01*
X590700Y180150D01*
X588200Y177650D01*
X453200Y177650D01*
X450700Y180150D01*
X450700Y310150D01*
D19*
X532090Y251860D02*
X532160Y251858D01*
X532230Y251852D01*
X532299Y251843D01*
X532368Y251829D01*
X532436Y251812D01*
X532502Y251791D01*
X532568Y251767D01*
X532632Y251739D01*
X532694Y251707D01*
X532755Y251672D01*
X532814Y251634D01*
X532870Y251592D01*
X532924Y251548D01*
X532976Y251500D01*
X533024Y251450D01*
X533070Y251397D01*
X533113Y251342D01*
X533153Y251285D01*
X533190Y251225D01*
X533223Y251163D01*
X533253Y251100D01*
X533279Y251035D01*
X533302Y250969D01*
X533321Y250902D01*
X533336Y250833D01*
X533348Y250764D01*
X533356Y250695D01*
X533360Y250625D01*
X533360Y250555D01*
X533356Y250485D01*
X533348Y250416D01*
X533336Y250347D01*
X533321Y250278D01*
X533302Y250211D01*
X533279Y250145D01*
X533253Y250080D01*
X533223Y250017D01*
X533190Y249955D01*
X533153Y249895D01*
X533113Y249838D01*
X533070Y249783D01*
X533024Y249730D01*
X532976Y249680D01*
X532924Y249632D01*
X532870Y249588D01*
X532814Y249546D01*
X532755Y249508D01*
X532694Y249473D01*
X532632Y249441D01*
X532568Y249413D01*
X532502Y249389D01*
X532436Y249368D01*
X532368Y249351D01*
X532299Y249337D01*
X532230Y249328D01*
X532160Y249322D01*
X532090Y249320D01*
X531450Y246780D02*
X531519Y246778D01*
X531587Y246773D01*
X531655Y246763D01*
X531723Y246750D01*
X531790Y246734D01*
X531856Y246714D01*
X531920Y246690D01*
X531983Y246663D01*
X532045Y246632D01*
X532105Y246598D01*
X532163Y246561D01*
X532219Y246521D01*
X532272Y246478D01*
X532323Y246432D01*
X532372Y246383D01*
X532418Y246332D01*
X532461Y246279D01*
X532501Y246223D01*
X532538Y246165D01*
X532572Y246105D01*
X532603Y246043D01*
X532630Y245980D01*
X532654Y245916D01*
X532674Y245850D01*
X532690Y245783D01*
X532703Y245715D01*
X532713Y245647D01*
X532718Y245579D01*
X532720Y245510D01*
X534628Y247411D02*
X534727Y247483D01*
X534823Y247559D01*
X534917Y247637D01*
X535008Y247718D01*
X535097Y247803D01*
X535183Y247889D01*
X535266Y247979D01*
X535347Y248071D01*
X535424Y248166D01*
X535498Y248263D01*
X535570Y248362D01*
X535638Y248464D01*
X535702Y248568D01*
X535764Y248673D01*
X535822Y248781D01*
X535877Y248890D01*
X535928Y249002D01*
X535975Y249114D01*
X536019Y249228D01*
X536060Y249344D01*
X536096Y249460D01*
X536129Y249578D01*
X536159Y249697D01*
X536184Y249817D01*
X536206Y249937D01*
X536223Y250058D01*
X536237Y250179D01*
X536247Y250301D01*
X536254Y250424D01*
X536256Y250546D01*
X536254Y250668D01*
X536249Y250790D01*
X536240Y250912D01*
X536227Y251034D01*
X536210Y251155D01*
X536189Y251275D01*
X536164Y251395D01*
X536136Y251514D01*
X536103Y251632D01*
X536067Y251749D01*
X536028Y251865D01*
X535984Y251979D01*
X535938Y252092D01*
X535887Y252203D01*
X535833Y252313D01*
X535776Y252421D01*
X535715Y252527D01*
X535651Y252631D01*
X535583Y252734D01*
X535513Y252833D01*
X535439Y252931D01*
X535362Y253026D01*
X535283Y253119D01*
X535200Y253209D01*
X535114Y253296D01*
X535026Y253381D01*
X534935Y253463D01*
X534842Y253542D01*
X534746Y253618D01*
X534648Y253691D01*
X534547Y253760D01*
X534445Y253827D01*
X534340Y253890D01*
X534233Y253950D01*
X534125Y254006D01*
X534014Y254059D01*
X533903Y254109D01*
X533789Y254154D01*
X533674Y254197D01*
X533558Y254235D01*
X533441Y254270D01*
X533323Y254301D01*
X533204Y254329D01*
X533084Y254352D01*
X532963Y254372D01*
X532842Y254388D01*
X532720Y254400D01*
X534629Y247416D02*
X534713Y247375D01*
X534794Y247331D01*
X534874Y247284D01*
X534952Y247233D01*
X535028Y247179D01*
X535102Y247122D01*
X535173Y247063D01*
X535242Y247000D01*
X535308Y246935D01*
X535371Y246866D01*
X535431Y246796D01*
X535489Y246723D01*
X535543Y246647D01*
X535595Y246570D01*
X535643Y246490D01*
X535688Y246409D01*
X535729Y246326D01*
X535767Y246241D01*
X535802Y246155D01*
X535833Y246067D01*
X535860Y245978D01*
X535884Y245888D01*
X535904Y245797D01*
X535920Y245706D01*
X535933Y245614D01*
X535942Y245521D01*
X535947Y245428D01*
X535948Y245335D01*
X535945Y245242D01*
X535939Y245150D01*
X535929Y245057D01*
X535915Y244965D01*
X535897Y244874D01*
X501610Y254400D02*
X496530Y241060D01*
X501610Y254400D02*
X504150Y254400D01*
X508590Y243600D01*
X508590Y254400D01*
X511130Y254400D01*
X511130Y251860D01*
X511130Y243600D01*
X515580Y243600D01*
X515580Y251860D01*
X511130Y251860D01*
X511130Y254400D02*
X521930Y254400D01*
X521930Y251860D01*
X518120Y251860D01*
X518120Y241060D01*
X506690Y241060D01*
X505420Y243600D01*
X500340Y243600D01*
X499070Y241060D01*
X496530Y241060D01*
X500970Y246140D02*
X502880Y251860D01*
X504780Y246140D02*
X500970Y246140D01*
X504780Y246140D02*
X502880Y251860D01*
X521930Y251860D02*
X521930Y249320D01*
X527010Y249320D01*
X527010Y251860D01*
X521930Y251860D01*
X521930Y254400D02*
X532720Y254400D01*
X542250Y254400D02*
X547330Y241060D01*
X542250Y254400D02*
X539710Y254400D01*
X535900Y245510D01*
X537170Y241060D02*
X532720Y241060D01*
X537170Y241060D02*
X538440Y243600D01*
X543520Y243600D01*
X544790Y241060D01*
X547330Y241060D01*
X542880Y246140D02*
X540980Y251860D01*
X542880Y246140D02*
X539070Y246140D01*
X540980Y251860D01*
X532090Y251860D02*
X530180Y251860D01*
X530180Y249320D01*
X532090Y249320D01*
X531450Y246780D02*
X530180Y246780D01*
X530180Y241060D01*
X518750Y241060D01*
X521930Y246780D02*
X527010Y246780D01*
X527010Y244240D01*
X521930Y244240D01*
X521930Y246780D01*
X532720Y245510D02*
X532720Y241060D01*
D18*
X458201Y307650D02*
X458203Y307749D01*
X458209Y307849D01*
X458219Y307947D01*
X458233Y308046D01*
X458250Y308144D01*
X458272Y308241D01*
X458297Y308337D01*
X458326Y308432D01*
X458359Y308525D01*
X458396Y308618D01*
X458436Y308709D01*
X458480Y308798D01*
X458528Y308885D01*
X458578Y308971D01*
X458633Y309054D01*
X458690Y309135D01*
X458751Y309214D01*
X458814Y309290D01*
X458881Y309364D01*
X458951Y309435D01*
X459023Y309503D01*
X459098Y309568D01*
X459175Y309630D01*
X459255Y309689D01*
X459338Y309745D01*
X459422Y309797D01*
X459508Y309847D01*
X459597Y309892D01*
X459687Y309934D01*
X459778Y309973D01*
X459871Y310008D01*
X459966Y310039D01*
X460061Y310066D01*
X460158Y310089D01*
X460255Y310109D01*
X460353Y310125D01*
X460452Y310137D01*
X460551Y310145D01*
X460650Y310149D01*
X460750Y310149D01*
X460849Y310145D01*
X460948Y310137D01*
X461047Y310125D01*
X461145Y310109D01*
X461242Y310089D01*
X461339Y310066D01*
X461434Y310039D01*
X461529Y310008D01*
X461622Y309973D01*
X461713Y309934D01*
X461803Y309892D01*
X461892Y309847D01*
X461978Y309797D01*
X462062Y309745D01*
X462145Y309689D01*
X462225Y309630D01*
X462302Y309568D01*
X462377Y309503D01*
X462449Y309435D01*
X462519Y309364D01*
X462586Y309290D01*
X462649Y309214D01*
X462710Y309135D01*
X462767Y309054D01*
X462822Y308971D01*
X462872Y308885D01*
X462920Y308798D01*
X462964Y308709D01*
X463004Y308618D01*
X463041Y308525D01*
X463074Y308432D01*
X463103Y308337D01*
X463128Y308241D01*
X463150Y308144D01*
X463167Y308046D01*
X463181Y307947D01*
X463191Y307849D01*
X463197Y307749D01*
X463199Y307650D01*
X463197Y307551D01*
X463191Y307451D01*
X463181Y307353D01*
X463167Y307254D01*
X463150Y307156D01*
X463128Y307059D01*
X463103Y306963D01*
X463074Y306868D01*
X463041Y306775D01*
X463004Y306682D01*
X462964Y306591D01*
X462920Y306502D01*
X462872Y306415D01*
X462822Y306329D01*
X462767Y306246D01*
X462710Y306165D01*
X462649Y306086D01*
X462586Y306010D01*
X462519Y305936D01*
X462449Y305865D01*
X462377Y305797D01*
X462302Y305732D01*
X462225Y305670D01*
X462145Y305611D01*
X462062Y305555D01*
X461978Y305503D01*
X461892Y305453D01*
X461803Y305408D01*
X461713Y305366D01*
X461622Y305327D01*
X461529Y305292D01*
X461434Y305261D01*
X461339Y305234D01*
X461242Y305211D01*
X461145Y305191D01*
X461047Y305175D01*
X460948Y305163D01*
X460849Y305155D01*
X460750Y305151D01*
X460650Y305151D01*
X460551Y305155D01*
X460452Y305163D01*
X460353Y305175D01*
X460255Y305191D01*
X460158Y305211D01*
X460061Y305234D01*
X459966Y305261D01*
X459871Y305292D01*
X459778Y305327D01*
X459687Y305366D01*
X459597Y305408D01*
X459508Y305453D01*
X459422Y305503D01*
X459338Y305555D01*
X459255Y305611D01*
X459175Y305670D01*
X459098Y305732D01*
X459023Y305797D01*
X458951Y305865D01*
X458881Y305936D01*
X458814Y306010D01*
X458751Y306086D01*
X458690Y306165D01*
X458633Y306246D01*
X458578Y306329D01*
X458528Y306415D01*
X458480Y306502D01*
X458436Y306591D01*
X458396Y306682D01*
X458359Y306775D01*
X458326Y306868D01*
X458297Y306963D01*
X458272Y307059D01*
X458250Y307156D01*
X458233Y307254D01*
X458219Y307353D01*
X458209Y307451D01*
X458203Y307551D01*
X458201Y307650D01*
D20*
X495027Y230596D02*
X495027Y223230D01*
X492981Y230596D02*
X497073Y230596D01*
X500272Y228550D02*
X500272Y225276D01*
X500272Y228550D02*
X500274Y228639D01*
X500280Y228728D01*
X500290Y228817D01*
X500303Y228905D01*
X500320Y228993D01*
X500342Y229080D01*
X500367Y229165D01*
X500395Y229250D01*
X500428Y229333D01*
X500464Y229415D01*
X500503Y229495D01*
X500546Y229573D01*
X500592Y229649D01*
X500642Y229724D01*
X500695Y229796D01*
X500751Y229865D01*
X500810Y229932D01*
X500871Y229997D01*
X500936Y230058D01*
X501003Y230117D01*
X501072Y230173D01*
X501144Y230226D01*
X501219Y230276D01*
X501295Y230322D01*
X501373Y230365D01*
X501453Y230404D01*
X501535Y230440D01*
X501618Y230473D01*
X501703Y230501D01*
X501788Y230526D01*
X501875Y230548D01*
X501963Y230565D01*
X502051Y230578D01*
X502140Y230588D01*
X502229Y230594D01*
X502318Y230596D01*
X502407Y230594D01*
X502496Y230588D01*
X502585Y230578D01*
X502673Y230565D01*
X502761Y230548D01*
X502848Y230526D01*
X502933Y230501D01*
X503018Y230473D01*
X503101Y230440D01*
X503183Y230404D01*
X503263Y230365D01*
X503341Y230322D01*
X503417Y230276D01*
X503492Y230226D01*
X503564Y230173D01*
X503633Y230117D01*
X503700Y230058D01*
X503765Y229997D01*
X503826Y229932D01*
X503885Y229865D01*
X503941Y229796D01*
X503994Y229724D01*
X504044Y229649D01*
X504090Y229573D01*
X504133Y229495D01*
X504172Y229415D01*
X504208Y229333D01*
X504241Y229250D01*
X504269Y229165D01*
X504294Y229080D01*
X504316Y228993D01*
X504333Y228905D01*
X504346Y228817D01*
X504356Y228728D01*
X504362Y228639D01*
X504364Y228550D01*
X504364Y225276D01*
X504362Y225187D01*
X504356Y225098D01*
X504346Y225009D01*
X504333Y224921D01*
X504316Y224833D01*
X504294Y224746D01*
X504269Y224661D01*
X504241Y224576D01*
X504208Y224493D01*
X504172Y224411D01*
X504133Y224331D01*
X504090Y224253D01*
X504044Y224177D01*
X503994Y224102D01*
X503941Y224030D01*
X503885Y223961D01*
X503826Y223894D01*
X503765Y223829D01*
X503700Y223768D01*
X503633Y223709D01*
X503564Y223653D01*
X503492Y223600D01*
X503417Y223550D01*
X503341Y223504D01*
X503263Y223461D01*
X503183Y223422D01*
X503101Y223386D01*
X503018Y223353D01*
X502933Y223325D01*
X502848Y223300D01*
X502761Y223278D01*
X502673Y223261D01*
X502585Y223248D01*
X502496Y223238D01*
X502407Y223232D01*
X502318Y223230D01*
X502229Y223232D01*
X502140Y223238D01*
X502051Y223248D01*
X501963Y223261D01*
X501875Y223278D01*
X501788Y223300D01*
X501703Y223325D01*
X501618Y223353D01*
X501535Y223386D01*
X501453Y223422D01*
X501373Y223461D01*
X501295Y223504D01*
X501219Y223550D01*
X501144Y223600D01*
X501072Y223653D01*
X501003Y223709D01*
X500936Y223768D01*
X500871Y223829D01*
X500810Y223894D01*
X500751Y223961D01*
X500695Y224030D01*
X500642Y224102D01*
X500592Y224177D01*
X500546Y224253D01*
X500503Y224331D01*
X500464Y224411D01*
X500428Y224493D01*
X500395Y224576D01*
X500367Y224661D01*
X500342Y224746D01*
X500320Y224833D01*
X500303Y224921D01*
X500290Y225009D01*
X500280Y225098D01*
X500274Y225187D01*
X500272Y225276D01*
X503546Y224867D02*
X505183Y223230D01*
X507627Y223230D02*
X507627Y230596D01*
X510901Y230596D01*
X510901Y227322D02*
X507627Y227322D01*
X514069Y230596D02*
X514069Y223230D01*
X514069Y230596D02*
X516115Y230596D01*
X516204Y230594D01*
X516293Y230588D01*
X516382Y230578D01*
X516470Y230565D01*
X516558Y230548D01*
X516645Y230526D01*
X516730Y230501D01*
X516815Y230473D01*
X516898Y230440D01*
X516980Y230404D01*
X517060Y230365D01*
X517138Y230322D01*
X517214Y230276D01*
X517289Y230226D01*
X517361Y230173D01*
X517430Y230117D01*
X517497Y230058D01*
X517562Y229997D01*
X517623Y229932D01*
X517682Y229865D01*
X517738Y229796D01*
X517791Y229724D01*
X517841Y229649D01*
X517887Y229573D01*
X517930Y229495D01*
X517969Y229415D01*
X518005Y229333D01*
X518038Y229250D01*
X518066Y229165D01*
X518091Y229080D01*
X518113Y228993D01*
X518130Y228905D01*
X518143Y228817D01*
X518153Y228728D01*
X518159Y228639D01*
X518161Y228550D01*
X518159Y228461D01*
X518153Y228372D01*
X518143Y228283D01*
X518130Y228195D01*
X518113Y228107D01*
X518091Y228020D01*
X518066Y227935D01*
X518038Y227850D01*
X518005Y227767D01*
X517969Y227685D01*
X517930Y227605D01*
X517887Y227527D01*
X517841Y227451D01*
X517791Y227376D01*
X517738Y227304D01*
X517682Y227235D01*
X517623Y227168D01*
X517562Y227103D01*
X517497Y227042D01*
X517430Y226983D01*
X517361Y226927D01*
X517289Y226874D01*
X517214Y226824D01*
X517138Y226778D01*
X517060Y226735D01*
X516980Y226696D01*
X516898Y226660D01*
X516815Y226627D01*
X516730Y226599D01*
X516645Y226574D01*
X516558Y226552D01*
X516470Y226535D01*
X516382Y226522D01*
X516293Y226512D01*
X516204Y226506D01*
X516115Y226504D01*
X514069Y226504D01*
X524924Y228959D02*
X526970Y230596D01*
X526970Y223230D01*
X524924Y223230D02*
X529016Y223230D01*
X532239Y226913D02*
X532241Y227066D01*
X532247Y227219D01*
X532256Y227371D01*
X532270Y227524D01*
X532287Y227676D01*
X532308Y227827D01*
X532333Y227978D01*
X532362Y228128D01*
X532394Y228278D01*
X532431Y228426D01*
X532471Y228574D01*
X532514Y228721D01*
X532562Y228866D01*
X532613Y229010D01*
X532667Y229153D01*
X532726Y229295D01*
X532787Y229434D01*
X532853Y229573D01*
X532879Y229643D01*
X532909Y229713D01*
X532942Y229780D01*
X532978Y229846D01*
X533017Y229910D01*
X533060Y229972D01*
X533106Y230031D01*
X533154Y230089D01*
X533205Y230143D01*
X533259Y230196D01*
X533316Y230245D01*
X533375Y230292D01*
X533436Y230335D01*
X533499Y230376D01*
X533564Y230413D01*
X533631Y230448D01*
X533700Y230478D01*
X533770Y230506D01*
X533841Y230529D01*
X533913Y230550D01*
X533986Y230566D01*
X534060Y230579D01*
X534135Y230589D01*
X534210Y230594D01*
X534285Y230596D01*
X534360Y230594D01*
X534435Y230589D01*
X534510Y230579D01*
X534584Y230566D01*
X534657Y230550D01*
X534729Y230529D01*
X534800Y230506D01*
X534870Y230478D01*
X534939Y230448D01*
X535006Y230413D01*
X535071Y230376D01*
X535134Y230335D01*
X535195Y230292D01*
X535254Y230245D01*
X535311Y230196D01*
X535365Y230143D01*
X535416Y230089D01*
X535465Y230031D01*
X535510Y229972D01*
X535553Y229910D01*
X535592Y229846D01*
X535629Y229780D01*
X535661Y229712D01*
X535691Y229643D01*
X535717Y229573D01*
X535782Y229435D01*
X535844Y229295D01*
X535902Y229153D01*
X535957Y229010D01*
X536008Y228866D01*
X536056Y228721D01*
X536099Y228574D01*
X536139Y228427D01*
X536176Y228278D01*
X536208Y228128D01*
X536237Y227978D01*
X536262Y227827D01*
X536283Y227676D01*
X536300Y227524D01*
X536314Y227371D01*
X536323Y227219D01*
X536329Y227066D01*
X536331Y226913D01*
X532239Y226913D02*
X532241Y226760D01*
X532247Y226607D01*
X532256Y226454D01*
X532270Y226302D01*
X532287Y226150D01*
X532308Y225999D01*
X532333Y225848D01*
X532362Y225697D01*
X532394Y225548D01*
X532431Y225399D01*
X532471Y225252D01*
X532514Y225105D01*
X532562Y224960D01*
X532613Y224815D01*
X532668Y224673D01*
X532726Y224531D01*
X532788Y224391D01*
X532853Y224253D01*
X532879Y224182D01*
X532909Y224113D01*
X532942Y224046D01*
X532978Y223980D01*
X533017Y223916D01*
X533060Y223854D01*
X533106Y223795D01*
X533154Y223737D01*
X533205Y223683D01*
X533259Y223630D01*
X533316Y223581D01*
X533375Y223534D01*
X533436Y223491D01*
X533499Y223450D01*
X533564Y223413D01*
X533631Y223378D01*
X533700Y223348D01*
X533770Y223320D01*
X533841Y223297D01*
X533913Y223276D01*
X533986Y223260D01*
X534060Y223247D01*
X534135Y223237D01*
X534210Y223232D01*
X534285Y223230D01*
X535717Y224253D02*
X535782Y224391D01*
X535844Y224531D01*
X535902Y224673D01*
X535957Y224816D01*
X536008Y224960D01*
X536056Y225105D01*
X536099Y225252D01*
X536139Y225400D01*
X536176Y225548D01*
X536208Y225698D01*
X536237Y225848D01*
X536262Y225999D01*
X536283Y226150D01*
X536300Y226302D01*
X536314Y226455D01*
X536323Y226607D01*
X536329Y226760D01*
X536331Y226913D01*
X535717Y224253D02*
X535691Y224183D01*
X535661Y224113D01*
X535629Y224046D01*
X535592Y223980D01*
X535553Y223916D01*
X535510Y223854D01*
X535464Y223795D01*
X535416Y223737D01*
X535365Y223683D01*
X535311Y223630D01*
X535254Y223581D01*
X535195Y223534D01*
X535134Y223491D01*
X535071Y223450D01*
X535006Y223413D01*
X534939Y223378D01*
X534870Y223348D01*
X534800Y223320D01*
X534729Y223297D01*
X534657Y223276D01*
X534584Y223260D01*
X534510Y223247D01*
X534435Y223237D01*
X534360Y223232D01*
X534285Y223230D01*
X532648Y224867D02*
X535922Y228959D01*
X539555Y226913D02*
X539557Y227066D01*
X539563Y227219D01*
X539572Y227371D01*
X539586Y227524D01*
X539603Y227676D01*
X539624Y227827D01*
X539649Y227978D01*
X539678Y228128D01*
X539710Y228278D01*
X539747Y228426D01*
X539787Y228574D01*
X539830Y228721D01*
X539878Y228866D01*
X539929Y229010D01*
X539983Y229153D01*
X540042Y229295D01*
X540103Y229434D01*
X540169Y229573D01*
X540195Y229643D01*
X540225Y229713D01*
X540258Y229780D01*
X540294Y229846D01*
X540333Y229910D01*
X540376Y229972D01*
X540422Y230031D01*
X540470Y230089D01*
X540521Y230143D01*
X540575Y230196D01*
X540632Y230245D01*
X540691Y230292D01*
X540752Y230335D01*
X540815Y230376D01*
X540880Y230413D01*
X540947Y230448D01*
X541016Y230478D01*
X541086Y230506D01*
X541157Y230529D01*
X541229Y230550D01*
X541302Y230566D01*
X541376Y230579D01*
X541451Y230589D01*
X541526Y230594D01*
X541601Y230596D01*
X541676Y230594D01*
X541751Y230589D01*
X541826Y230579D01*
X541900Y230566D01*
X541973Y230550D01*
X542045Y230529D01*
X542116Y230506D01*
X542186Y230478D01*
X542255Y230448D01*
X542322Y230413D01*
X542387Y230376D01*
X542450Y230335D01*
X542511Y230292D01*
X542570Y230245D01*
X542627Y230196D01*
X542681Y230143D01*
X542732Y230089D01*
X542781Y230031D01*
X542826Y229972D01*
X542869Y229910D01*
X542908Y229846D01*
X542945Y229780D01*
X542977Y229712D01*
X543007Y229643D01*
X543033Y229573D01*
X543098Y229435D01*
X543160Y229295D01*
X543218Y229153D01*
X543273Y229010D01*
X543324Y228866D01*
X543372Y228721D01*
X543415Y228574D01*
X543455Y228427D01*
X543492Y228278D01*
X543524Y228128D01*
X543553Y227978D01*
X543578Y227827D01*
X543599Y227676D01*
X543616Y227524D01*
X543630Y227371D01*
X543639Y227219D01*
X543645Y227066D01*
X543647Y226913D01*
X539554Y226913D02*
X539556Y226760D01*
X539562Y226607D01*
X539571Y226454D01*
X539585Y226302D01*
X539602Y226150D01*
X539623Y225999D01*
X539648Y225848D01*
X539677Y225697D01*
X539709Y225548D01*
X539746Y225399D01*
X539786Y225252D01*
X539829Y225105D01*
X539877Y224960D01*
X539928Y224815D01*
X539983Y224673D01*
X540041Y224531D01*
X540103Y224391D01*
X540168Y224253D01*
X540169Y224253D02*
X540195Y224182D01*
X540225Y224113D01*
X540258Y224046D01*
X540294Y223980D01*
X540333Y223916D01*
X540376Y223854D01*
X540422Y223795D01*
X540470Y223737D01*
X540521Y223683D01*
X540575Y223630D01*
X540632Y223581D01*
X540691Y223534D01*
X540752Y223491D01*
X540815Y223450D01*
X540880Y223413D01*
X540947Y223378D01*
X541016Y223348D01*
X541086Y223320D01*
X541157Y223297D01*
X541229Y223276D01*
X541302Y223260D01*
X541376Y223247D01*
X541451Y223237D01*
X541526Y223232D01*
X541601Y223230D01*
X543032Y224253D02*
X543097Y224391D01*
X543159Y224531D01*
X543217Y224673D01*
X543272Y224816D01*
X543323Y224960D01*
X543371Y225105D01*
X543414Y225252D01*
X543454Y225400D01*
X543491Y225548D01*
X543523Y225698D01*
X543552Y225848D01*
X543577Y225999D01*
X543598Y226150D01*
X543615Y226302D01*
X543629Y226455D01*
X543638Y226607D01*
X543644Y226760D01*
X543646Y226913D01*
X543033Y224253D02*
X543007Y224183D01*
X542977Y224113D01*
X542945Y224046D01*
X542908Y223980D01*
X542869Y223916D01*
X542826Y223854D01*
X542780Y223795D01*
X542732Y223737D01*
X542681Y223683D01*
X542627Y223630D01*
X542570Y223581D01*
X542511Y223534D01*
X542450Y223491D01*
X542387Y223450D01*
X542322Y223413D01*
X542255Y223378D01*
X542186Y223348D01*
X542116Y223320D01*
X542045Y223297D01*
X541973Y223276D01*
X541900Y223260D01*
X541826Y223247D01*
X541751Y223237D01*
X541676Y223232D01*
X541601Y223230D01*
X539964Y224867D02*
X543237Y228959D01*
D21*
X443950Y307650D03*
D22*
X443950Y302650D03*
D21*
X443950Y297650D03*
D22*
X443950Y292650D03*
D21*
X443950Y287650D03*
D22*
X443950Y282650D03*
D21*
X443950Y277650D03*
D22*
X443950Y272650D03*
D21*
X443950Y267650D03*
D22*
X443950Y262650D03*
D21*
X443950Y257650D03*
D22*
X443950Y252650D03*
D21*
X443950Y247650D03*
D22*
X443950Y242650D03*
D21*
X443950Y237650D03*
D22*
X443950Y232650D03*
D21*
X443950Y227650D03*
D22*
X443950Y222650D03*
D21*
X443950Y217650D03*
D22*
X443950Y212650D03*
D21*
X443950Y207650D03*
D22*
X443950Y202650D03*
D21*
X443950Y197650D03*
D22*
X443950Y192650D03*
D21*
X443950Y187650D03*
D23*
X460700Y170900D03*
D24*
X465700Y170900D03*
D23*
X470700Y170900D03*
D24*
X475700Y170900D03*
D23*
X480700Y170900D03*
D24*
X485700Y170900D03*
D23*
X490700Y170900D03*
D24*
X495700Y170900D03*
D23*
X500700Y170900D03*
D24*
X505700Y170900D03*
D23*
X510700Y170900D03*
D24*
X515700Y170900D03*
D23*
X520700Y170900D03*
D24*
X525700Y170900D03*
D23*
X530700Y170900D03*
D24*
X535700Y170900D03*
D23*
X540700Y170900D03*
D24*
X545700Y170900D03*
D23*
X550700Y170900D03*
D24*
X555700Y170900D03*
D23*
X560700Y170900D03*
D24*
X565700Y170900D03*
D23*
X570700Y170900D03*
D24*
X575700Y170900D03*
D23*
X580700Y170900D03*
D21*
X597450Y187650D03*
D22*
X597450Y192650D03*
D21*
X597450Y197650D03*
D22*
X597450Y202650D03*
D21*
X597450Y207650D03*
D22*
X597450Y212650D03*
D21*
X597450Y217650D03*
D22*
X597450Y222650D03*
D21*
X597450Y227650D03*
D22*
X597450Y232650D03*
D21*
X597450Y237650D03*
D22*
X597450Y242650D03*
D21*
X597450Y247650D03*
D22*
X597450Y252650D03*
D21*
X597450Y257650D03*
D22*
X597450Y262650D03*
D21*
X597450Y267650D03*
D22*
X597450Y272650D03*
D21*
X597450Y277650D03*
D22*
X597450Y282650D03*
D21*
X597450Y287650D03*
D22*
X597450Y292650D03*
D21*
X597450Y297650D03*
D22*
X597450Y302650D03*
D21*
X597450Y307650D03*
D23*
X580700Y324400D03*
D24*
X575700Y324400D03*
D23*
X570700Y324400D03*
D24*
X565700Y324400D03*
D23*
X560700Y324400D03*
D24*
X555700Y324400D03*
D23*
X550700Y324400D03*
D24*
X545700Y324400D03*
D23*
X540700Y324400D03*
D24*
X535700Y324400D03*
D23*
X530700Y324400D03*
D24*
X525700Y324400D03*
D23*
X520700Y324400D03*
D24*
X515700Y324400D03*
D23*
X510700Y324400D03*
D24*
X505700Y324400D03*
D23*
X500700Y324400D03*
D24*
X495700Y324400D03*
D23*
X490700Y324400D03*
D24*
X485700Y324400D03*
D23*
X480700Y324400D03*
D24*
X475700Y324400D03*
D23*
X470700Y324400D03*
D24*
X465700Y324400D03*
D23*
X460700Y324400D03*
D10*
X426670Y321895D02*
X426670Y330785D01*
X425683Y321895D02*
X427658Y321895D01*
X427658Y330785D02*
X425683Y330785D01*
X433458Y321895D02*
X435433Y321895D01*
X433458Y321895D02*
X433372Y321897D01*
X433286Y321903D01*
X433200Y321912D01*
X433115Y321925D01*
X433030Y321942D01*
X432947Y321962D01*
X432864Y321986D01*
X432782Y322014D01*
X432702Y322045D01*
X432623Y322080D01*
X432546Y322118D01*
X432470Y322160D01*
X432396Y322204D01*
X432325Y322252D01*
X432255Y322303D01*
X432188Y322357D01*
X432123Y322414D01*
X432061Y322474D01*
X432001Y322536D01*
X431944Y322601D01*
X431890Y322668D01*
X431839Y322738D01*
X431791Y322809D01*
X431747Y322883D01*
X431705Y322959D01*
X431667Y323036D01*
X431632Y323115D01*
X431601Y323195D01*
X431573Y323277D01*
X431549Y323360D01*
X431529Y323443D01*
X431512Y323528D01*
X431499Y323613D01*
X431490Y323699D01*
X431484Y323785D01*
X431482Y323871D01*
X431482Y328809D01*
X431484Y328898D01*
X431490Y328986D01*
X431500Y329074D01*
X431514Y329162D01*
X431532Y329249D01*
X431553Y329335D01*
X431579Y329420D01*
X431608Y329503D01*
X431641Y329586D01*
X431678Y329666D01*
X431718Y329745D01*
X431762Y329822D01*
X431809Y329898D01*
X431859Y329970D01*
X431913Y330041D01*
X431970Y330109D01*
X432030Y330175D01*
X432092Y330237D01*
X432158Y330297D01*
X432226Y330354D01*
X432297Y330408D01*
X432369Y330458D01*
X432444Y330505D01*
X432522Y330549D01*
X432601Y330589D01*
X432681Y330626D01*
X432764Y330659D01*
X432847Y330688D01*
X432932Y330714D01*
X433018Y330735D01*
X433105Y330753D01*
X433193Y330767D01*
X433281Y330777D01*
X433369Y330783D01*
X433458Y330785D01*
X435433Y330785D01*
X439136Y321895D02*
X441606Y321895D01*
X441704Y321897D01*
X441802Y321903D01*
X441900Y321913D01*
X441997Y321926D01*
X442094Y321944D01*
X442190Y321965D01*
X442284Y321990D01*
X442378Y322019D01*
X442471Y322051D01*
X442562Y322088D01*
X442652Y322127D01*
X442740Y322171D01*
X442826Y322218D01*
X442911Y322268D01*
X442993Y322321D01*
X443073Y322378D01*
X443151Y322438D01*
X443226Y322501D01*
X443299Y322567D01*
X443369Y322636D01*
X443436Y322707D01*
X443501Y322781D01*
X443562Y322858D01*
X443621Y322937D01*
X443676Y323018D01*
X443728Y323101D01*
X443776Y323187D01*
X443821Y323274D01*
X443863Y323363D01*
X443901Y323453D01*
X443935Y323545D01*
X443966Y323638D01*
X443993Y323733D01*
X444016Y323828D01*
X444036Y323925D01*
X444051Y324021D01*
X444063Y324119D01*
X444071Y324217D01*
X444075Y324315D01*
X444075Y324413D01*
X444071Y324511D01*
X444063Y324609D01*
X444051Y324707D01*
X444036Y324803D01*
X444016Y324900D01*
X443993Y324995D01*
X443966Y325090D01*
X443935Y325183D01*
X443901Y325275D01*
X443863Y325365D01*
X443821Y325454D01*
X443776Y325541D01*
X443728Y325627D01*
X443676Y325710D01*
X443621Y325791D01*
X443562Y325870D01*
X443501Y325947D01*
X443436Y326021D01*
X443369Y326092D01*
X443299Y326161D01*
X443226Y326227D01*
X443151Y326290D01*
X443073Y326350D01*
X442993Y326407D01*
X442911Y326460D01*
X442826Y326510D01*
X442740Y326557D01*
X442652Y326601D01*
X442562Y326640D01*
X442471Y326677D01*
X442378Y326709D01*
X442284Y326738D01*
X442190Y326763D01*
X442094Y326784D01*
X441997Y326802D01*
X441900Y326815D01*
X441802Y326825D01*
X441704Y326831D01*
X441606Y326833D01*
X442099Y330785D02*
X439136Y330785D01*
X442099Y330785D02*
X442186Y330783D01*
X442274Y330777D01*
X442361Y330768D01*
X442447Y330754D01*
X442533Y330737D01*
X442617Y330716D01*
X442701Y330691D01*
X442784Y330662D01*
X442865Y330630D01*
X442945Y330595D01*
X443023Y330556D01*
X443100Y330513D01*
X443174Y330467D01*
X443246Y330418D01*
X443316Y330366D01*
X443384Y330310D01*
X443449Y330252D01*
X443512Y330191D01*
X443571Y330127D01*
X443628Y330060D01*
X443682Y329992D01*
X443733Y329920D01*
X443780Y329847D01*
X443825Y329772D01*
X443866Y329694D01*
X443903Y329615D01*
X443937Y329535D01*
X443967Y329453D01*
X443994Y329370D01*
X444017Y329285D01*
X444036Y329200D01*
X444051Y329114D01*
X444063Y329027D01*
X444071Y328940D01*
X444075Y328853D01*
X444075Y328765D01*
X444071Y328678D01*
X444063Y328591D01*
X444051Y328504D01*
X444036Y328418D01*
X444017Y328333D01*
X443994Y328248D01*
X443967Y328165D01*
X443937Y328083D01*
X443903Y328003D01*
X443866Y327924D01*
X443825Y327846D01*
X443780Y327771D01*
X443733Y327698D01*
X443682Y327626D01*
X443628Y327558D01*
X443571Y327491D01*
X443512Y327427D01*
X443449Y327366D01*
X443384Y327308D01*
X443316Y327252D01*
X443246Y327200D01*
X443174Y327151D01*
X443100Y327105D01*
X443023Y327062D01*
X442945Y327023D01*
X442865Y326988D01*
X442784Y326956D01*
X442701Y326927D01*
X442617Y326902D01*
X442533Y326881D01*
X442447Y326864D01*
X442361Y326850D01*
X442274Y326841D01*
X442186Y326835D01*
X442099Y326833D01*
X442099Y326834D02*
X440124Y326834D01*
D25*
X227000Y377100D02*
X27000Y377100D01*
X27000Y461100D01*
X67620Y461100D01*
X67620Y458100D01*
X82410Y458100D01*
X82410Y461100D01*
X108170Y461100D01*
X108170Y445600D01*
X145830Y445600D01*
X145830Y461100D01*
X108170Y461100D01*
X145830Y461100D02*
X227000Y461100D01*
X227000Y377100D01*
X215750Y386350D02*
X38250Y386350D01*
X38250Y451850D01*
X108170Y451850D01*
X145830Y451850D02*
X215750Y451850D01*
X215750Y386350D01*
D10*
X201190Y372745D02*
X201190Y365831D01*
X201191Y365831D02*
X201189Y365745D01*
X201183Y365659D01*
X201174Y365573D01*
X201161Y365488D01*
X201144Y365403D01*
X201124Y365320D01*
X201100Y365237D01*
X201072Y365155D01*
X201041Y365075D01*
X201006Y364996D01*
X200968Y364919D01*
X200926Y364843D01*
X200882Y364769D01*
X200834Y364698D01*
X200783Y364628D01*
X200729Y364561D01*
X200672Y364496D01*
X200612Y364434D01*
X200550Y364374D01*
X200485Y364317D01*
X200418Y364263D01*
X200348Y364212D01*
X200277Y364164D01*
X200203Y364120D01*
X200127Y364078D01*
X200050Y364040D01*
X199971Y364005D01*
X199891Y363974D01*
X199809Y363946D01*
X199726Y363922D01*
X199643Y363902D01*
X199558Y363885D01*
X199473Y363872D01*
X199387Y363863D01*
X199301Y363857D01*
X199215Y363855D01*
X198227Y363855D01*
X207512Y363855D02*
X207512Y372745D01*
X205043Y372745D02*
X209982Y372745D01*
X216047Y372745D02*
X213083Y363855D01*
X219010Y363855D02*
X216047Y372745D01*
X218269Y366078D02*
X213824Y366078D01*
X226483Y368794D02*
X227965Y368794D01*
X227965Y363855D01*
X225002Y363855D01*
X224916Y363857D01*
X224830Y363863D01*
X224744Y363872D01*
X224659Y363885D01*
X224574Y363902D01*
X224491Y363922D01*
X224408Y363946D01*
X224326Y363974D01*
X224246Y364005D01*
X224167Y364040D01*
X224090Y364078D01*
X224014Y364120D01*
X223940Y364164D01*
X223869Y364212D01*
X223799Y364263D01*
X223732Y364317D01*
X223667Y364374D01*
X223605Y364434D01*
X223545Y364496D01*
X223488Y364561D01*
X223434Y364628D01*
X223383Y364698D01*
X223335Y364769D01*
X223291Y364843D01*
X223249Y364919D01*
X223211Y364996D01*
X223176Y365075D01*
X223145Y365155D01*
X223117Y365237D01*
X223093Y365320D01*
X223073Y365403D01*
X223056Y365488D01*
X223043Y365573D01*
X223034Y365659D01*
X223028Y365745D01*
X223026Y365831D01*
X223026Y370769D01*
X223028Y370858D01*
X223034Y370946D01*
X223044Y371034D01*
X223058Y371122D01*
X223076Y371209D01*
X223097Y371295D01*
X223123Y371380D01*
X223152Y371463D01*
X223185Y371546D01*
X223222Y371626D01*
X223262Y371705D01*
X223306Y371782D01*
X223353Y371858D01*
X223403Y371930D01*
X223457Y372001D01*
X223514Y372069D01*
X223574Y372135D01*
X223636Y372197D01*
X223702Y372257D01*
X223770Y372314D01*
X223841Y372368D01*
X223913Y372418D01*
X223988Y372465D01*
X224066Y372509D01*
X224145Y372549D01*
X224225Y372586D01*
X224308Y372619D01*
X224391Y372648D01*
X224476Y372674D01*
X224562Y372695D01*
X224649Y372713D01*
X224737Y372727D01*
X224825Y372737D01*
X224913Y372743D01*
X225002Y372745D01*
X227965Y372745D01*
D11*
X395340Y264470D02*
X409840Y264470D01*
X409840Y271470D02*
X395340Y271470D01*
D16*
X408840Y267970D03*
X396340Y267970D03*
D10*
X388233Y230505D02*
X386258Y230505D01*
X386172Y230507D01*
X386086Y230513D01*
X386000Y230522D01*
X385915Y230535D01*
X385830Y230552D01*
X385747Y230572D01*
X385664Y230596D01*
X385582Y230624D01*
X385502Y230655D01*
X385423Y230690D01*
X385346Y230728D01*
X385270Y230770D01*
X385196Y230814D01*
X385125Y230862D01*
X385055Y230913D01*
X384988Y230967D01*
X384923Y231024D01*
X384861Y231084D01*
X384801Y231146D01*
X384744Y231211D01*
X384690Y231278D01*
X384639Y231348D01*
X384591Y231419D01*
X384547Y231493D01*
X384505Y231569D01*
X384467Y231646D01*
X384432Y231725D01*
X384401Y231805D01*
X384373Y231887D01*
X384349Y231970D01*
X384329Y232053D01*
X384312Y232138D01*
X384299Y232223D01*
X384290Y232309D01*
X384284Y232395D01*
X384282Y232481D01*
X384282Y237419D01*
X384284Y237508D01*
X384290Y237596D01*
X384300Y237684D01*
X384314Y237772D01*
X384332Y237859D01*
X384353Y237945D01*
X384379Y238030D01*
X384408Y238113D01*
X384441Y238196D01*
X384478Y238276D01*
X384518Y238355D01*
X384562Y238432D01*
X384609Y238508D01*
X384659Y238580D01*
X384713Y238651D01*
X384770Y238719D01*
X384830Y238785D01*
X384892Y238847D01*
X384958Y238907D01*
X385026Y238964D01*
X385097Y239018D01*
X385169Y239068D01*
X385244Y239115D01*
X385322Y239159D01*
X385401Y239199D01*
X385481Y239236D01*
X385564Y239269D01*
X385647Y239298D01*
X385732Y239324D01*
X385818Y239345D01*
X385905Y239363D01*
X385993Y239377D01*
X386081Y239387D01*
X386169Y239393D01*
X386258Y239395D01*
X388233Y239395D01*
X391936Y239395D02*
X391936Y238407D01*
X391936Y239395D02*
X396875Y239395D01*
X394406Y230505D01*
D11*
X395340Y245420D02*
X409840Y245420D01*
X409840Y252420D02*
X395340Y252420D01*
D16*
X408840Y248920D03*
X396340Y248920D03*
D10*
X389503Y277495D02*
X387528Y277495D01*
X387442Y277497D01*
X387356Y277503D01*
X387270Y277512D01*
X387185Y277525D01*
X387100Y277542D01*
X387017Y277562D01*
X386934Y277586D01*
X386852Y277614D01*
X386772Y277645D01*
X386693Y277680D01*
X386616Y277718D01*
X386540Y277760D01*
X386466Y277804D01*
X386395Y277852D01*
X386325Y277903D01*
X386258Y277957D01*
X386193Y278014D01*
X386131Y278074D01*
X386071Y278136D01*
X386014Y278201D01*
X385960Y278268D01*
X385909Y278338D01*
X385861Y278409D01*
X385817Y278483D01*
X385775Y278559D01*
X385737Y278636D01*
X385702Y278715D01*
X385671Y278795D01*
X385643Y278877D01*
X385619Y278960D01*
X385599Y279043D01*
X385582Y279128D01*
X385569Y279213D01*
X385560Y279299D01*
X385554Y279385D01*
X385552Y279471D01*
X385552Y284409D01*
X385554Y284498D01*
X385560Y284586D01*
X385570Y284674D01*
X385584Y284762D01*
X385602Y284849D01*
X385623Y284935D01*
X385649Y285020D01*
X385678Y285103D01*
X385711Y285186D01*
X385748Y285266D01*
X385788Y285345D01*
X385832Y285422D01*
X385879Y285498D01*
X385929Y285570D01*
X385983Y285641D01*
X386040Y285709D01*
X386100Y285775D01*
X386162Y285837D01*
X386228Y285897D01*
X386296Y285954D01*
X386367Y286008D01*
X386439Y286058D01*
X386514Y286105D01*
X386592Y286149D01*
X386671Y286189D01*
X386751Y286226D01*
X386834Y286259D01*
X386917Y286288D01*
X387002Y286314D01*
X387088Y286335D01*
X387175Y286353D01*
X387263Y286367D01*
X387351Y286377D01*
X387439Y286383D01*
X387528Y286385D01*
X389503Y286385D01*
X395182Y281446D02*
X398145Y281446D01*
X395182Y281446D02*
X395096Y281448D01*
X395010Y281454D01*
X394924Y281463D01*
X394839Y281476D01*
X394754Y281493D01*
X394671Y281513D01*
X394588Y281537D01*
X394506Y281565D01*
X394426Y281596D01*
X394347Y281631D01*
X394270Y281669D01*
X394194Y281711D01*
X394120Y281755D01*
X394049Y281803D01*
X393979Y281854D01*
X393912Y281908D01*
X393847Y281965D01*
X393785Y282025D01*
X393725Y282087D01*
X393668Y282152D01*
X393614Y282219D01*
X393563Y282289D01*
X393515Y282360D01*
X393471Y282434D01*
X393429Y282510D01*
X393391Y282587D01*
X393356Y282666D01*
X393325Y282746D01*
X393297Y282828D01*
X393273Y282911D01*
X393253Y282994D01*
X393236Y283079D01*
X393223Y283164D01*
X393214Y283250D01*
X393208Y283336D01*
X393206Y283422D01*
X393206Y283916D01*
X393207Y283916D02*
X393209Y284014D01*
X393215Y284112D01*
X393225Y284210D01*
X393238Y284307D01*
X393256Y284404D01*
X393277Y284500D01*
X393302Y284594D01*
X393331Y284688D01*
X393363Y284781D01*
X393400Y284872D01*
X393439Y284962D01*
X393483Y285050D01*
X393530Y285136D01*
X393580Y285221D01*
X393633Y285303D01*
X393690Y285383D01*
X393750Y285461D01*
X393813Y285536D01*
X393879Y285609D01*
X393948Y285679D01*
X394019Y285746D01*
X394093Y285811D01*
X394170Y285872D01*
X394249Y285931D01*
X394330Y285986D01*
X394413Y286038D01*
X394499Y286086D01*
X394586Y286131D01*
X394675Y286173D01*
X394765Y286211D01*
X394857Y286245D01*
X394950Y286276D01*
X395045Y286303D01*
X395140Y286326D01*
X395237Y286346D01*
X395333Y286361D01*
X395431Y286373D01*
X395529Y286381D01*
X395627Y286385D01*
X395725Y286385D01*
X395823Y286381D01*
X395921Y286373D01*
X396019Y286361D01*
X396115Y286346D01*
X396212Y286326D01*
X396307Y286303D01*
X396402Y286276D01*
X396495Y286245D01*
X396587Y286211D01*
X396677Y286173D01*
X396766Y286131D01*
X396853Y286086D01*
X396939Y286038D01*
X397022Y285986D01*
X397103Y285931D01*
X397182Y285872D01*
X397259Y285811D01*
X397333Y285746D01*
X397404Y285679D01*
X397473Y285609D01*
X397539Y285536D01*
X397602Y285461D01*
X397662Y285383D01*
X397719Y285303D01*
X397772Y285221D01*
X397822Y285136D01*
X397869Y285050D01*
X397913Y284962D01*
X397952Y284872D01*
X397989Y284781D01*
X398021Y284688D01*
X398050Y284594D01*
X398075Y284500D01*
X398096Y284404D01*
X398114Y284307D01*
X398127Y284210D01*
X398137Y284112D01*
X398143Y284014D01*
X398145Y283916D01*
X398145Y281446D01*
X398143Y281322D01*
X398137Y281198D01*
X398127Y281074D01*
X398114Y280951D01*
X398096Y280828D01*
X398075Y280706D01*
X398050Y280584D01*
X398021Y280463D01*
X397988Y280344D01*
X397952Y280225D01*
X397911Y280108D01*
X397868Y279992D01*
X397820Y279877D01*
X397769Y279764D01*
X397714Y279652D01*
X397656Y279543D01*
X397595Y279435D01*
X397530Y279329D01*
X397462Y279225D01*
X397390Y279124D01*
X397316Y279024D01*
X397238Y278928D01*
X397158Y278833D01*
X397074Y278741D01*
X396988Y278652D01*
X396899Y278566D01*
X396807Y278482D01*
X396712Y278402D01*
X396616Y278324D01*
X396516Y278250D01*
X396415Y278178D01*
X396311Y278110D01*
X396205Y278045D01*
X396097Y277984D01*
X395988Y277926D01*
X395876Y277871D01*
X395763Y277820D01*
X395648Y277772D01*
X395532Y277729D01*
X395415Y277688D01*
X395296Y277652D01*
X395177Y277619D01*
X395056Y277590D01*
X394934Y277565D01*
X394812Y277544D01*
X394689Y277526D01*
X394566Y277513D01*
X394442Y277503D01*
X394318Y277497D01*
X394194Y277495D01*
D11*
X475350Y130500D02*
X489850Y130500D01*
X489850Y123500D02*
X475350Y123500D01*
D16*
X476350Y127000D03*
X488850Y127000D03*
D10*
X471799Y107315D02*
X469824Y107315D01*
X469738Y107317D01*
X469652Y107323D01*
X469566Y107332D01*
X469481Y107345D01*
X469396Y107362D01*
X469313Y107382D01*
X469230Y107406D01*
X469148Y107434D01*
X469068Y107465D01*
X468989Y107500D01*
X468912Y107538D01*
X468836Y107580D01*
X468762Y107624D01*
X468691Y107672D01*
X468621Y107723D01*
X468554Y107777D01*
X468489Y107834D01*
X468427Y107894D01*
X468367Y107956D01*
X468310Y108021D01*
X468256Y108088D01*
X468205Y108158D01*
X468157Y108229D01*
X468113Y108303D01*
X468071Y108379D01*
X468033Y108456D01*
X467998Y108535D01*
X467967Y108615D01*
X467939Y108697D01*
X467915Y108780D01*
X467895Y108863D01*
X467878Y108948D01*
X467865Y109033D01*
X467856Y109119D01*
X467850Y109205D01*
X467848Y109291D01*
X467848Y114229D01*
X467850Y114318D01*
X467856Y114406D01*
X467866Y114494D01*
X467880Y114582D01*
X467898Y114669D01*
X467919Y114755D01*
X467945Y114840D01*
X467974Y114923D01*
X468007Y115006D01*
X468044Y115086D01*
X468084Y115165D01*
X468128Y115242D01*
X468175Y115318D01*
X468225Y115390D01*
X468279Y115461D01*
X468336Y115529D01*
X468396Y115595D01*
X468458Y115657D01*
X468524Y115717D01*
X468592Y115774D01*
X468663Y115828D01*
X468735Y115878D01*
X468810Y115925D01*
X468888Y115969D01*
X468967Y116009D01*
X469047Y116046D01*
X469130Y116079D01*
X469213Y116108D01*
X469298Y116134D01*
X469384Y116155D01*
X469471Y116173D01*
X469559Y116187D01*
X469647Y116197D01*
X469735Y116203D01*
X469824Y116205D01*
X471799Y116205D01*
X475502Y114229D02*
X477972Y116205D01*
X477972Y107315D01*
X480441Y107315D02*
X475502Y107315D01*
X487363Y116206D02*
X487455Y116204D01*
X487547Y116198D01*
X487638Y116189D01*
X487729Y116176D01*
X487819Y116159D01*
X487909Y116138D01*
X487997Y116114D01*
X488085Y116086D01*
X488171Y116054D01*
X488256Y116019D01*
X488339Y115980D01*
X488421Y115938D01*
X488501Y115893D01*
X488579Y115844D01*
X488655Y115792D01*
X488728Y115737D01*
X488800Y115679D01*
X488869Y115619D01*
X488935Y115555D01*
X488999Y115489D01*
X489059Y115420D01*
X489117Y115348D01*
X489172Y115275D01*
X489224Y115199D01*
X489273Y115121D01*
X489318Y115041D01*
X489360Y114959D01*
X489399Y114876D01*
X489434Y114791D01*
X489466Y114705D01*
X489494Y114617D01*
X489518Y114529D01*
X489539Y114439D01*
X489556Y114349D01*
X489569Y114258D01*
X489578Y114167D01*
X489584Y114075D01*
X489586Y113983D01*
X487363Y116205D02*
X487257Y116203D01*
X487152Y116197D01*
X487047Y116187D01*
X486942Y116174D01*
X486838Y116156D01*
X486735Y116135D01*
X486632Y116110D01*
X486530Y116081D01*
X486430Y116048D01*
X486331Y116012D01*
X486233Y115972D01*
X486137Y115928D01*
X486042Y115881D01*
X485950Y115831D01*
X485859Y115777D01*
X485770Y115719D01*
X485684Y115659D01*
X485600Y115595D01*
X485518Y115529D01*
X485438Y115459D01*
X485362Y115386D01*
X485288Y115311D01*
X485217Y115233D01*
X485149Y115152D01*
X485083Y115069D01*
X485021Y114983D01*
X484963Y114896D01*
X484907Y114806D01*
X484855Y114714D01*
X484806Y114620D01*
X484761Y114525D01*
X484719Y114428D01*
X484681Y114329D01*
X484647Y114230D01*
X488844Y112254D02*
X488913Y112323D01*
X488979Y112393D01*
X489042Y112467D01*
X489101Y112543D01*
X489158Y112621D01*
X489212Y112701D01*
X489262Y112784D01*
X489309Y112868D01*
X489352Y112955D01*
X489392Y113043D01*
X489428Y113132D01*
X489461Y113223D01*
X489490Y113315D01*
X489515Y113409D01*
X489536Y113503D01*
X489554Y113598D01*
X489567Y113694D01*
X489577Y113790D01*
X489583Y113886D01*
X489585Y113983D01*
X488844Y112254D02*
X484646Y107315D01*
X489585Y107315D01*
D11*
X551550Y130500D02*
X566050Y130500D01*
X566050Y123500D02*
X551550Y123500D01*
D16*
X552550Y127000D03*
X565050Y127000D03*
D10*
X553226Y108585D02*
X551251Y108585D01*
X551165Y108587D01*
X551079Y108593D01*
X550993Y108602D01*
X550908Y108615D01*
X550823Y108632D01*
X550740Y108652D01*
X550657Y108676D01*
X550575Y108704D01*
X550495Y108735D01*
X550416Y108770D01*
X550339Y108808D01*
X550263Y108850D01*
X550189Y108894D01*
X550118Y108942D01*
X550048Y108993D01*
X549981Y109047D01*
X549916Y109104D01*
X549854Y109164D01*
X549794Y109226D01*
X549737Y109291D01*
X549683Y109358D01*
X549632Y109428D01*
X549584Y109499D01*
X549540Y109573D01*
X549498Y109649D01*
X549460Y109726D01*
X549425Y109805D01*
X549394Y109885D01*
X549366Y109967D01*
X549342Y110050D01*
X549322Y110133D01*
X549305Y110218D01*
X549292Y110303D01*
X549283Y110389D01*
X549277Y110475D01*
X549275Y110561D01*
X549275Y115499D01*
X549277Y115588D01*
X549283Y115676D01*
X549293Y115764D01*
X549307Y115852D01*
X549325Y115939D01*
X549346Y116025D01*
X549372Y116110D01*
X549401Y116193D01*
X549434Y116276D01*
X549471Y116356D01*
X549511Y116435D01*
X549555Y116512D01*
X549602Y116588D01*
X549652Y116660D01*
X549706Y116731D01*
X549763Y116799D01*
X549823Y116865D01*
X549885Y116927D01*
X549951Y116987D01*
X550019Y117044D01*
X550090Y117098D01*
X550162Y117148D01*
X550237Y117195D01*
X550315Y117239D01*
X550394Y117279D01*
X550474Y117316D01*
X550557Y117349D01*
X550640Y117378D01*
X550725Y117404D01*
X550811Y117425D01*
X550898Y117443D01*
X550986Y117457D01*
X551074Y117467D01*
X551162Y117473D01*
X551251Y117475D01*
X553226Y117475D01*
X556929Y115499D02*
X559398Y117475D01*
X559398Y108585D01*
X556929Y108585D02*
X561868Y108585D01*
X566073Y115499D02*
X568542Y117475D01*
X568542Y108585D01*
X566073Y108585D02*
X571012Y108585D01*
D11*
X568590Y364180D02*
X554090Y364180D01*
X554090Y357180D02*
X568590Y357180D01*
D16*
X555090Y360680D03*
X567590Y360680D03*
D10*
X580461Y356235D02*
X582436Y356235D01*
X580461Y356235D02*
X580375Y356237D01*
X580289Y356243D01*
X580203Y356252D01*
X580118Y356265D01*
X580033Y356282D01*
X579950Y356302D01*
X579867Y356326D01*
X579785Y356354D01*
X579705Y356385D01*
X579626Y356420D01*
X579549Y356458D01*
X579473Y356500D01*
X579399Y356544D01*
X579328Y356592D01*
X579258Y356643D01*
X579191Y356697D01*
X579126Y356754D01*
X579064Y356814D01*
X579004Y356876D01*
X578947Y356941D01*
X578893Y357008D01*
X578842Y357078D01*
X578794Y357149D01*
X578750Y357223D01*
X578708Y357299D01*
X578670Y357376D01*
X578635Y357455D01*
X578604Y357535D01*
X578576Y357617D01*
X578552Y357700D01*
X578532Y357783D01*
X578515Y357868D01*
X578502Y357953D01*
X578493Y358039D01*
X578487Y358125D01*
X578485Y358211D01*
X578485Y363149D01*
X578487Y363238D01*
X578493Y363326D01*
X578503Y363414D01*
X578517Y363502D01*
X578535Y363589D01*
X578556Y363675D01*
X578582Y363760D01*
X578611Y363843D01*
X578644Y363926D01*
X578681Y364006D01*
X578721Y364085D01*
X578765Y364162D01*
X578812Y364238D01*
X578862Y364310D01*
X578916Y364381D01*
X578973Y364449D01*
X579033Y364515D01*
X579095Y364577D01*
X579161Y364637D01*
X579229Y364694D01*
X579300Y364748D01*
X579372Y364798D01*
X579447Y364845D01*
X579525Y364889D01*
X579604Y364929D01*
X579684Y364966D01*
X579767Y364999D01*
X579850Y365028D01*
X579935Y365054D01*
X580021Y365075D01*
X580108Y365093D01*
X580196Y365107D01*
X580284Y365117D01*
X580372Y365123D01*
X580461Y365125D01*
X582436Y365125D01*
X586139Y358704D02*
X586141Y358802D01*
X586147Y358900D01*
X586157Y358998D01*
X586170Y359095D01*
X586188Y359192D01*
X586209Y359288D01*
X586234Y359382D01*
X586263Y359476D01*
X586295Y359569D01*
X586332Y359660D01*
X586371Y359750D01*
X586415Y359838D01*
X586462Y359924D01*
X586512Y360009D01*
X586565Y360091D01*
X586622Y360171D01*
X586682Y360249D01*
X586745Y360324D01*
X586811Y360397D01*
X586880Y360467D01*
X586951Y360534D01*
X587025Y360599D01*
X587102Y360660D01*
X587181Y360719D01*
X587262Y360774D01*
X587345Y360826D01*
X587431Y360874D01*
X587518Y360919D01*
X587607Y360961D01*
X587697Y360999D01*
X587789Y361033D01*
X587882Y361064D01*
X587977Y361091D01*
X588072Y361114D01*
X588169Y361134D01*
X588265Y361149D01*
X588363Y361161D01*
X588461Y361169D01*
X588559Y361173D01*
X588657Y361173D01*
X588755Y361169D01*
X588853Y361161D01*
X588951Y361149D01*
X589047Y361134D01*
X589144Y361114D01*
X589239Y361091D01*
X589334Y361064D01*
X589427Y361033D01*
X589519Y360999D01*
X589609Y360961D01*
X589698Y360919D01*
X589785Y360874D01*
X589871Y360826D01*
X589954Y360774D01*
X590035Y360719D01*
X590114Y360660D01*
X590191Y360599D01*
X590265Y360534D01*
X590336Y360467D01*
X590405Y360397D01*
X590471Y360324D01*
X590534Y360249D01*
X590594Y360171D01*
X590651Y360091D01*
X590704Y360009D01*
X590754Y359924D01*
X590801Y359838D01*
X590845Y359750D01*
X590884Y359660D01*
X590921Y359569D01*
X590953Y359476D01*
X590982Y359382D01*
X591007Y359288D01*
X591028Y359192D01*
X591046Y359095D01*
X591059Y358998D01*
X591069Y358900D01*
X591075Y358802D01*
X591077Y358704D01*
X591075Y358606D01*
X591069Y358508D01*
X591059Y358410D01*
X591046Y358313D01*
X591028Y358216D01*
X591007Y358120D01*
X590982Y358026D01*
X590953Y357932D01*
X590921Y357839D01*
X590884Y357748D01*
X590845Y357658D01*
X590801Y357570D01*
X590754Y357484D01*
X590704Y357399D01*
X590651Y357317D01*
X590594Y357237D01*
X590534Y357159D01*
X590471Y357084D01*
X590405Y357011D01*
X590336Y356941D01*
X590265Y356874D01*
X590191Y356809D01*
X590114Y356748D01*
X590035Y356689D01*
X589954Y356634D01*
X589871Y356582D01*
X589785Y356534D01*
X589698Y356489D01*
X589609Y356447D01*
X589519Y356409D01*
X589427Y356375D01*
X589334Y356344D01*
X589239Y356317D01*
X589144Y356294D01*
X589047Y356274D01*
X588951Y356259D01*
X588853Y356247D01*
X588755Y356239D01*
X588657Y356235D01*
X588559Y356235D01*
X588461Y356239D01*
X588363Y356247D01*
X588265Y356259D01*
X588169Y356274D01*
X588072Y356294D01*
X587977Y356317D01*
X587882Y356344D01*
X587789Y356375D01*
X587697Y356409D01*
X587607Y356447D01*
X587518Y356489D01*
X587431Y356534D01*
X587345Y356582D01*
X587262Y356634D01*
X587181Y356689D01*
X587102Y356748D01*
X587025Y356809D01*
X586951Y356874D01*
X586880Y356941D01*
X586811Y357011D01*
X586745Y357084D01*
X586682Y357159D01*
X586622Y357237D01*
X586565Y357317D01*
X586512Y357399D01*
X586462Y357484D01*
X586415Y357570D01*
X586371Y357658D01*
X586332Y357748D01*
X586295Y357839D01*
X586263Y357932D01*
X586234Y358026D01*
X586209Y358120D01*
X586188Y358216D01*
X586170Y358313D01*
X586157Y358410D01*
X586147Y358508D01*
X586141Y358606D01*
X586139Y358704D01*
X586632Y363149D02*
X586634Y363236D01*
X586640Y363324D01*
X586649Y363411D01*
X586663Y363497D01*
X586680Y363583D01*
X586701Y363667D01*
X586726Y363751D01*
X586755Y363834D01*
X586787Y363915D01*
X586822Y363995D01*
X586861Y364073D01*
X586904Y364150D01*
X586950Y364224D01*
X586999Y364296D01*
X587051Y364366D01*
X587107Y364434D01*
X587165Y364499D01*
X587226Y364562D01*
X587290Y364621D01*
X587357Y364678D01*
X587425Y364732D01*
X587497Y364783D01*
X587570Y364830D01*
X587645Y364875D01*
X587723Y364916D01*
X587802Y364953D01*
X587882Y364987D01*
X587964Y365017D01*
X588047Y365044D01*
X588132Y365067D01*
X588217Y365086D01*
X588303Y365101D01*
X588390Y365113D01*
X588477Y365121D01*
X588564Y365125D01*
X588652Y365125D01*
X588739Y365121D01*
X588826Y365113D01*
X588913Y365101D01*
X588999Y365086D01*
X589084Y365067D01*
X589169Y365044D01*
X589252Y365017D01*
X589334Y364987D01*
X589414Y364953D01*
X589493Y364916D01*
X589571Y364875D01*
X589646Y364830D01*
X589719Y364783D01*
X589791Y364732D01*
X589859Y364678D01*
X589926Y364621D01*
X589990Y364562D01*
X590051Y364499D01*
X590109Y364434D01*
X590165Y364366D01*
X590217Y364296D01*
X590266Y364224D01*
X590312Y364150D01*
X590355Y364073D01*
X590394Y363995D01*
X590429Y363915D01*
X590461Y363834D01*
X590490Y363751D01*
X590515Y363667D01*
X590536Y363583D01*
X590553Y363497D01*
X590567Y363411D01*
X590576Y363324D01*
X590582Y363236D01*
X590584Y363149D01*
X590582Y363062D01*
X590576Y362974D01*
X590567Y362887D01*
X590553Y362801D01*
X590536Y362715D01*
X590515Y362631D01*
X590490Y362547D01*
X590461Y362464D01*
X590429Y362383D01*
X590394Y362303D01*
X590355Y362225D01*
X590312Y362148D01*
X590266Y362074D01*
X590217Y362002D01*
X590165Y361932D01*
X590109Y361864D01*
X590051Y361799D01*
X589990Y361736D01*
X589926Y361677D01*
X589859Y361620D01*
X589791Y361566D01*
X589719Y361515D01*
X589646Y361468D01*
X589571Y361423D01*
X589493Y361382D01*
X589414Y361345D01*
X589334Y361311D01*
X589252Y361281D01*
X589169Y361254D01*
X589084Y361231D01*
X588999Y361212D01*
X588913Y361197D01*
X588826Y361185D01*
X588739Y361177D01*
X588652Y361173D01*
X588564Y361173D01*
X588477Y361177D01*
X588390Y361185D01*
X588303Y361197D01*
X588217Y361212D01*
X588132Y361231D01*
X588047Y361254D01*
X587964Y361281D01*
X587882Y361311D01*
X587802Y361345D01*
X587723Y361382D01*
X587645Y361423D01*
X587570Y361468D01*
X587497Y361515D01*
X587425Y361566D01*
X587357Y361620D01*
X587290Y361677D01*
X587226Y361736D01*
X587165Y361799D01*
X587107Y361864D01*
X587051Y361932D01*
X586999Y362002D01*
X586950Y362074D01*
X586904Y362148D01*
X586861Y362225D01*
X586822Y362303D01*
X586787Y362383D01*
X586755Y362464D01*
X586726Y362547D01*
X586701Y362631D01*
X586680Y362715D01*
X586663Y362801D01*
X586649Y362887D01*
X586640Y362974D01*
X586634Y363062D01*
X586632Y363149D01*
D11*
X497470Y357180D02*
X482970Y357180D01*
X482970Y364180D02*
X497470Y364180D01*
D16*
X496470Y360680D03*
X483970Y360680D03*
D10*
X464433Y356235D02*
X462458Y356235D01*
X462372Y356237D01*
X462286Y356243D01*
X462200Y356252D01*
X462115Y356265D01*
X462030Y356282D01*
X461947Y356302D01*
X461864Y356326D01*
X461782Y356354D01*
X461702Y356385D01*
X461623Y356420D01*
X461546Y356458D01*
X461470Y356500D01*
X461396Y356544D01*
X461325Y356592D01*
X461255Y356643D01*
X461188Y356697D01*
X461123Y356754D01*
X461061Y356814D01*
X461001Y356876D01*
X460944Y356941D01*
X460890Y357008D01*
X460839Y357078D01*
X460791Y357149D01*
X460747Y357223D01*
X460705Y357299D01*
X460667Y357376D01*
X460632Y357455D01*
X460601Y357535D01*
X460573Y357617D01*
X460549Y357700D01*
X460529Y357783D01*
X460512Y357868D01*
X460499Y357953D01*
X460490Y358039D01*
X460484Y358125D01*
X460482Y358211D01*
X460482Y363149D01*
X460484Y363238D01*
X460490Y363326D01*
X460500Y363414D01*
X460514Y363502D01*
X460532Y363589D01*
X460553Y363675D01*
X460579Y363760D01*
X460608Y363843D01*
X460641Y363926D01*
X460678Y364006D01*
X460718Y364085D01*
X460762Y364162D01*
X460809Y364238D01*
X460859Y364310D01*
X460913Y364381D01*
X460970Y364449D01*
X461030Y364515D01*
X461092Y364577D01*
X461158Y364637D01*
X461226Y364694D01*
X461297Y364748D01*
X461369Y364798D01*
X461444Y364845D01*
X461522Y364889D01*
X461601Y364929D01*
X461681Y364966D01*
X461764Y364999D01*
X461847Y365028D01*
X461932Y365054D01*
X462018Y365075D01*
X462105Y365093D01*
X462193Y365107D01*
X462281Y365117D01*
X462369Y365123D01*
X462458Y365125D01*
X464433Y365125D01*
X468136Y361174D02*
X471099Y361174D01*
X471185Y361172D01*
X471271Y361166D01*
X471357Y361157D01*
X471442Y361144D01*
X471527Y361127D01*
X471610Y361107D01*
X471693Y361083D01*
X471775Y361055D01*
X471855Y361024D01*
X471934Y360989D01*
X472011Y360951D01*
X472087Y360909D01*
X472161Y360865D01*
X472232Y360817D01*
X472302Y360766D01*
X472369Y360712D01*
X472434Y360655D01*
X472496Y360595D01*
X472556Y360533D01*
X472613Y360468D01*
X472667Y360401D01*
X472718Y360331D01*
X472766Y360260D01*
X472810Y360186D01*
X472852Y360110D01*
X472890Y360033D01*
X472925Y359954D01*
X472956Y359874D01*
X472984Y359792D01*
X473008Y359709D01*
X473028Y359626D01*
X473045Y359541D01*
X473058Y359456D01*
X473067Y359370D01*
X473073Y359284D01*
X473075Y359198D01*
X473075Y358704D01*
X473073Y358606D01*
X473067Y358508D01*
X473057Y358410D01*
X473044Y358313D01*
X473026Y358216D01*
X473005Y358120D01*
X472980Y358026D01*
X472951Y357932D01*
X472919Y357839D01*
X472882Y357748D01*
X472843Y357658D01*
X472799Y357570D01*
X472752Y357484D01*
X472702Y357399D01*
X472649Y357317D01*
X472592Y357237D01*
X472532Y357159D01*
X472469Y357084D01*
X472403Y357011D01*
X472334Y356941D01*
X472263Y356874D01*
X472189Y356809D01*
X472112Y356748D01*
X472033Y356689D01*
X471952Y356634D01*
X471869Y356582D01*
X471783Y356534D01*
X471696Y356489D01*
X471607Y356447D01*
X471517Y356409D01*
X471425Y356375D01*
X471332Y356344D01*
X471237Y356317D01*
X471142Y356294D01*
X471045Y356274D01*
X470949Y356259D01*
X470851Y356247D01*
X470753Y356239D01*
X470655Y356235D01*
X470557Y356235D01*
X470459Y356239D01*
X470361Y356247D01*
X470263Y356259D01*
X470167Y356274D01*
X470070Y356294D01*
X469975Y356317D01*
X469880Y356344D01*
X469787Y356375D01*
X469695Y356409D01*
X469605Y356447D01*
X469516Y356489D01*
X469429Y356534D01*
X469343Y356582D01*
X469260Y356634D01*
X469179Y356689D01*
X469100Y356748D01*
X469023Y356809D01*
X468949Y356874D01*
X468878Y356941D01*
X468809Y357011D01*
X468743Y357084D01*
X468680Y357159D01*
X468620Y357237D01*
X468563Y357317D01*
X468510Y357399D01*
X468460Y357484D01*
X468413Y357570D01*
X468369Y357658D01*
X468330Y357748D01*
X468293Y357839D01*
X468261Y357932D01*
X468232Y358026D01*
X468207Y358120D01*
X468186Y358216D01*
X468168Y358313D01*
X468155Y358410D01*
X468145Y358508D01*
X468139Y358606D01*
X468137Y358704D01*
X468136Y358704D02*
X468136Y361174D01*
X468138Y361298D01*
X468144Y361422D01*
X468154Y361546D01*
X468167Y361669D01*
X468185Y361792D01*
X468206Y361914D01*
X468231Y362036D01*
X468260Y362157D01*
X468293Y362276D01*
X468329Y362395D01*
X468370Y362512D01*
X468413Y362628D01*
X468461Y362743D01*
X468512Y362856D01*
X468567Y362968D01*
X468625Y363077D01*
X468686Y363185D01*
X468751Y363291D01*
X468819Y363395D01*
X468891Y363496D01*
X468965Y363596D01*
X469043Y363692D01*
X469123Y363787D01*
X469207Y363879D01*
X469293Y363968D01*
X469382Y364054D01*
X469474Y364138D01*
X469569Y364218D01*
X469665Y364296D01*
X469765Y364370D01*
X469866Y364442D01*
X469970Y364510D01*
X470076Y364575D01*
X470184Y364636D01*
X470293Y364694D01*
X470405Y364749D01*
X470518Y364800D01*
X470633Y364848D01*
X470749Y364891D01*
X470866Y364932D01*
X470985Y364968D01*
X471104Y365001D01*
X471225Y365030D01*
X471347Y365055D01*
X471469Y365076D01*
X471592Y365094D01*
X471715Y365107D01*
X471839Y365117D01*
X471963Y365123D01*
X472087Y365125D01*
D11*
X626420Y225690D02*
X626420Y211190D01*
X633420Y211190D02*
X633420Y225690D01*
D26*
X629920Y212190D03*
X629920Y224690D03*
D10*
X628263Y191135D02*
X626288Y191135D01*
X626202Y191137D01*
X626116Y191143D01*
X626030Y191152D01*
X625945Y191165D01*
X625860Y191182D01*
X625777Y191202D01*
X625694Y191226D01*
X625612Y191254D01*
X625532Y191285D01*
X625453Y191320D01*
X625376Y191358D01*
X625300Y191400D01*
X625226Y191444D01*
X625155Y191492D01*
X625085Y191543D01*
X625018Y191597D01*
X624953Y191654D01*
X624891Y191714D01*
X624831Y191776D01*
X624774Y191841D01*
X624720Y191908D01*
X624669Y191978D01*
X624621Y192049D01*
X624577Y192123D01*
X624535Y192199D01*
X624497Y192276D01*
X624462Y192355D01*
X624431Y192435D01*
X624403Y192517D01*
X624379Y192600D01*
X624359Y192683D01*
X624342Y192768D01*
X624329Y192853D01*
X624320Y192939D01*
X624314Y193025D01*
X624312Y193111D01*
X624312Y198049D01*
X624314Y198138D01*
X624320Y198226D01*
X624330Y198314D01*
X624344Y198402D01*
X624362Y198489D01*
X624383Y198575D01*
X624409Y198660D01*
X624438Y198743D01*
X624471Y198826D01*
X624508Y198906D01*
X624548Y198985D01*
X624592Y199062D01*
X624639Y199138D01*
X624689Y199210D01*
X624743Y199281D01*
X624800Y199349D01*
X624860Y199415D01*
X624922Y199477D01*
X624988Y199537D01*
X625056Y199594D01*
X625127Y199648D01*
X625199Y199698D01*
X625274Y199745D01*
X625352Y199789D01*
X625431Y199829D01*
X625511Y199866D01*
X625594Y199899D01*
X625677Y199928D01*
X625762Y199954D01*
X625848Y199975D01*
X625935Y199993D01*
X626023Y200007D01*
X626111Y200017D01*
X626199Y200023D01*
X626288Y200025D01*
X628263Y200025D01*
X631966Y191135D02*
X634436Y191135D01*
X634534Y191137D01*
X634632Y191143D01*
X634730Y191153D01*
X634827Y191166D01*
X634924Y191184D01*
X635020Y191205D01*
X635114Y191230D01*
X635208Y191259D01*
X635301Y191291D01*
X635392Y191328D01*
X635482Y191367D01*
X635570Y191411D01*
X635656Y191458D01*
X635741Y191508D01*
X635823Y191561D01*
X635903Y191618D01*
X635981Y191678D01*
X636056Y191741D01*
X636129Y191807D01*
X636199Y191876D01*
X636266Y191947D01*
X636331Y192021D01*
X636392Y192098D01*
X636451Y192177D01*
X636506Y192258D01*
X636558Y192341D01*
X636606Y192427D01*
X636651Y192514D01*
X636693Y192603D01*
X636731Y192693D01*
X636765Y192785D01*
X636796Y192878D01*
X636823Y192973D01*
X636846Y193068D01*
X636866Y193165D01*
X636881Y193261D01*
X636893Y193359D01*
X636901Y193457D01*
X636905Y193555D01*
X636905Y193653D01*
X636901Y193751D01*
X636893Y193849D01*
X636881Y193947D01*
X636866Y194043D01*
X636846Y194140D01*
X636823Y194235D01*
X636796Y194330D01*
X636765Y194423D01*
X636731Y194515D01*
X636693Y194605D01*
X636651Y194694D01*
X636606Y194781D01*
X636558Y194867D01*
X636506Y194950D01*
X636451Y195031D01*
X636392Y195110D01*
X636331Y195187D01*
X636266Y195261D01*
X636199Y195332D01*
X636129Y195401D01*
X636056Y195467D01*
X635981Y195530D01*
X635903Y195590D01*
X635823Y195647D01*
X635741Y195700D01*
X635656Y195750D01*
X635570Y195797D01*
X635482Y195841D01*
X635392Y195880D01*
X635301Y195917D01*
X635208Y195949D01*
X635114Y195978D01*
X635020Y196003D01*
X634924Y196024D01*
X634827Y196042D01*
X634730Y196055D01*
X634632Y196065D01*
X634534Y196071D01*
X634436Y196073D01*
X634929Y200025D02*
X631966Y200025D01*
X634929Y200025D02*
X635016Y200023D01*
X635104Y200017D01*
X635191Y200008D01*
X635277Y199994D01*
X635363Y199977D01*
X635447Y199956D01*
X635531Y199931D01*
X635614Y199902D01*
X635695Y199870D01*
X635775Y199835D01*
X635853Y199796D01*
X635930Y199753D01*
X636004Y199707D01*
X636076Y199658D01*
X636146Y199606D01*
X636214Y199550D01*
X636279Y199492D01*
X636342Y199431D01*
X636401Y199367D01*
X636458Y199300D01*
X636512Y199232D01*
X636563Y199160D01*
X636610Y199087D01*
X636655Y199012D01*
X636696Y198934D01*
X636733Y198855D01*
X636767Y198775D01*
X636797Y198693D01*
X636824Y198610D01*
X636847Y198525D01*
X636866Y198440D01*
X636881Y198354D01*
X636893Y198267D01*
X636901Y198180D01*
X636905Y198093D01*
X636905Y198005D01*
X636901Y197918D01*
X636893Y197831D01*
X636881Y197744D01*
X636866Y197658D01*
X636847Y197573D01*
X636824Y197488D01*
X636797Y197405D01*
X636767Y197323D01*
X636733Y197243D01*
X636696Y197164D01*
X636655Y197086D01*
X636610Y197011D01*
X636563Y196938D01*
X636512Y196866D01*
X636458Y196798D01*
X636401Y196731D01*
X636342Y196667D01*
X636279Y196606D01*
X636214Y196548D01*
X636146Y196492D01*
X636076Y196440D01*
X636004Y196391D01*
X635930Y196345D01*
X635853Y196302D01*
X635775Y196263D01*
X635695Y196228D01*
X635614Y196196D01*
X635531Y196167D01*
X635447Y196142D01*
X635363Y196121D01*
X635277Y196104D01*
X635191Y196090D01*
X635104Y196081D01*
X635016Y196075D01*
X634929Y196073D01*
X634929Y196074D02*
X632954Y196074D01*
D11*
X626420Y251830D02*
X626420Y266330D01*
X633420Y266330D02*
X633420Y251830D01*
D26*
X629920Y252830D03*
X629920Y265330D03*
D10*
X631368Y276225D02*
X633343Y276225D01*
X631368Y276225D02*
X631282Y276227D01*
X631196Y276233D01*
X631110Y276242D01*
X631025Y276255D01*
X630940Y276272D01*
X630857Y276292D01*
X630774Y276316D01*
X630692Y276344D01*
X630612Y276375D01*
X630533Y276410D01*
X630456Y276448D01*
X630380Y276490D01*
X630306Y276534D01*
X630235Y276582D01*
X630165Y276633D01*
X630098Y276687D01*
X630033Y276744D01*
X629971Y276804D01*
X629911Y276866D01*
X629854Y276931D01*
X629800Y276998D01*
X629749Y277068D01*
X629701Y277139D01*
X629657Y277213D01*
X629615Y277289D01*
X629577Y277366D01*
X629542Y277445D01*
X629511Y277525D01*
X629483Y277607D01*
X629459Y277690D01*
X629439Y277773D01*
X629422Y277858D01*
X629409Y277943D01*
X629400Y278029D01*
X629394Y278115D01*
X629392Y278201D01*
X629392Y283139D01*
X629394Y283228D01*
X629400Y283316D01*
X629410Y283404D01*
X629424Y283492D01*
X629442Y283579D01*
X629463Y283665D01*
X629489Y283750D01*
X629518Y283833D01*
X629551Y283916D01*
X629588Y283996D01*
X629628Y284075D01*
X629672Y284152D01*
X629719Y284228D01*
X629769Y284300D01*
X629823Y284371D01*
X629880Y284439D01*
X629940Y284505D01*
X630002Y284567D01*
X630068Y284627D01*
X630136Y284684D01*
X630207Y284738D01*
X630279Y284788D01*
X630354Y284835D01*
X630432Y284879D01*
X630511Y284919D01*
X630591Y284956D01*
X630674Y284989D01*
X630757Y285018D01*
X630842Y285044D01*
X630928Y285065D01*
X631015Y285083D01*
X631103Y285097D01*
X631191Y285107D01*
X631279Y285113D01*
X631368Y285115D01*
X633343Y285115D01*
X639022Y285115D02*
X637046Y278201D01*
X641985Y278201D01*
X640503Y280176D02*
X640503Y276225D01*
X619760Y431800D02*
X375920Y431800D01*
X619760Y431800D02*
X619760Y594360D01*
X607060Y594360D01*
X370840Y594360D02*
X358140Y594360D01*
X358140Y505460D01*
X375920Y482600D02*
X375920Y431800D01*
X375920Y482600D02*
X358140Y505460D01*
D27*
X659400Y326000D03*
D28*
X637051Y310873D02*
X637051Y307063D01*
X637051Y308545D02*
X639168Y310873D01*
X637898Y309391D02*
X639168Y307063D01*
X640327Y307063D02*
X642867Y310873D01*
X640327Y310873D02*
X642867Y307063D01*
X644196Y308121D02*
X644196Y309815D01*
X644198Y309879D01*
X644204Y309943D01*
X644213Y310006D01*
X644227Y310068D01*
X644244Y310130D01*
X644265Y310190D01*
X644289Y310249D01*
X644317Y310307D01*
X644349Y310362D01*
X644383Y310416D01*
X644421Y310467D01*
X644462Y310517D01*
X644506Y310563D01*
X644552Y310607D01*
X644602Y310648D01*
X644653Y310686D01*
X644707Y310720D01*
X644762Y310752D01*
X644820Y310780D01*
X644879Y310804D01*
X644939Y310825D01*
X645001Y310842D01*
X645063Y310856D01*
X645126Y310865D01*
X645190Y310871D01*
X645254Y310873D01*
X645318Y310871D01*
X645382Y310865D01*
X645445Y310856D01*
X645507Y310842D01*
X645569Y310825D01*
X645629Y310804D01*
X645688Y310780D01*
X645746Y310752D01*
X645801Y310720D01*
X645855Y310686D01*
X645906Y310648D01*
X645956Y310607D01*
X646002Y310563D01*
X646046Y310517D01*
X646087Y310467D01*
X646125Y310416D01*
X646159Y310362D01*
X646191Y310307D01*
X646219Y310249D01*
X646243Y310190D01*
X646264Y310130D01*
X646281Y310068D01*
X646295Y310006D01*
X646304Y309943D01*
X646310Y309879D01*
X646312Y309815D01*
X646313Y309815D02*
X646313Y308121D01*
X646312Y308121D02*
X646310Y308057D01*
X646304Y307993D01*
X646295Y307930D01*
X646281Y307868D01*
X646264Y307806D01*
X646243Y307746D01*
X646219Y307687D01*
X646191Y307629D01*
X646159Y307574D01*
X646125Y307520D01*
X646087Y307469D01*
X646046Y307419D01*
X646002Y307373D01*
X645956Y307329D01*
X645906Y307288D01*
X645855Y307250D01*
X645801Y307216D01*
X645746Y307184D01*
X645688Y307156D01*
X645629Y307132D01*
X645569Y307111D01*
X645507Y307094D01*
X645445Y307080D01*
X645382Y307071D01*
X645318Y307065D01*
X645254Y307063D01*
X645190Y307065D01*
X645126Y307071D01*
X645063Y307080D01*
X645001Y307094D01*
X644939Y307111D01*
X644879Y307132D01*
X644820Y307156D01*
X644762Y307184D01*
X644707Y307216D01*
X644653Y307250D01*
X644602Y307288D01*
X644552Y307329D01*
X644506Y307373D01*
X644462Y307419D01*
X644421Y307469D01*
X644383Y307520D01*
X644349Y307574D01*
X644317Y307629D01*
X644289Y307687D01*
X644265Y307746D01*
X644244Y307806D01*
X644227Y307868D01*
X644213Y307930D01*
X644204Y307993D01*
X644198Y308057D01*
X644196Y308121D01*
X647886Y308545D02*
X650426Y308545D01*
X651999Y308121D02*
X652001Y308185D01*
X652007Y308249D01*
X652016Y308312D01*
X652030Y308374D01*
X652047Y308436D01*
X652068Y308496D01*
X652092Y308555D01*
X652120Y308613D01*
X652152Y308668D01*
X652186Y308722D01*
X652224Y308773D01*
X652265Y308823D01*
X652309Y308869D01*
X652355Y308913D01*
X652405Y308954D01*
X652456Y308992D01*
X652510Y309026D01*
X652565Y309058D01*
X652623Y309086D01*
X652682Y309110D01*
X652742Y309131D01*
X652804Y309148D01*
X652866Y309162D01*
X652929Y309171D01*
X652993Y309177D01*
X653057Y309179D01*
X653121Y309177D01*
X653185Y309171D01*
X653248Y309162D01*
X653310Y309148D01*
X653372Y309131D01*
X653432Y309110D01*
X653491Y309086D01*
X653549Y309058D01*
X653604Y309026D01*
X653658Y308992D01*
X653709Y308954D01*
X653759Y308913D01*
X653805Y308869D01*
X653849Y308823D01*
X653890Y308773D01*
X653928Y308722D01*
X653962Y308668D01*
X653994Y308613D01*
X654022Y308555D01*
X654046Y308496D01*
X654067Y308436D01*
X654084Y308374D01*
X654098Y308312D01*
X654107Y308249D01*
X654113Y308185D01*
X654115Y308121D01*
X654113Y308057D01*
X654107Y307993D01*
X654098Y307930D01*
X654084Y307868D01*
X654067Y307806D01*
X654046Y307746D01*
X654022Y307687D01*
X653994Y307629D01*
X653962Y307574D01*
X653928Y307520D01*
X653890Y307469D01*
X653849Y307419D01*
X653805Y307373D01*
X653759Y307329D01*
X653709Y307288D01*
X653658Y307250D01*
X653604Y307216D01*
X653549Y307184D01*
X653491Y307156D01*
X653432Y307132D01*
X653372Y307111D01*
X653310Y307094D01*
X653248Y307080D01*
X653185Y307071D01*
X653121Y307065D01*
X653057Y307063D01*
X652993Y307065D01*
X652929Y307071D01*
X652866Y307080D01*
X652804Y307094D01*
X652742Y307111D01*
X652682Y307132D01*
X652623Y307156D01*
X652565Y307184D01*
X652510Y307216D01*
X652456Y307250D01*
X652405Y307288D01*
X652355Y307329D01*
X652309Y307373D01*
X652265Y307419D01*
X652224Y307469D01*
X652186Y307520D01*
X652152Y307574D01*
X652120Y307629D01*
X652092Y307687D01*
X652068Y307746D01*
X652047Y307806D01*
X652030Y307868D01*
X652016Y307930D01*
X652007Y307993D01*
X652001Y308057D01*
X651999Y308121D01*
X652210Y310026D02*
X652212Y310083D01*
X652218Y310139D01*
X652227Y310195D01*
X652240Y310250D01*
X652257Y310304D01*
X652277Y310357D01*
X652301Y310408D01*
X652328Y310458D01*
X652359Y310505D01*
X652392Y310551D01*
X652429Y310594D01*
X652468Y310635D01*
X652510Y310673D01*
X652555Y310708D01*
X652601Y310740D01*
X652650Y310769D01*
X652700Y310794D01*
X652753Y310816D01*
X652806Y310835D01*
X652861Y310850D01*
X652916Y310861D01*
X652972Y310869D01*
X653029Y310873D01*
X653085Y310873D01*
X653142Y310869D01*
X653198Y310861D01*
X653253Y310850D01*
X653308Y310835D01*
X653361Y310816D01*
X653414Y310794D01*
X653464Y310769D01*
X653513Y310740D01*
X653559Y310708D01*
X653604Y310673D01*
X653646Y310635D01*
X653685Y310594D01*
X653722Y310551D01*
X653755Y310505D01*
X653786Y310458D01*
X653813Y310408D01*
X653837Y310357D01*
X653857Y310304D01*
X653874Y310250D01*
X653887Y310195D01*
X653896Y310139D01*
X653902Y310083D01*
X653904Y310026D01*
X653902Y309969D01*
X653896Y309913D01*
X653887Y309857D01*
X653874Y309802D01*
X653857Y309748D01*
X653837Y309695D01*
X653813Y309644D01*
X653786Y309594D01*
X653755Y309547D01*
X653722Y309501D01*
X653685Y309458D01*
X653646Y309417D01*
X653604Y309379D01*
X653559Y309344D01*
X653513Y309312D01*
X653464Y309283D01*
X653414Y309258D01*
X653361Y309236D01*
X653308Y309217D01*
X653253Y309202D01*
X653198Y309191D01*
X653142Y309183D01*
X653085Y309179D01*
X653029Y309179D01*
X652972Y309183D01*
X652916Y309191D01*
X652861Y309202D01*
X652806Y309217D01*
X652753Y309236D01*
X652700Y309258D01*
X652650Y309283D01*
X652601Y309312D01*
X652555Y309344D01*
X652510Y309379D01*
X652468Y309417D01*
X652429Y309458D01*
X652392Y309501D01*
X652359Y309547D01*
X652328Y309594D01*
X652301Y309644D01*
X652277Y309695D01*
X652257Y309748D01*
X652240Y309802D01*
X652227Y309857D01*
X652218Y309913D01*
X652212Y309969D01*
X652210Y310026D01*
X655656Y307910D02*
X656503Y310873D01*
X655656Y307910D02*
X657773Y307910D01*
X657138Y308756D02*
X657138Y307063D01*
D19*
X646428Y313706D02*
X646428Y316246D01*
X647133Y316246D01*
X647185Y316244D01*
X647236Y316238D01*
X647287Y316229D01*
X647336Y316216D01*
X647385Y316199D01*
X647433Y316179D01*
X647479Y316156D01*
X647523Y316129D01*
X647564Y316099D01*
X647604Y316066D01*
X647641Y316030D01*
X647676Y315992D01*
X647707Y315951D01*
X647736Y315908D01*
X647761Y315863D01*
X647783Y315816D01*
X647801Y315768D01*
X647816Y315719D01*
X647827Y315668D01*
X647835Y315617D01*
X647839Y315566D01*
X647839Y315514D01*
X647835Y315463D01*
X647827Y315412D01*
X647816Y315361D01*
X647801Y315312D01*
X647783Y315264D01*
X647761Y315217D01*
X647736Y315172D01*
X647707Y315129D01*
X647676Y315088D01*
X647641Y315050D01*
X647604Y315014D01*
X647564Y314981D01*
X647523Y314951D01*
X647479Y314924D01*
X647433Y314901D01*
X647385Y314881D01*
X647336Y314864D01*
X647287Y314851D01*
X647236Y314842D01*
X647185Y314836D01*
X647133Y314834D01*
X647133Y314835D02*
X646428Y314835D01*
X647274Y314835D02*
X647839Y313706D01*
X650223Y315117D02*
X650646Y315117D01*
X650646Y313706D01*
X649799Y313706D01*
X649752Y313708D01*
X649706Y313714D01*
X649661Y313723D01*
X649616Y313737D01*
X649572Y313754D01*
X649531Y313774D01*
X649491Y313798D01*
X649453Y313825D01*
X649417Y313855D01*
X649384Y313888D01*
X649354Y313924D01*
X649327Y313962D01*
X649303Y314002D01*
X649283Y314043D01*
X649266Y314087D01*
X649252Y314132D01*
X649243Y314177D01*
X649237Y314223D01*
X649235Y314270D01*
X649235Y315682D01*
X649237Y315729D01*
X649243Y315775D01*
X649252Y315820D01*
X649266Y315865D01*
X649283Y315909D01*
X649303Y315950D01*
X649327Y315990D01*
X649354Y316028D01*
X649384Y316064D01*
X649417Y316097D01*
X649453Y316127D01*
X649491Y316154D01*
X649531Y316178D01*
X649572Y316198D01*
X649616Y316215D01*
X649661Y316229D01*
X649706Y316238D01*
X649752Y316244D01*
X649799Y316246D01*
X650646Y316246D01*
D13*
X663700Y330000D02*
X631700Y330000D01*
X631700Y305000D01*
X663700Y305000D01*
X663700Y330000D01*
D10*
X655900Y305000D02*
X639400Y305000D01*
X639900Y330000D02*
X655900Y330000D01*
X663700Y320000D02*
X663700Y315000D01*
X631700Y315000D02*
X631700Y320000D01*
X641985Y339654D02*
X641985Y343606D01*
X641987Y343704D01*
X641993Y343802D01*
X642003Y343900D01*
X642016Y343997D01*
X642034Y344094D01*
X642055Y344190D01*
X642080Y344284D01*
X642109Y344378D01*
X642141Y344471D01*
X642178Y344562D01*
X642217Y344652D01*
X642261Y344740D01*
X642308Y344826D01*
X642358Y344911D01*
X642411Y344993D01*
X642468Y345073D01*
X642528Y345151D01*
X642591Y345226D01*
X642657Y345299D01*
X642726Y345369D01*
X642797Y345436D01*
X642871Y345501D01*
X642948Y345562D01*
X643027Y345621D01*
X643108Y345676D01*
X643191Y345728D01*
X643277Y345776D01*
X643364Y345821D01*
X643453Y345863D01*
X643543Y345901D01*
X643635Y345935D01*
X643728Y345966D01*
X643823Y345993D01*
X643918Y346016D01*
X644015Y346036D01*
X644111Y346051D01*
X644209Y346063D01*
X644307Y346071D01*
X644405Y346075D01*
X644503Y346075D01*
X644601Y346071D01*
X644699Y346063D01*
X644797Y346051D01*
X644893Y346036D01*
X644990Y346016D01*
X645085Y345993D01*
X645180Y345966D01*
X645273Y345935D01*
X645365Y345901D01*
X645455Y345863D01*
X645544Y345821D01*
X645631Y345776D01*
X645717Y345728D01*
X645800Y345676D01*
X645881Y345621D01*
X645960Y345562D01*
X646037Y345501D01*
X646111Y345436D01*
X646182Y345369D01*
X646251Y345299D01*
X646317Y345226D01*
X646380Y345151D01*
X646440Y345073D01*
X646497Y344993D01*
X646550Y344911D01*
X646600Y344826D01*
X646647Y344740D01*
X646691Y344652D01*
X646730Y344562D01*
X646767Y344471D01*
X646799Y344378D01*
X646828Y344284D01*
X646853Y344190D01*
X646874Y344094D01*
X646892Y343997D01*
X646905Y343900D01*
X646915Y343802D01*
X646921Y343704D01*
X646923Y343606D01*
X646924Y343606D02*
X646924Y339654D01*
X646923Y339654D02*
X646921Y339556D01*
X646915Y339458D01*
X646905Y339360D01*
X646892Y339263D01*
X646874Y339166D01*
X646853Y339070D01*
X646828Y338976D01*
X646799Y338882D01*
X646767Y338789D01*
X646730Y338698D01*
X646691Y338608D01*
X646647Y338520D01*
X646600Y338434D01*
X646550Y338349D01*
X646497Y338267D01*
X646440Y338187D01*
X646380Y338109D01*
X646317Y338034D01*
X646251Y337961D01*
X646182Y337891D01*
X646111Y337824D01*
X646037Y337759D01*
X645960Y337698D01*
X645881Y337639D01*
X645800Y337584D01*
X645717Y337532D01*
X645631Y337484D01*
X645544Y337439D01*
X645455Y337397D01*
X645365Y337359D01*
X645273Y337325D01*
X645180Y337294D01*
X645085Y337267D01*
X644990Y337244D01*
X644893Y337224D01*
X644797Y337209D01*
X644699Y337197D01*
X644601Y337189D01*
X644503Y337185D01*
X644405Y337185D01*
X644307Y337189D01*
X644209Y337197D01*
X644111Y337209D01*
X644015Y337224D01*
X643918Y337244D01*
X643823Y337267D01*
X643728Y337294D01*
X643635Y337325D01*
X643543Y337359D01*
X643453Y337397D01*
X643364Y337439D01*
X643277Y337484D01*
X643191Y337532D01*
X643108Y337584D01*
X643027Y337639D01*
X642948Y337698D01*
X642871Y337759D01*
X642797Y337824D01*
X642726Y337891D01*
X642657Y337961D01*
X642591Y338034D01*
X642528Y338109D01*
X642468Y338187D01*
X642411Y338267D01*
X642358Y338349D01*
X642308Y338434D01*
X642261Y338520D01*
X642217Y338608D01*
X642178Y338698D01*
X642141Y338789D01*
X642109Y338882D01*
X642080Y338976D01*
X642055Y339070D01*
X642034Y339166D01*
X642016Y339263D01*
X642003Y339360D01*
X641993Y339458D01*
X641987Y339556D01*
X641985Y339654D01*
X645936Y339161D02*
X647912Y337185D01*
X650750Y344099D02*
X653219Y346075D01*
X653219Y337185D01*
X650750Y337185D02*
X655689Y337185D01*
D25*
X723646Y266700D02*
X723646Y233680D01*
X658114Y233680D01*
X658114Y266700D01*
X723646Y266700D01*
D29*
X690880Y277495D03*
D30*
X690880Y222885D03*
X667766Y222885D03*
X713994Y222885D03*
D29*
X690880Y277495D03*
D30*
X690880Y222885D03*
X667766Y222885D03*
X713994Y222885D03*
D11*
X683923Y295783D02*
X683923Y302895D01*
X683133Y295783D02*
X684713Y295783D01*
X684713Y302895D02*
X683133Y302895D01*
X689353Y295783D02*
X690933Y295783D01*
X689353Y295783D02*
X689275Y295785D01*
X689198Y295791D01*
X689121Y295800D01*
X689045Y295813D01*
X688969Y295830D01*
X688894Y295851D01*
X688821Y295875D01*
X688748Y295903D01*
X688677Y295935D01*
X688608Y295970D01*
X688541Y296008D01*
X688475Y296049D01*
X688412Y296094D01*
X688351Y296142D01*
X688292Y296192D01*
X688236Y296246D01*
X688182Y296302D01*
X688132Y296361D01*
X688084Y296422D01*
X688039Y296485D01*
X687998Y296551D01*
X687960Y296618D01*
X687925Y296687D01*
X687893Y296758D01*
X687865Y296831D01*
X687841Y296904D01*
X687820Y296979D01*
X687803Y297055D01*
X687790Y297131D01*
X687781Y297208D01*
X687775Y297285D01*
X687773Y297363D01*
X687773Y301315D01*
X687775Y301393D01*
X687781Y301470D01*
X687790Y301547D01*
X687803Y301623D01*
X687820Y301699D01*
X687841Y301774D01*
X687865Y301847D01*
X687893Y301920D01*
X687925Y301991D01*
X687960Y302060D01*
X687998Y302127D01*
X688039Y302193D01*
X688084Y302256D01*
X688132Y302317D01*
X688182Y302376D01*
X688236Y302432D01*
X688292Y302486D01*
X688351Y302536D01*
X688412Y302584D01*
X688475Y302629D01*
X688541Y302670D01*
X688608Y302708D01*
X688677Y302743D01*
X688748Y302775D01*
X688821Y302803D01*
X688894Y302827D01*
X688969Y302848D01*
X689045Y302865D01*
X689121Y302878D01*
X689198Y302887D01*
X689275Y302893D01*
X689353Y302895D01*
X690933Y302895D01*
X693896Y301315D02*
X695871Y302895D01*
X695871Y295783D01*
X693896Y295783D02*
X697847Y295783D01*
X317091Y412370D02*
X315511Y412370D01*
X315433Y412372D01*
X315356Y412378D01*
X315279Y412387D01*
X315203Y412400D01*
X315127Y412417D01*
X315052Y412438D01*
X314979Y412462D01*
X314906Y412490D01*
X314835Y412522D01*
X314766Y412557D01*
X314699Y412595D01*
X314633Y412636D01*
X314570Y412681D01*
X314509Y412729D01*
X314450Y412779D01*
X314394Y412833D01*
X314340Y412889D01*
X314290Y412948D01*
X314242Y413009D01*
X314197Y413072D01*
X314156Y413138D01*
X314118Y413205D01*
X314083Y413274D01*
X314051Y413345D01*
X314023Y413418D01*
X313999Y413491D01*
X313978Y413566D01*
X313961Y413642D01*
X313948Y413718D01*
X313939Y413795D01*
X313933Y413872D01*
X313931Y413950D01*
X313930Y413950D02*
X313930Y417902D01*
X313931Y417902D02*
X313933Y417980D01*
X313939Y418057D01*
X313948Y418134D01*
X313961Y418210D01*
X313978Y418286D01*
X313999Y418361D01*
X314023Y418434D01*
X314051Y418507D01*
X314083Y418578D01*
X314118Y418647D01*
X314156Y418714D01*
X314197Y418780D01*
X314242Y418843D01*
X314290Y418904D01*
X314340Y418963D01*
X314394Y419019D01*
X314450Y419073D01*
X314509Y419123D01*
X314570Y419171D01*
X314633Y419216D01*
X314699Y419257D01*
X314766Y419295D01*
X314835Y419330D01*
X314906Y419362D01*
X314979Y419390D01*
X315052Y419414D01*
X315127Y419435D01*
X315203Y419452D01*
X315279Y419465D01*
X315356Y419474D01*
X315433Y419480D01*
X315511Y419482D01*
X317091Y419482D01*
X323760Y413950D02*
X323758Y413872D01*
X323752Y413795D01*
X323743Y413718D01*
X323730Y413642D01*
X323713Y413566D01*
X323692Y413491D01*
X323668Y413418D01*
X323640Y413345D01*
X323608Y413274D01*
X323573Y413205D01*
X323535Y413138D01*
X323494Y413072D01*
X323449Y413009D01*
X323401Y412948D01*
X323351Y412889D01*
X323297Y412833D01*
X323241Y412779D01*
X323182Y412729D01*
X323121Y412681D01*
X323058Y412636D01*
X322992Y412595D01*
X322925Y412557D01*
X322856Y412522D01*
X322785Y412490D01*
X322712Y412462D01*
X322639Y412438D01*
X322564Y412417D01*
X322488Y412400D01*
X322412Y412387D01*
X322335Y412378D01*
X322258Y412372D01*
X322180Y412370D01*
X322065Y412372D01*
X321951Y412378D01*
X321837Y412388D01*
X321723Y412401D01*
X321610Y412419D01*
X321497Y412441D01*
X321385Y412466D01*
X321275Y412495D01*
X321165Y412528D01*
X321056Y412565D01*
X320949Y412605D01*
X320843Y412649D01*
X320739Y412697D01*
X320636Y412748D01*
X320536Y412803D01*
X320437Y412861D01*
X320340Y412923D01*
X320246Y412987D01*
X320153Y413055D01*
X320063Y413127D01*
X319976Y413201D01*
X319891Y413278D01*
X319809Y413358D01*
X320008Y417902D02*
X320010Y417980D01*
X320016Y418057D01*
X320025Y418134D01*
X320038Y418210D01*
X320055Y418286D01*
X320076Y418361D01*
X320100Y418434D01*
X320128Y418507D01*
X320160Y418578D01*
X320195Y418647D01*
X320233Y418714D01*
X320274Y418780D01*
X320319Y418843D01*
X320367Y418904D01*
X320417Y418963D01*
X320471Y419019D01*
X320527Y419073D01*
X320586Y419123D01*
X320647Y419171D01*
X320710Y419216D01*
X320776Y419257D01*
X320843Y419295D01*
X320912Y419330D01*
X320983Y419362D01*
X321056Y419390D01*
X321129Y419414D01*
X321204Y419435D01*
X321280Y419452D01*
X321356Y419465D01*
X321433Y419474D01*
X321511Y419480D01*
X321588Y419482D01*
X321587Y419482D02*
X321693Y419480D01*
X321799Y419474D01*
X321904Y419465D01*
X322009Y419452D01*
X322114Y419435D01*
X322218Y419414D01*
X322321Y419390D01*
X322423Y419362D01*
X322524Y419330D01*
X322624Y419295D01*
X322722Y419256D01*
X322820Y419213D01*
X322915Y419168D01*
X323009Y419119D01*
X323101Y419066D01*
X323191Y419010D01*
X323279Y418951D01*
X323365Y418889D01*
X320797Y416519D02*
X320730Y416561D01*
X320665Y416606D01*
X320602Y416655D01*
X320541Y416706D01*
X320484Y416761D01*
X320429Y416818D01*
X320376Y416878D01*
X320327Y416940D01*
X320281Y417005D01*
X320239Y417071D01*
X320199Y417140D01*
X320163Y417211D01*
X320131Y417284D01*
X320102Y417358D01*
X320077Y417433D01*
X320056Y417509D01*
X320038Y417587D01*
X320025Y417665D01*
X320015Y417744D01*
X320009Y417823D01*
X320007Y417902D01*
X322971Y415333D02*
X323038Y415291D01*
X323103Y415246D01*
X323166Y415197D01*
X323227Y415146D01*
X323284Y415091D01*
X323339Y415034D01*
X323392Y414974D01*
X323441Y414912D01*
X323487Y414847D01*
X323529Y414781D01*
X323569Y414712D01*
X323605Y414641D01*
X323637Y414568D01*
X323666Y414494D01*
X323691Y414419D01*
X323712Y414343D01*
X323730Y414265D01*
X323743Y414187D01*
X323753Y414108D01*
X323759Y414029D01*
X323761Y413950D01*
X322970Y415333D02*
X320797Y416519D01*
X326881Y417902D02*
X328856Y419482D01*
X328856Y412370D01*
X326881Y412370D02*
X330832Y412370D01*
M02*
