M48
;GenerationSoftware,Autodesk,EAGLE,9.6.2*%
;CreationDate,2022-12-02T23:19:36Z*%
FMAT,2
ICI,OFF
METRIC,TZ,000.000
T8C0.305
T7C0.350
T6C1.000
T5C1.016
T4C1.100
T3C1.300
T2C1.600
T1C3.000
%
G90
M71
T1
X3048Y57023
X70993Y57023
X3048Y11938
X70993Y11938
T2
X39370Y45466
T3
X8565Y49296
X15565Y49296
X23170Y51836
X30170Y51836
T4
X60452Y45466
T5
X17526Y6223
X14986Y3683
X14986Y6223
X40386Y3683
X12446Y3683
X12446Y6223
X9906Y3683
X9906Y6223
X7366Y3683
X7366Y6223
X4826Y3683
X4826Y6223
X2286Y3683
X2286Y6223
X48006Y2413
X70866Y2413
X70866Y7493
X68326Y2413
X68326Y7493
X65786Y2413
X65786Y7493
X63246Y2413
X63246Y7493
X58166Y2413
X55626Y2413
X53086Y2413
X50546Y2413
X45466Y2413
X42926Y2413
X40386Y2413
X37846Y2413
X35306Y2413
X32766Y2413
X30226Y2413
X27686Y2413
X25146Y2413
X22606Y2413
X20066Y2413
X17526Y2413
X14986Y2413
X12446Y2413
X9906Y2413
X7366Y2413
X4826Y2413
X2286Y2413
X58166Y7493
X55626Y7493
X53086Y7493
X50546Y7493
X48006Y7493
X45466Y7493
X42926Y7493
X40386Y7493
X37846Y7493
X35306Y7493
X32766Y7493
X30226Y7493
X27686Y7493
X25146Y7493
X22606Y7493
X20066Y7493
X17526Y7493
X14986Y7493
X12446Y7493
X9906Y7493
X7366Y7493
X4826Y7493
X2286Y7493
X70866Y3683
X70866Y6223
X68326Y3683
X68326Y6223
X65786Y3683
X65786Y6223
X63246Y3683
X63246Y6223
X58166Y3683
X58166Y6223
X55626Y3683
X55626Y6223
X53086Y3683
X53086Y6223
X50546Y3683
X50546Y6223
X48006Y3683
X48006Y6223
X45466Y3683
X45466Y6223
X42926Y3683
X42926Y6223
X40386Y6223
X37846Y3683
X37846Y6223
X35306Y3683
X35306Y6223
X32766Y3683
X32766Y6223
X30226Y3683
X30226Y6223
X27686Y3683
X27686Y6223
X25146Y3683
X25146Y6223
X22606Y3683
X22606Y6223
X20066Y3683
X20066Y6223
X17526Y3683
T6
X28920Y54336
X24420Y54336
X14315Y51796
X9815Y51796
X17780Y43180
X17780Y40640
X15240Y43180
X15240Y40640
X12700Y43180
X12700Y40640
X10160Y43180
X10160Y40640
X7620Y43180
X7620Y40640
T7
X61976Y37211
X33401Y14097
X40259Y14097
X40386Y21971
X67437Y11430
X70231Y16002
X65405Y21971
X20574Y40640
X26924Y26289
X27178Y31623
X29972Y31623
X21692Y35357
X24003Y35052
X58166Y25527
X58674Y23368
X25654Y36830
X27813Y37211
T8
X52514Y40767
X33147Y28448
X21463Y28511
X61277Y29718
X55880Y29210
X54991Y17971
X57404Y15557
X46164Y28384
X49085Y29146
X59309Y33528
X34671Y33719
X21209Y33592
X54229Y15557
X54229Y18288
X55118Y29464
X59626Y31432
X33401Y30988
X17209Y31305
X53086Y15557
X53467Y17971
X53467Y30924
X23685Y28702
X6667Y29845
X52705Y17971
X52324Y15557
X25527Y34862
X53403Y35687
X54038Y35116
X26289Y34862
X6731Y32258
X23876Y31877
X42863Y21907
X26543Y24384
X53403Y36513
X28638Y35687
X6731Y34798
X43498Y9779
X29908Y10541
X54483Y25908
X48831Y20257
X46799Y18034
X42926Y14160
X28702Y16256
X6667Y33084
X26479Y30416
X39053Y29527
X29337Y29019
X30861Y44450
X60706Y18098
X45148Y38926
X63817Y15748
X39434Y35751
X29591Y35497
X27495Y33401
X13652Y33020
X58039Y23876
X58293Y18098
X59055Y9398
X45275Y29718
X37592Y28956
X37084Y25908
X29273Y25908
X45720Y26098
X31051Y26479
X42355Y8636
X63944Y24257
X29718Y37211
X64833Y49212
X56642Y17971
X72517Y21082
X47942Y15557
X63817Y14986
X47371Y30670
X28130Y30035
X28130Y22860
X26543Y22860
X46609Y30353
X27559Y28702
X47815Y34989
X30353Y36322
X26733Y38354
X3937Y22733
X51117Y42291
X7874Y44831
X45656Y21527
X37910Y18288
X3937Y20193
X38608Y20320
X55372Y33973
X16891Y35370
X55880Y40767
X28257Y41720
X50165Y13462
X52070Y11557
X45275Y42291
X7556Y41974
X45085Y12573
X12763Y12001
X11684Y41402
X43625Y18098
X16256Y17780
X45783Y20193
X40640Y20193
X39053Y16574
X12446Y16828
X45275Y20765
X41402Y20511
X41212Y16891
X11176Y18860
X59626Y14414
X19939Y15113
X38037Y54165
X39243Y53594
X40323Y11557
X50165Y12700
X57912Y12700
X70231Y17653
X65913Y17653
X67564Y14478
X64135Y22733
X64135Y26797
X57023Y37211
X50927Y36068
X45974Y39624
X40259Y25908
X29210Y13970
X8890Y13970
X69088Y50660
X54483Y41148
X3175Y28448
X23495Y25908
X33782Y58420
X64008Y58420
X35433Y44450
X64008Y43815
X20701Y34798
X36576Y32258
X62230Y32639
X41148Y36957
X48895Y37211
X34925Y37084
X33147Y22098
X49657Y26289
X57721Y21082
X54165Y37529
X61277Y20701
X64706Y20130
X64706Y24320
X64960Y25717
X61468Y14414
X41529Y54991
X72644Y32766
X28321Y49784
X2921Y15748
X22606Y14732
X56896Y24765
X56896Y22733
X55626Y19431
X48768Y19431
X46990Y24765
X46990Y26670
X48895Y30353
X55753Y30353
X51054Y39624
X69088Y30734
X42672Y39116
X54737Y38354
X63246Y39624
X27559Y42291
X41148Y24003
X69088Y42037
X45656Y11049
X32194Y20193
X19939Y20193
X56832Y27559
X67882Y21273
X39180Y2223
X61277Y28956
X47561Y28575
X46418Y27432
X35941Y27813
X20701Y28511
X48450Y13716
X49149Y18288
X50736Y28321
X58737Y33020
X33592Y33401
X20003Y27876
X32893Y27241
X29654Y9525
X30480Y27241
X56832Y28321
X47942Y26860
X46418Y25336
X35941Y25273
X21146Y26098
X14224Y48577
X37338Y25146
X32830Y24574
X19939Y25273
X58864Y27305
X59817Y18098
X40259Y24003
X57975Y31559
X37338Y32131
X22733Y20765
X32766Y20765
X56769Y25971
X50165Y20828
X46863Y20511
X33401Y19622
X20892Y19622
X56197Y18860
X36767Y18860
X24003Y18923
X59690Y32385
X32258Y32830
X21781Y32448
X13652Y22606
X17209Y23495
X50990Y33973
X37910Y33973
X38164Y22860
X24003Y21463
X9462Y21463
X50355Y42291
X22352Y43434
X9462Y24638
X21273Y24638
X2667Y19685
X48704Y9970
X48831Y8636
X50546Y31559
X31686Y31559
X31940Y22860
X26543Y21717
X8954Y22034
X52514Y37529
X7302Y36132
X22923Y26416
X4826Y14160
X22923Y28702
X6540Y29083
X53086Y34544
X63881Y21844
X28257Y40640
M30