G04 EAGLE Gerber RS-274X export*
G75*
%MOMM*%
%FSLAX34Y34*%
%LPD*%
%INSoldermask Top*%
%IPPOS*%
%AMOC8*
5,1,8,0,0,1.08239X$1,22.5*%
G01*
%ADD10C,3.101600*%
%ADD11R,1.401600X1.601600*%
%ADD12R,1.801600X0.751600*%
%ADD13R,1.101600X1.201600*%
%ADD14R,2.133600X0.609600*%
%ADD15C,1.625600*%
%ADD16R,2.301600X1.301600*%
%ADD17R,1.151600X1.181600*%
%ADD18P,1.759533X8X202.500000*%
%ADD19C,1.609600*%
%ADD20C,2.051600*%
%ADD21R,1.601600X0.451600*%
%ADD22R,0.451600X1.601600*%
%ADD23R,1.181600X1.151600*%
%ADD24R,0.812800X1.524000*%
%ADD25R,1.371600X2.641600*%
%ADD26C,1.701600*%
%ADD27C,1.201600*%
%ADD28R,1.001600X1.201600*%
%ADD29R,1.320800X2.336800*%
%ADD30R,3.701600X2.301600*%


D10*
X30480Y570230D03*
X709930Y570230D03*
X30480Y119380D03*
X709930Y119380D03*
D11*
X723240Y190500D03*
X704240Y190500D03*
X680060Y190500D03*
X661060Y190500D03*
D12*
X347520Y157480D03*
X347520Y170180D03*
X347520Y182880D03*
X347520Y195580D03*
X347520Y208280D03*
X347520Y220980D03*
X347520Y233680D03*
X347520Y246380D03*
X347520Y259080D03*
X347520Y271780D03*
X251920Y259080D03*
X251920Y271780D03*
X251920Y284480D03*
X251920Y297180D03*
X251920Y309880D03*
X251920Y322580D03*
X347520Y322580D03*
X347520Y309880D03*
X347520Y297180D03*
X347520Y284480D03*
X251920Y246380D03*
X251920Y233680D03*
X251920Y220980D03*
X251920Y208280D03*
X251920Y195580D03*
X251920Y182880D03*
X251920Y170180D03*
X251920Y157480D03*
D13*
X551570Y396240D03*
X568570Y396240D03*
X601100Y396240D03*
X618100Y396240D03*
X395360Y396240D03*
X412360Y396240D03*
D14*
X186690Y157480D03*
X186690Y170180D03*
X186690Y182880D03*
X186690Y195580D03*
X186690Y208280D03*
X186690Y220980D03*
X186690Y233680D03*
X186690Y246380D03*
X186690Y259080D03*
X186690Y271780D03*
X186690Y284480D03*
X186690Y297180D03*
X186690Y309880D03*
X186690Y322580D03*
X186690Y335280D03*
X186690Y347980D03*
X52070Y347980D03*
X52070Y335280D03*
X52070Y322580D03*
X52070Y309880D03*
X52070Y297180D03*
X52070Y284480D03*
X52070Y271780D03*
X52070Y259080D03*
X52070Y246380D03*
X52070Y233680D03*
X52070Y220980D03*
X52070Y208280D03*
X52070Y195580D03*
X52070Y182880D03*
X52070Y170180D03*
X52070Y157480D03*
D15*
X708660Y24130D03*
X708660Y74930D03*
X683260Y24130D03*
X683260Y74930D03*
X657860Y24130D03*
X657860Y74930D03*
X632460Y24130D03*
X632460Y74930D03*
X581660Y24130D03*
X556260Y24130D03*
X530860Y24130D03*
X505460Y24130D03*
X480060Y24130D03*
X454660Y24130D03*
X429260Y24130D03*
X403860Y24130D03*
X378460Y24130D03*
X353060Y24130D03*
X327660Y24130D03*
X302260Y24130D03*
X276860Y24130D03*
X251460Y24130D03*
X226060Y24130D03*
X200660Y24130D03*
X175260Y24130D03*
X149860Y24130D03*
X124460Y24130D03*
X99060Y24130D03*
X73660Y24130D03*
X48260Y24130D03*
X22860Y24130D03*
X581660Y74930D03*
X556260Y74930D03*
X530860Y74930D03*
X505460Y74930D03*
X480060Y74930D03*
X454660Y74930D03*
X429260Y74930D03*
X403860Y74930D03*
X378460Y74930D03*
X353060Y74930D03*
X327660Y74930D03*
X302260Y74930D03*
X276860Y74930D03*
X251460Y74930D03*
X226060Y74930D03*
X200660Y74930D03*
X175260Y74930D03*
X149860Y74930D03*
X124460Y74930D03*
X99060Y74930D03*
X73660Y74930D03*
X48260Y74930D03*
X22860Y74930D03*
D13*
X665090Y124460D03*
X648090Y124460D03*
X648090Y144780D03*
X665090Y144780D03*
D16*
X722880Y456600D03*
X722880Y481600D03*
X722880Y506600D03*
X659880Y506600D03*
X659880Y481600D03*
X659880Y456600D03*
D13*
X275980Y436880D03*
X292980Y436880D03*
X292980Y457200D03*
X275980Y457200D03*
D17*
X59830Y139700D03*
X77330Y139700D03*
X280530Y139700D03*
X263030Y139700D03*
D18*
X708660Y36830D03*
X708660Y62230D03*
X683260Y36830D03*
X683260Y62230D03*
X657860Y36830D03*
X657860Y62230D03*
X632460Y36830D03*
X632460Y62230D03*
X581660Y36830D03*
X581660Y62230D03*
X556260Y36830D03*
X556260Y62230D03*
X530860Y36830D03*
X530860Y62230D03*
X505460Y36830D03*
X505460Y62230D03*
X480060Y36830D03*
X480060Y62230D03*
X454660Y36830D03*
X454660Y62230D03*
X429260Y36830D03*
X429260Y62230D03*
X403860Y36830D03*
X403860Y62230D03*
X378460Y36830D03*
X378460Y62230D03*
X353060Y36830D03*
X353060Y62230D03*
X327660Y36830D03*
X327660Y62230D03*
X302260Y36830D03*
X302260Y62230D03*
X276860Y36830D03*
X276860Y62230D03*
X251460Y36830D03*
X251460Y62230D03*
X226060Y36830D03*
X226060Y62230D03*
X200660Y36830D03*
X200660Y62230D03*
X175260Y36830D03*
X175260Y62230D03*
X149860Y36830D03*
X149860Y62230D03*
X124460Y36830D03*
X124460Y62230D03*
X99060Y36830D03*
X99060Y62230D03*
X73660Y36830D03*
X73660Y62230D03*
X48260Y36830D03*
X48260Y62230D03*
X22860Y36830D03*
X22860Y62230D03*
D13*
X275980Y482600D03*
X292980Y482600D03*
D19*
X289200Y543360D03*
X244200Y543360D03*
D20*
X301700Y518360D03*
X231700Y518360D03*
D19*
X143150Y517960D03*
X98150Y517960D03*
D20*
X155650Y492960D03*
X85650Y492960D03*
D11*
X492100Y396240D03*
X473100Y396240D03*
D21*
X440700Y307650D03*
X440700Y302650D03*
X440700Y297650D03*
X440700Y292650D03*
X440700Y287650D03*
X440700Y282650D03*
X440700Y277650D03*
X440700Y272650D03*
X440700Y267650D03*
X440700Y262650D03*
X440700Y257650D03*
X440700Y252650D03*
X440700Y247650D03*
X440700Y242650D03*
X440700Y237650D03*
X440700Y232650D03*
X440700Y227650D03*
X440700Y222650D03*
X440700Y217650D03*
X440700Y212650D03*
X440700Y207650D03*
X440700Y202650D03*
X440700Y197650D03*
X440700Y192650D03*
X440700Y187650D03*
D22*
X460700Y167650D03*
X465700Y167650D03*
X470700Y167650D03*
X475700Y167650D03*
X480700Y167650D03*
X485700Y167650D03*
X490700Y167650D03*
X495700Y167650D03*
X500700Y167650D03*
X505700Y167650D03*
X510700Y167650D03*
X515700Y167650D03*
X520700Y167650D03*
X525700Y167650D03*
X530700Y167650D03*
X535700Y167650D03*
X540700Y167650D03*
X545700Y167650D03*
X550700Y167650D03*
X555700Y167650D03*
X560700Y167650D03*
X565700Y167650D03*
X570700Y167650D03*
X575700Y167650D03*
X580700Y167650D03*
D21*
X600700Y187650D03*
X600700Y192650D03*
X600700Y197650D03*
X600700Y202650D03*
X600700Y207650D03*
X600700Y212650D03*
X600700Y217650D03*
X600700Y222650D03*
X600700Y227650D03*
X600700Y232650D03*
X600700Y237650D03*
X600700Y242650D03*
X600700Y247650D03*
X600700Y252650D03*
X600700Y257650D03*
X600700Y262650D03*
X600700Y267650D03*
X600700Y272650D03*
X600700Y277650D03*
X600700Y282650D03*
X600700Y287650D03*
X600700Y292650D03*
X600700Y297650D03*
X600700Y302650D03*
X600700Y307650D03*
D22*
X580700Y327650D03*
X575700Y327650D03*
X570700Y327650D03*
X565700Y327650D03*
X560700Y327650D03*
X555700Y327650D03*
X550700Y327650D03*
X545700Y327650D03*
X540700Y327650D03*
X535700Y327650D03*
X530700Y327650D03*
X525700Y327650D03*
X520700Y327650D03*
X515700Y327650D03*
X510700Y327650D03*
X505700Y327650D03*
X500700Y327650D03*
X495700Y327650D03*
X490700Y327650D03*
X485700Y327650D03*
X480700Y327650D03*
X475700Y327650D03*
X470700Y327650D03*
X465700Y327650D03*
X460700Y327650D03*
D19*
X177800Y431800D03*
X177800Y406400D03*
X152400Y431800D03*
X152400Y406400D03*
X127000Y431800D03*
X127000Y406400D03*
X101600Y431800D03*
X101600Y406400D03*
X76200Y431800D03*
X76200Y406400D03*
D17*
X411340Y267970D03*
X393840Y267970D03*
X411340Y248920D03*
X393840Y248920D03*
X473850Y127000D03*
X491350Y127000D03*
X550050Y127000D03*
X567550Y127000D03*
X552590Y360680D03*
X570090Y360680D03*
X498970Y360680D03*
X481470Y360680D03*
D23*
X629920Y209690D03*
X629920Y227190D03*
X629920Y250330D03*
X629920Y267830D03*
D24*
X419100Y424180D03*
X444500Y424180D03*
X469900Y424180D03*
X495300Y424180D03*
X520700Y424180D03*
X546100Y424180D03*
X571500Y424180D03*
X586740Y424180D03*
X393700Y424180D03*
X612140Y424180D03*
X599440Y424180D03*
D25*
X370840Y444500D03*
X353060Y584200D03*
X624840Y584200D03*
X624840Y444500D03*
D26*
X393700Y454660D03*
D27*
X604520Y454660D03*
D28*
X661700Y308500D03*
X633700Y326500D03*
X633700Y308500D03*
X661700Y326500D03*
D29*
X667766Y219202D03*
X690880Y219202D03*
X713994Y219202D03*
D30*
X690880Y281180D03*
D25*
X344170Y411480D03*
M02*
