G04 EAGLE Gerber RS-274X export*
G75*
%MOMM*%
%FSLAX34Y34*%
%LPD*%
%INSoldermask Bottom*%
%IPPOS*%
%AMOC8*
5,1,8,0,0,1.08239X$1,22.5*%
G01*
%ADD10C,3.101600*%
%ADD11C,1.625600*%
%ADD12R,1.301600X1.301600*%
%ADD13P,1.759533X8X202.500000*%
%ADD14C,1.609600*%
%ADD15C,2.051600*%
%ADD16C,1.701600*%
%ADD17C,1.201600*%


D10*
X30480Y570230D03*
X709930Y570230D03*
X30480Y119380D03*
X709930Y119380D03*
D11*
X708660Y24130D03*
X708660Y74930D03*
X683260Y24130D03*
X683260Y74930D03*
X657860Y24130D03*
X657860Y74930D03*
X632460Y24130D03*
X632460Y74930D03*
X581660Y24130D03*
X556260Y24130D03*
X530860Y24130D03*
X505460Y24130D03*
X480060Y24130D03*
X454660Y24130D03*
X429260Y24130D03*
X403860Y24130D03*
X378460Y24130D03*
X353060Y24130D03*
X327660Y24130D03*
X302260Y24130D03*
X276860Y24130D03*
X251460Y24130D03*
X226060Y24130D03*
X200660Y24130D03*
X175260Y24130D03*
X149860Y24130D03*
X124460Y24130D03*
X99060Y24130D03*
X73660Y24130D03*
X48260Y24130D03*
X22860Y24130D03*
X581660Y74930D03*
X556260Y74930D03*
X530860Y74930D03*
X505460Y74930D03*
X480060Y74930D03*
X454660Y74930D03*
X429260Y74930D03*
X403860Y74930D03*
X378460Y74930D03*
X353060Y74930D03*
X327660Y74930D03*
X302260Y74930D03*
X276860Y74930D03*
X251460Y74930D03*
X226060Y74930D03*
X200660Y74930D03*
X175260Y74930D03*
X149860Y74930D03*
X124460Y74930D03*
X99060Y74930D03*
X73660Y74930D03*
X48260Y74930D03*
X22860Y74930D03*
D12*
X561680Y549910D03*
X540680Y549910D03*
X424520Y549910D03*
X403520Y549910D03*
D13*
X708660Y36830D03*
X708660Y62230D03*
X683260Y36830D03*
X683260Y62230D03*
X657860Y36830D03*
X657860Y62230D03*
X632460Y36830D03*
X632460Y62230D03*
X581660Y36830D03*
X581660Y62230D03*
X556260Y36830D03*
X556260Y62230D03*
X530860Y36830D03*
X530860Y62230D03*
X505460Y36830D03*
X505460Y62230D03*
X480060Y36830D03*
X480060Y62230D03*
X454660Y36830D03*
X454660Y62230D03*
X429260Y36830D03*
X429260Y62230D03*
X403860Y36830D03*
X403860Y62230D03*
X378460Y36830D03*
X378460Y62230D03*
X353060Y36830D03*
X353060Y62230D03*
X327660Y36830D03*
X327660Y62230D03*
X302260Y36830D03*
X302260Y62230D03*
X276860Y36830D03*
X276860Y62230D03*
X251460Y36830D03*
X251460Y62230D03*
X226060Y36830D03*
X226060Y62230D03*
X200660Y36830D03*
X200660Y62230D03*
X175260Y36830D03*
X175260Y62230D03*
X149860Y36830D03*
X149860Y62230D03*
X124460Y36830D03*
X124460Y62230D03*
X99060Y36830D03*
X99060Y62230D03*
X73660Y36830D03*
X73660Y62230D03*
X48260Y36830D03*
X48260Y62230D03*
X22860Y36830D03*
X22860Y62230D03*
D14*
X289200Y543360D03*
X244200Y543360D03*
D15*
X301700Y518360D03*
X231700Y518360D03*
D14*
X143150Y517960D03*
X98150Y517960D03*
D15*
X155650Y492960D03*
X85650Y492960D03*
D14*
X177800Y431800D03*
X177800Y406400D03*
X152400Y431800D03*
X152400Y406400D03*
X127000Y431800D03*
X127000Y406400D03*
X101600Y431800D03*
X101600Y406400D03*
X76200Y431800D03*
X76200Y406400D03*
D16*
X393700Y454660D03*
D17*
X604520Y454660D03*
M02*
